G04 MADE WITH FRITZING*
G04 WWW.FRITZING.ORG*
G04 DOUBLE SIDED*
G04 HOLES PLATED*
G04 CONTOUR ON CENTER OF CONTOUR VECTOR*
%ASAXBY*%
%FSLAX23Y23*%
%MOIN*%
%OFA0B0*%
%SFA1.0B1.0*%
%ADD10C,0.088000*%
%ADD11C,0.085000*%
%ADD12C,0.072992*%
%ADD13C,0.090000*%
%ADD14C,0.082917*%
%ADD15C,0.080000*%
%ADD16C,0.206851*%
%ADD17R,0.072992X0.072992*%
%ADD18R,0.090000X0.090000*%
%ADD19R,0.080000X0.080000*%
%ADD20R,0.085000X0.085000*%
%LNMASK0*%
G90*
G70*
G54D10*
X293Y2616D03*
X293Y2516D03*
X293Y2416D03*
X293Y2316D03*
G54D11*
X393Y2216D03*
X393Y1916D03*
X2293Y1216D03*
X2493Y1216D03*
G54D10*
X1893Y2716D03*
X1793Y2716D03*
X1693Y2716D03*
X1593Y2716D03*
X893Y416D03*
X793Y416D03*
X693Y416D03*
X593Y416D03*
X893Y516D03*
X793Y516D03*
X693Y516D03*
X593Y516D03*
X893Y616D03*
X793Y616D03*
X693Y616D03*
X593Y616D03*
X893Y716D03*
X793Y716D03*
X693Y716D03*
X593Y716D03*
G54D11*
X793Y2516D03*
X1193Y2516D03*
G54D12*
X1294Y2616D03*
X1393Y2616D03*
X1494Y2516D03*
X1593Y2516D03*
G54D11*
X793Y2616D03*
X1193Y2616D03*
G54D10*
X993Y2716D03*
X893Y2716D03*
X793Y2716D03*
X693Y2716D03*
G54D11*
X3793Y2116D03*
X3393Y2116D03*
G54D10*
X193Y2116D03*
X193Y2016D03*
X193Y2116D03*
X193Y2016D03*
X293Y2016D03*
X293Y2116D03*
G54D11*
X393Y1716D03*
X393Y916D03*
G54D12*
X3893Y2214D03*
X3893Y2116D03*
G54D11*
X3893Y2016D03*
X4093Y2016D03*
G54D13*
X4193Y2314D03*
X4193Y2177D03*
G54D14*
X1293Y2816D03*
X2893Y2816D03*
X1193Y2816D03*
X1093Y2816D03*
X993Y2816D03*
X893Y2816D03*
X593Y1416D03*
X793Y2816D03*
X693Y2816D03*
X2853Y916D03*
X2293Y2816D03*
X2193Y2816D03*
X2093Y2816D03*
X1993Y2816D03*
X593Y2216D03*
X1893Y2816D03*
X1793Y2816D03*
X1693Y2816D03*
X1593Y2816D03*
X2093Y916D03*
X593Y1016D03*
X593Y1816D03*
X593Y2616D03*
X3253Y916D03*
X2493Y2816D03*
X2493Y916D03*
X593Y1216D03*
X593Y1616D03*
X593Y2016D03*
X893Y916D03*
X593Y2416D03*
X993Y916D03*
X1093Y916D03*
X1193Y916D03*
X1293Y916D03*
X1393Y916D03*
X1493Y916D03*
X1593Y916D03*
X3453Y916D03*
X3053Y916D03*
X2653Y916D03*
X3093Y2816D03*
X2693Y2816D03*
X1893Y916D03*
X2293Y916D03*
X593Y916D03*
X593Y1116D03*
X593Y1316D03*
X593Y1516D03*
X593Y1716D03*
X593Y1916D03*
X593Y2116D03*
X593Y2316D03*
X593Y2516D03*
X3553Y916D03*
X3353Y916D03*
X3153Y916D03*
X2953Y916D03*
X2753Y916D03*
X3193Y2816D03*
X2993Y2816D03*
X2793Y2816D03*
X2593Y2816D03*
X1793Y916D03*
X1993Y916D03*
X2193Y916D03*
X2393Y916D03*
X493Y916D03*
X493Y1016D03*
X493Y1116D03*
X493Y1216D03*
X493Y1316D03*
X493Y1416D03*
X493Y1516D03*
X493Y1616D03*
X493Y1716D03*
X493Y1816D03*
X493Y1916D03*
X493Y2016D03*
X493Y2116D03*
X493Y2216D03*
X493Y2316D03*
X493Y2416D03*
X493Y2516D03*
X493Y2616D03*
X1393Y2816D03*
G54D15*
X2993Y1816D03*
X3493Y1816D03*
X2993Y1716D03*
X3493Y1716D03*
X2993Y1616D03*
X3493Y1616D03*
X2993Y1516D03*
X3493Y1516D03*
X2993Y1416D03*
X3493Y1416D03*
X2993Y1316D03*
X3493Y1316D03*
X2993Y1216D03*
X3493Y1216D03*
X2993Y1116D03*
X3493Y1116D03*
X2093Y1816D03*
X2593Y1816D03*
X2093Y1716D03*
X2593Y1716D03*
X2093Y1616D03*
X2593Y1616D03*
X2093Y1516D03*
X2593Y1516D03*
X2093Y1416D03*
X2593Y1416D03*
X2093Y1316D03*
X2593Y1316D03*
X2093Y1216D03*
X2593Y1216D03*
X2093Y1116D03*
X2593Y1116D03*
X1193Y1816D03*
X1693Y1816D03*
X1193Y1716D03*
X1693Y1716D03*
X1193Y1616D03*
X1693Y1616D03*
X1193Y1516D03*
X1693Y1516D03*
X1193Y1416D03*
X1693Y1416D03*
X1193Y1316D03*
X1693Y1316D03*
X1193Y1216D03*
X1693Y1216D03*
X1193Y1116D03*
X1693Y1116D03*
G54D10*
X3693Y1616D03*
X3693Y1516D03*
X3693Y1416D03*
X3693Y1316D03*
X1893Y1616D03*
X1893Y1516D03*
X1893Y1416D03*
X1893Y1316D03*
X2793Y1616D03*
X2793Y1516D03*
X2793Y1416D03*
X2793Y1316D03*
G54D11*
X3893Y1716D03*
X3893Y1816D03*
X2893Y1916D03*
X2893Y2016D03*
X1993Y1916D03*
X1993Y2016D03*
X2493Y1916D03*
X2493Y1616D03*
X1593Y1816D03*
X1593Y1616D03*
X3393Y1916D03*
X3393Y1616D03*
G54D13*
X193Y1216D03*
X193Y1078D03*
X193Y940D03*
X193Y1716D03*
X193Y1578D03*
X193Y1440D03*
X1793Y616D03*
X1655Y616D03*
X1517Y616D03*
X1379Y616D03*
X1241Y616D03*
X1104Y616D03*
G54D10*
X3393Y716D03*
X3293Y716D03*
X3193Y716D03*
X3093Y716D03*
G54D11*
X2793Y2116D03*
X2793Y2716D03*
G54D10*
X3893Y1516D03*
X3893Y1416D03*
X3893Y1316D03*
X3893Y1216D03*
X3893Y1116D03*
X3893Y1016D03*
X3893Y1516D03*
X3893Y1416D03*
X3893Y1316D03*
X3893Y1216D03*
X3893Y1116D03*
X3893Y1016D03*
X3993Y1016D03*
X3993Y1116D03*
X3993Y1216D03*
X3993Y1316D03*
X3993Y1416D03*
X3993Y1516D03*
X1293Y1616D03*
X1293Y1516D03*
X1293Y1416D03*
X1293Y1616D03*
X1293Y1516D03*
X1293Y1416D03*
X1393Y1416D03*
X1393Y1516D03*
X1393Y1616D03*
X2193Y1616D03*
X2193Y1516D03*
X2193Y1416D03*
X2193Y1616D03*
X2193Y1516D03*
X2193Y1416D03*
X2293Y1416D03*
X2293Y1516D03*
X2293Y1616D03*
X3093Y1616D03*
X3093Y1516D03*
X3093Y1416D03*
X3093Y1616D03*
X3093Y1516D03*
X3093Y1416D03*
X3193Y1416D03*
X3193Y1516D03*
X3193Y1616D03*
G54D11*
X993Y1416D03*
X737Y1416D03*
X993Y1593D03*
X737Y1593D03*
X793Y1316D03*
X793Y916D03*
X693Y1316D03*
X693Y1016D03*
X3193Y2516D03*
X2937Y2516D03*
X3193Y2693D03*
X2937Y2693D03*
G54D10*
X3393Y516D03*
X3293Y516D03*
X3193Y516D03*
X3093Y516D03*
G54D16*
X4493Y2916D03*
X193Y2916D03*
X193Y216D03*
X4493Y216D03*
G54D13*
X4193Y1816D03*
X4193Y1678D03*
G54D11*
X3093Y2216D03*
X3093Y2016D03*
X993Y1716D03*
X737Y1716D03*
X993Y1893D03*
X737Y1893D03*
X1093Y1416D03*
X1093Y1016D03*
X793Y2016D03*
X1193Y2016D03*
X793Y2116D03*
X1193Y2116D03*
X793Y2216D03*
X1193Y2216D03*
X793Y2316D03*
X1193Y2316D03*
X793Y2416D03*
X1193Y2416D03*
G54D12*
X1294Y2016D03*
X1393Y2016D03*
X1494Y2116D03*
X1593Y2116D03*
X1294Y2216D03*
X1393Y2216D03*
X1494Y2316D03*
X1593Y2316D03*
X1294Y2416D03*
X1393Y2416D03*
G54D11*
X1793Y2216D03*
X1793Y1716D03*
G54D10*
X3693Y716D03*
X3593Y716D03*
X2593Y416D03*
X2493Y416D03*
X2393Y416D03*
X2293Y416D03*
X2193Y416D03*
X2093Y416D03*
X1993Y416D03*
G54D17*
X1294Y2616D03*
X1494Y2516D03*
X3893Y2214D03*
G54D18*
X4193Y2314D03*
G54D19*
X3493Y1116D03*
X3493Y1716D03*
X2593Y1116D03*
X2593Y1716D03*
X1693Y1116D03*
X1693Y1716D03*
G54D20*
X3893Y1716D03*
X2893Y1916D03*
X1993Y1916D03*
G54D18*
X193Y1216D03*
X193Y1716D03*
X1793Y616D03*
X4193Y1816D03*
G54D17*
X1294Y2016D03*
X1494Y2116D03*
X1294Y2216D03*
X1494Y2316D03*
X1294Y2416D03*
G04 End of Mask0*
M02*