G04 MADE WITH FRITZING*
G04 WWW.FRITZING.ORG*
G04 DOUBLE SIDED*
G04 HOLES PLATED*
G04 CONTOUR ON CENTER OF CONTOUR VECTOR*
%ASAXBY*%
%FSLAX23Y23*%
%MOIN*%
%OFA0B0*%
%SFA1.0B1.0*%
%ADD10C,0.078000*%
%ADD11C,0.039370*%
%ADD12C,0.075000*%
%ADD13C,0.062992*%
%ADD14C,0.080000*%
%ADD15C,0.072917*%
%ADD16C,0.070000*%
%ADD17C,0.196851*%
%ADD18R,0.062992X0.062992*%
%ADD19R,0.080000X0.080000*%
%ADD20R,0.070000X0.070000*%
%ADD21R,0.075000X0.075000*%
%LNCOPPER1*%
G90*
G70*
G54D10*
X3338Y883D03*
X3238Y883D03*
X3138Y883D03*
X3038Y883D03*
X2938Y883D03*
X2838Y883D03*
X2738Y883D03*
G54D11*
X5438Y3483D03*
X752Y3499D03*
X5438Y583D03*
X738Y583D03*
G54D10*
X1038Y3083D03*
X1038Y2983D03*
X1038Y2883D03*
X1038Y2783D03*
G54D12*
X1138Y2683D03*
X1138Y2383D03*
X3038Y1683D03*
X3238Y1683D03*
G54D10*
X2638Y3183D03*
X2538Y3183D03*
X2438Y3183D03*
X2338Y3183D03*
X1638Y883D03*
X1538Y883D03*
X1438Y883D03*
X1338Y883D03*
X1638Y983D03*
X1538Y983D03*
X1438Y983D03*
X1338Y983D03*
X1638Y1083D03*
X1538Y1083D03*
X1438Y1083D03*
X1338Y1083D03*
X1638Y1183D03*
X1538Y1183D03*
X1438Y1183D03*
X1338Y1183D03*
G54D12*
X1538Y2983D03*
X1938Y2983D03*
G54D13*
X2039Y3083D03*
X2138Y3083D03*
X2239Y2983D03*
X2338Y2983D03*
G54D12*
X1538Y3083D03*
X1938Y3083D03*
G54D10*
X1738Y3183D03*
X1638Y3183D03*
X1538Y3183D03*
X1438Y3183D03*
G54D12*
X4538Y2583D03*
X4138Y2583D03*
G54D10*
X938Y2583D03*
X938Y2483D03*
X938Y2583D03*
X938Y2483D03*
X1038Y2483D03*
X1038Y2583D03*
G54D12*
X1138Y2183D03*
X1138Y1383D03*
G54D13*
X4638Y2681D03*
X4638Y2583D03*
G54D12*
X4638Y2483D03*
X4838Y2483D03*
G54D14*
X4939Y2781D03*
X4939Y2643D03*
G54D15*
X2038Y3283D03*
X3638Y3283D03*
X1938Y3283D03*
X1838Y3283D03*
X1738Y3283D03*
X1638Y3283D03*
X1338Y1883D03*
X1538Y3283D03*
X1438Y3283D03*
X3598Y1383D03*
X3038Y3283D03*
X2938Y3283D03*
X2838Y3283D03*
X2738Y3283D03*
X1338Y2683D03*
X2638Y3283D03*
X2538Y3283D03*
X2438Y3283D03*
X2338Y3283D03*
X2838Y1383D03*
X1338Y1483D03*
X1338Y2283D03*
X1338Y3083D03*
X3998Y1383D03*
X3238Y3283D03*
X3238Y1383D03*
X1338Y1683D03*
X1338Y2083D03*
X1338Y2483D03*
X1638Y1383D03*
X1338Y2883D03*
X1738Y1383D03*
X1838Y1383D03*
X1938Y1383D03*
X2038Y1383D03*
X2138Y1383D03*
X2238Y1383D03*
X2338Y1383D03*
X4198Y1383D03*
X3798Y1383D03*
X3398Y1383D03*
X3838Y3283D03*
X3438Y3283D03*
X2638Y1383D03*
X3038Y1383D03*
X1338Y1383D03*
X1338Y1583D03*
X1338Y1783D03*
X1338Y1983D03*
X1338Y2183D03*
X1338Y2383D03*
X1338Y2583D03*
X1338Y2783D03*
X1338Y2983D03*
X4298Y1383D03*
X4098Y1383D03*
X3898Y1383D03*
X3698Y1383D03*
X3498Y1383D03*
X3938Y3283D03*
X3738Y3283D03*
X3538Y3283D03*
X3338Y3283D03*
X2538Y1383D03*
X2738Y1383D03*
X2938Y1383D03*
X3138Y1383D03*
X1238Y1383D03*
X1238Y1483D03*
X1238Y1583D03*
X1238Y1683D03*
X1238Y1783D03*
X1238Y1883D03*
X1238Y1983D03*
X1238Y2083D03*
X1238Y2183D03*
X1238Y2283D03*
X1238Y2383D03*
X1238Y2483D03*
X1238Y2583D03*
X1238Y2683D03*
X1238Y2783D03*
X1238Y2883D03*
X1238Y2983D03*
X1238Y3083D03*
X2138Y3283D03*
G54D16*
X3738Y2283D03*
X4238Y2283D03*
X3738Y2183D03*
X4238Y2183D03*
X3738Y2083D03*
X4238Y2083D03*
X3738Y1983D03*
X4238Y1983D03*
X3738Y1883D03*
X4238Y1883D03*
X3738Y1783D03*
X4238Y1783D03*
X3738Y1683D03*
X4238Y1683D03*
X3738Y1583D03*
X4238Y1583D03*
X2838Y2283D03*
X3338Y2283D03*
X2838Y2183D03*
X3338Y2183D03*
X2838Y2083D03*
X3338Y2083D03*
X2838Y1983D03*
X3338Y1983D03*
X2838Y1883D03*
X3338Y1883D03*
X2838Y1783D03*
X3338Y1783D03*
X2838Y1683D03*
X3338Y1683D03*
X2838Y1583D03*
X3338Y1583D03*
X1938Y2283D03*
X2438Y2283D03*
X1938Y2183D03*
X2438Y2183D03*
X1938Y2083D03*
X2438Y2083D03*
X1938Y1983D03*
X2438Y1983D03*
X1938Y1883D03*
X2438Y1883D03*
X1938Y1783D03*
X2438Y1783D03*
X1938Y1683D03*
X2438Y1683D03*
X1938Y1583D03*
X2438Y1583D03*
G54D10*
X4438Y2083D03*
X4438Y1983D03*
X4438Y1883D03*
X4438Y1783D03*
X2638Y2083D03*
X2638Y1983D03*
X2638Y1883D03*
X2638Y1783D03*
X3538Y2083D03*
X3538Y1983D03*
X3538Y1883D03*
X3538Y1783D03*
G54D12*
X4638Y2183D03*
X4638Y2283D03*
X3638Y2383D03*
X3638Y2483D03*
X2738Y2383D03*
X2738Y2483D03*
X3238Y2383D03*
X3238Y2083D03*
X2338Y2283D03*
X2338Y2083D03*
X4138Y2383D03*
X4138Y2083D03*
G54D14*
X938Y1683D03*
X938Y1545D03*
X938Y1407D03*
X938Y2183D03*
X938Y2045D03*
X938Y1907D03*
X2538Y1083D03*
X2400Y1083D03*
X2262Y1083D03*
X2124Y1083D03*
X1987Y1083D03*
X1849Y1083D03*
G54D10*
X4138Y1183D03*
X4038Y1183D03*
X3938Y1183D03*
X3838Y1183D03*
G54D12*
X3538Y2583D03*
X3538Y3183D03*
G54D10*
X4638Y1983D03*
X4638Y1883D03*
X4638Y1783D03*
X4638Y1683D03*
X4638Y1583D03*
X4638Y1483D03*
X4638Y1983D03*
X4638Y1883D03*
X4638Y1783D03*
X4638Y1683D03*
X4638Y1583D03*
X4638Y1483D03*
X4738Y1483D03*
X4738Y1583D03*
X4738Y1683D03*
X4738Y1783D03*
X4738Y1883D03*
X4738Y1983D03*
X2038Y2083D03*
X2038Y1983D03*
X2038Y1883D03*
X2038Y2083D03*
X2038Y1983D03*
X2038Y1883D03*
X2138Y1883D03*
X2138Y1983D03*
X2138Y2083D03*
X2938Y2083D03*
X2938Y1983D03*
X2938Y1883D03*
X2938Y2083D03*
X2938Y1983D03*
X2938Y1883D03*
X3038Y1883D03*
X3038Y1983D03*
X3038Y2083D03*
X3838Y2083D03*
X3838Y1983D03*
X3838Y1883D03*
X3838Y2083D03*
X3838Y1983D03*
X3838Y1883D03*
X3938Y1883D03*
X3938Y1983D03*
X3938Y2083D03*
G54D12*
X1738Y1883D03*
X1482Y1883D03*
X1738Y2060D03*
X1482Y2060D03*
X1538Y1783D03*
X1538Y1383D03*
X1438Y1783D03*
X1438Y1483D03*
X3938Y2983D03*
X3682Y2983D03*
X3938Y3160D03*
X3682Y3160D03*
G54D10*
X4138Y983D03*
X4038Y983D03*
X3938Y983D03*
X3838Y983D03*
G54D17*
X5238Y3283D03*
X938Y3283D03*
X938Y783D03*
X5238Y783D03*
G54D14*
X4938Y2283D03*
X4938Y2145D03*
G54D12*
X3838Y2683D03*
X3838Y2483D03*
X1738Y2183D03*
X1482Y2183D03*
X1738Y2360D03*
X1482Y2360D03*
X1838Y1883D03*
X1838Y1483D03*
X1538Y2483D03*
X1938Y2483D03*
X1538Y2583D03*
X1938Y2583D03*
X1538Y2683D03*
X1938Y2683D03*
X1538Y2783D03*
X1938Y2783D03*
X1538Y2883D03*
X1938Y2883D03*
G54D13*
X2039Y2483D03*
X2138Y2483D03*
X2239Y2583D03*
X2338Y2583D03*
X2039Y2683D03*
X2138Y2683D03*
X2239Y2783D03*
X2338Y2783D03*
X2039Y2883D03*
X2138Y2883D03*
G54D12*
X2538Y2683D03*
X2538Y2183D03*
G54D10*
X4438Y1183D03*
X4338Y1183D03*
G54D18*
X2039Y3083D03*
X2239Y2983D03*
X4638Y2681D03*
G54D19*
X4939Y2781D03*
G54D20*
X4238Y1583D03*
X4238Y2183D03*
X3338Y1583D03*
X3338Y2183D03*
X2438Y1583D03*
X2438Y2183D03*
G54D21*
X4638Y2183D03*
X3638Y2383D03*
X2738Y2383D03*
G54D19*
X938Y1683D03*
X938Y2183D03*
X2538Y1083D03*
X4938Y2283D03*
G54D18*
X2039Y2483D03*
X2239Y2583D03*
X2039Y2683D03*
X2239Y2783D03*
X2039Y2883D03*
G04 End of Copper1*
M02*