; NON-PLATED HOLES START AT T1
; THROUGH (PLATED) HOLES START AT T100
M48
INCH
T100C0.040000
T101C0.031497
T102C0.118110
T103C0.030000
T104C0.038000
T105C0.038194
T106C0.035000
T107C0.015748
%
T100
X018488Y010828
X009378Y019072
X019866Y010828
X021244Y010828
X049378Y022827
X025378Y010828
X009378Y014072
X049387Y026433
X009378Y016828
X022622Y010828
X049378Y021450
X009378Y021827
X024000Y010828
X009378Y015450
X049387Y027811
X009378Y020450
T101
X021378Y028828
X022394Y027828
X023378Y027828
X020394Y024828
X021378Y024828
X046378Y025828
X022394Y029828
X023378Y029828
X046378Y026812
X020394Y026828
X021378Y026828
X020394Y030828
X021378Y030828
X022394Y025828
X023378Y025828
X020394Y028828
T102
X009378Y007827
X052378Y007827
X009378Y032828
X052378Y032828
T103
X024378Y015828
X028378Y015828
X019378Y018828
X033378Y017828
X037378Y020828
X042378Y022828
X024378Y021828
X028378Y021828
X037378Y017828
X042378Y019828
X019378Y016828
X033378Y015828
X024378Y018828
X028378Y018828
X042378Y020828
X037378Y015828
X019378Y022828
X033378Y021828
X042378Y017828
X024378Y016828
X028378Y016828
X019378Y019828
X033378Y018828
X037378Y021828
X019378Y020828
X042378Y015828
X024378Y022828
X028378Y022828
X037378Y018828
X019378Y017828
X033378Y016828
X024378Y019828
X028378Y019828
X042378Y021828
X024378Y020828
X028378Y020828
X037378Y016828
X033378Y022828
X042378Y018828
X019378Y015828
X024378Y017828
X028378Y017828
X033378Y019828
X037378Y022828
X019378Y021828
X033378Y020828
X042378Y016828
X037378Y019828
T104
X038378Y009828
X039378Y020828
X044378Y011828
X029378Y008828
X046378Y019828
X038378Y011828
X015378Y009828
X020378Y019828
X030378Y008828
X015378Y031828
X024378Y031828
X046378Y018828
X015378Y008828
X020378Y018828
X010378Y029828
X015378Y011828
X033378Y008828
X046378Y017828
X010378Y028828
X015378Y010828
X027378Y008828
X020378Y020828
X026378Y019828
X039378Y009828
X046378Y016828
X035378Y019828
X010378Y027828
X044378Y019828
X013378Y009828
X010378Y030828
X026378Y018828
X029378Y019828
X040378Y009828
X046378Y015828
X035378Y018828
X009378Y025828
X038378Y019828
X044378Y018828
X013378Y008828
X047378Y019828
X039378Y011828
X016378Y009828
X021378Y019828
X026378Y017828
X013378Y011828
X031378Y008828
X030378Y019828
X029378Y018828
X046378Y014828
X035378Y017828
X009378Y024828
X016378Y031828
X026378Y020828
X010378Y025828
X038378Y018828
X044378Y017828
X025378Y031828
X047378Y018828
X040378Y011828
X035378Y020828
X016378Y008828
X021378Y018828
X044378Y020828
X013378Y010828
X030378Y018828
X016378Y011828
X010378Y024828
X029378Y020828
X047378Y017828
X038378Y020828
X043378Y011828
X016378Y010828
X028378Y008828
X021378Y020828
X030378Y020828
X047378Y016828
X014378Y009828
X014378Y031828
X047378Y015828
X041378Y009828
X023378Y031828
X039378Y019828
X014378Y008828
X014378Y011828
X032378Y008828
X047378Y014828
X017378Y031828
X039378Y018828
X026378Y031828
X041378Y011828
X014378Y010828
T105
X012378Y013828
X013378Y021828
X038378Y032828
X021378Y013828
X021378Y032828
X013378Y017828
X030378Y013828
X038978Y013828
X012378Y028828
X030378Y032828
X013378Y020828
X015378Y032828
X013378Y016828
X012378Y027828
X024378Y032828
X033378Y032828
X012378Y030828
X013378Y015828
X018378Y013828
X033978Y013828
X012378Y026828
X018378Y032828
X027378Y013828
X042978Y013828
X027378Y032828
X036378Y032828
X013378Y014828
X012378Y025828
X036978Y013828
X013378Y029828
X039378Y032828
X013378Y013828
X012378Y024828
X022378Y013828
X031378Y013828
X039978Y013828
X013378Y028828
X012378Y023828
X016378Y013828
X016378Y032828
X025378Y013828
X040978Y013828
X012378Y019828
X013378Y027828
X025378Y032828
X034378Y032828
X012378Y022828
X013378Y030828
X019378Y013828
X034978Y013828
X019378Y032828
X012378Y018828
X013378Y026828
X028378Y013828
X028378Y032828
X012378Y021828
X037378Y032828
X020378Y013828
X020378Y032828
X012378Y017828
X013378Y025828
X037978Y013828
X012378Y020828
X014378Y032828
X012378Y016828
X013378Y024828
X023378Y013828
X023378Y032828
X032378Y013828
X032378Y032828
X012378Y015828
X013378Y023828
X017378Y013828
X017378Y032828
X026378Y013828
X041978Y013828
X026378Y032828
X013378Y019828
X035378Y032828
X012378Y014828
X013378Y022828
X035978Y013828
X029378Y013828
X013378Y018828
X012378Y029828
X029378Y032828
T106
X032378Y020828
X035378Y025828
X027378Y023828
X017378Y018828
X015378Y024828
X025378Y021828
X046378Y022828
X015378Y029828
X036819Y029828
X035378Y031828
X025378Y026828
X019378Y024828
X017378Y020599
X015378Y030828
X041378Y020828
X019378Y029828
X032378Y023828
X036378Y023828
X036819Y031599
X041378Y025828
X045378Y025828
X015378Y027828
X019378Y030828
X014819Y021828
X018378Y014828
X014378Y014828
X019378Y027828
X017378Y023599
X014819Y018828
X027378Y024828
X041378Y023828
X015378Y025828
X038378Y026828
X023378Y022828
X015378Y017828
X014819Y020599
X014378Y017828
X019378Y025828
X038378Y024828
X036378Y024828
X011378Y023828
X023378Y020828
X046378Y021828
X032378Y016828
X030378Y016828
X015378Y028828
X039378Y029828
X014819Y023599
X019378Y028828
X011378Y021828
X015378Y013828
X011378Y013828
X015378Y026828
X011378Y026828
X039378Y031599
X048378Y024828
X046378Y024828
X017378Y021828
X018378Y018828
X019378Y026828
T107
X054378Y034828
X007522Y034992
X054378Y005828
X007378Y005828
T00
M30
