; NON-PLATED HOLES START AT T1
; THROUGH (PLATED) HOLES START AT T100
M48
INCH
T100C0.031497
T101C0.118110
T102C0.030000
T103C0.038000
T104C0.038194
T105C0.035000
T106C0.040000
%
T100
X012940Y024159
X015925Y023159
X014940Y023159
X013925Y026159
X013925Y020159
X038925Y021159
X015925Y025159
X012940Y026159
X012940Y020159
X038925Y022143
X014940Y025159
X013925Y022159
X012940Y022159
X015925Y021159
X014940Y021159
X013925Y024159
T101
X044925Y029159
X001925Y002159
X044925Y002159
X001925Y029159
T102
X025925Y014159
X029925Y014159
X034925Y016159
X016925Y015159
X020925Y012159
X011925Y015159
X025925Y012159
X029925Y012159
X020925Y017159
X034925Y014159
X025925Y017159
X029925Y017159
X016925Y013159
X011925Y013159
X016925Y018159
X020925Y015159
X011925Y018159
X034925Y012159
X025925Y015159
X029925Y015159
X016925Y011159
X034925Y017159
X011925Y011159
X016925Y016159
X020925Y013159
X011925Y016159
X025925Y013159
X029925Y013159
X020925Y018159
X034925Y015159
X025925Y018159
X029925Y018159
X016925Y014159
X020925Y011159
X011925Y014159
X025925Y011159
X029925Y011159
X020925Y016159
X034925Y013159
X025925Y016159
X029925Y016159
X016925Y012159
X034925Y018159
X011925Y012159
X016925Y017159
X020925Y014159
X011925Y017159
X034925Y011159
T103
X002925Y025159
X012925Y014159
X005925Y007159
X021925Y014159
X025925Y004159
X001925Y020159
X008925Y027159
X018925Y016159
X030925Y014159
X017925Y027159
X038925Y013159
X027925Y016159
X032925Y007159
X002925Y024159
X036925Y016159
X005925Y006159
X008925Y007159
X019925Y004159
X018925Y015159
X038925Y012159
X027925Y015159
X002925Y023159
X036925Y015159
X005925Y005159
X035925Y007159
X008925Y006159
X020925Y004159
X013925Y016159
X018925Y014159
X022925Y016159
X038925Y011159
X027925Y014159
X032925Y005159
X031925Y016159
X036925Y014159
X005925Y004159
X008925Y005159
X039925Y015159
X013925Y015159
X018925Y013159
X023925Y004159
X006925Y027159
X022925Y015159
X038925Y010159
X027925Y013159
X002925Y021159
X015925Y027159
X031925Y015159
X036925Y013159
X030925Y007159
X008925Y004159
X039925Y014159
X013925Y014159
X006925Y007159
X022925Y014159
X002925Y020159
X009925Y027159
X031925Y014159
X018925Y027159
X039925Y013159
X033925Y007159
X006925Y006159
X030925Y005159
X039925Y012159
X036925Y007159
X006925Y005159
X021925Y004159
X033925Y005159
X039925Y011159
X006925Y004159
X024925Y004159
X007925Y027159
X039925Y010159
X016925Y027159
X031925Y007159
X007925Y007159
X007925Y006159
X012925Y016159
X021925Y016159
X031925Y005159
X030925Y016159
X038925Y015159
X007925Y005159
X002925Y026159
X012925Y015159
X022925Y004159
X021925Y015159
X001925Y021159
X030925Y015159
X038925Y014159
X007925Y004159
T104
X026925Y028159
X005925Y026159
X004925Y018159
X029525Y009159
X005925Y010159
X004925Y021159
X005925Y025159
X004925Y017159
X029925Y028159
X030525Y009159
X012925Y009159
X004925Y020159
X012925Y028159
X021925Y009159
X021925Y028159
X005925Y024159
X004925Y016159
X030925Y028159
X033525Y009159
X006925Y028159
X015925Y009159
X015925Y028159
X024925Y009159
X005925Y023159
X004925Y015159
X024925Y028159
X027525Y009159
X005925Y019159
X009925Y009159
X009925Y028159
X018925Y009159
X018925Y028159
X005925Y022159
X004925Y014159
X027925Y028159
X005925Y018159
X010925Y009159
X010925Y028159
X005925Y021159
X004925Y013159
X005925Y017159
X004925Y009159
X031525Y009159
X013925Y009159
X013925Y028159
X005925Y020159
X004925Y012159
X022925Y009159
X022925Y028159
X031925Y028159
X005925Y016159
X034525Y009159
X007925Y028159
X004925Y011159
X016925Y028159
X025925Y028159
X005925Y015159
X004925Y026159
X028525Y009159
X004925Y010159
X019925Y009159
X019925Y028159
X005925Y014159
X004925Y025159
X028925Y028159
X011925Y009159
X011925Y028159
X020925Y009159
X005925Y013159
X020925Y028159
X004925Y024159
X005925Y009159
X032525Y009159
X014925Y009159
X005925Y012159
X023925Y009159
X004925Y023159
X026525Y009159
X004925Y019159
X008925Y009159
X008925Y028159
X035525Y009159
X005925Y011159
X017925Y009159
X004925Y022159
X017925Y028159
T105
X006925Y013159
X007925Y021159
X024925Y019159
X027925Y027159
X031925Y026931
X010925Y010159
X009925Y015931
X007925Y013159
X029366Y025159
X007925Y026159
X033925Y016159
X011925Y023159
X028925Y019159
X024925Y012159
X022925Y012159
X007366Y018931
X030925Y022159
X028925Y020159
X007925Y024159
X009925Y018931
X011925Y021159
X033925Y019159
X011925Y026159
X030925Y020159
X007366Y014159
X015925Y018159
X007925Y022159
X003925Y022159
X038925Y020159
X031925Y025159
X009925Y014159
X011925Y024159
X003925Y019159
X027925Y021159
X015925Y016159
X038925Y017159
X007366Y017159
X007925Y020159
X040925Y020159
X029366Y026931
X007925Y025159
X010925Y014159
X017925Y022159
X011925Y022159
X009925Y017159
X003925Y017159
X007925Y009159
X003925Y009159
X006925Y010159
X024925Y016159
X019925Y019159
X033925Y021159
X037925Y021159
X007925Y023159
X011925Y020159
X019925Y020159
X007366Y015931
X011925Y025159
X017925Y017159
X038925Y018159
T106
X001925Y014403
X001925Y012159
X013791Y006159
X041934Y023143
X041925Y016781
X011035Y006159
X015169Y006159
X016547Y006159
X041925Y018159
X041934Y021765
X012413Y006159
X001925Y015781
X017925Y006159
X001925Y009403
X001925Y017159
X001925Y010781
T00
M30
