; NON-PLATED HOLES START AT T1
; THROUGH (PLATED) HOLES START AT T100
M48
INCH
T1C0.023361
T100C0.040000
T101C0.035000
T102C0.165354
T103C0.030000
T104C0.036000
T105C0.031497
%
T1
X033908Y004442
T100
X023527Y004929
X036527Y017929
X001527Y016306
X023527Y009306
X023527Y023307
X001527Y014929
X023527Y007929
X023527Y021929
X001527Y022307
X036527Y022307
X023527Y018929
X001527Y013306
X023527Y006306
X036527Y019307
X001527Y023307
X023527Y020307
X036527Y020929
X001527Y011929
T101
X026527Y016306
X017527Y012306
X011527Y017307
X034527Y024307
X017527Y009306
X030527Y016306
X004527Y005306
X002527Y005306
X026527Y014306
X007527Y026307
X013527Y002306
X021527Y012306
X021527Y017307
X007527Y024307
X011527Y021307
X012527Y005306
X012527Y018307
X021527Y023307
X026527Y010306
X017527Y003306
X034527Y023307
X021527Y013306
X012527Y022307
X012527Y001306
X021527Y011306
X017527Y006306
X013527Y006306
X021527Y024307
T102
X036527Y025307
X002527Y025307
X036527Y002306
X002527Y002306
T103
X032530Y017299
X014527Y012306
X019527Y020307
X027530Y021298
X019527Y012306
X014527Y017307
X032530Y023298
X014527Y009306
X019527Y017307
X027530Y018298
X019527Y009306
X014527Y010306
X014527Y023307
X019527Y010306
X019527Y023307
X032530Y021298
X014527Y007306
X027530Y024298
X019527Y007306
X032530Y018298
X014527Y021307
X019527Y021307
X014527Y005306
X027530Y022298
X014527Y018307
X032530Y024298
X019527Y005306
X019527Y018307
X027530Y019298
X014527Y011306
X014527Y024307
X027530Y020298
X019527Y011306
X019527Y024307
X032530Y022298
X014527Y008306
X019527Y008306
X027530Y017299
X032530Y019298
X014527Y022307
X019527Y022307
X032530Y020298
X014527Y006306
X027530Y023298
X014527Y019307
X019527Y006306
X019527Y019307
X014527Y020307
T104
X004527Y019307
X010527Y009306
X010527Y020307
X010527Y013306
X004527Y016306
X004527Y009306
X004527Y020307
X010527Y010306
X004527Y013306
X004527Y010306
X010527Y018307
X010527Y015306
X004527Y018307
X010527Y008306
X010527Y012306
X004527Y015306
X004527Y008306
X004527Y012306
X010527Y017307
X010527Y021307
X010527Y014306
X004527Y017307
X010527Y007306
X004527Y021307
X010527Y011306
X004527Y014306
X004527Y007306
X004527Y011306
X010527Y019307
X010527Y016306
T105
X031527Y013306
X030543Y015306
X019527Y003322
X010527Y025307
X031527Y015306
X010527Y024322
X019527Y002306
X012527Y025307
X030543Y013306
X019527Y001322
X012527Y024322
X019527Y004306
T00
M30
