G04 MADE WITH FRITZING*
G04 WWW.FRITZING.ORG*
G04 DOUBLE SIDED*
G04 HOLES PLATED*
G04 CONTOUR ON CENTER OF CONTOUR VECTOR*
%ASAXBY*%
%FSLAX23Y23*%
%MOIN*%
%OFA0B0*%
%SFA1.0B1.0*%
%ADD10C,0.075000*%
%ADD11C,0.062992*%
%ADD12C,0.070000*%
%ADD13C,0.080000*%
%ADD14C,0.244094*%
%ADD15R,0.062992X0.062992*%
%ADD16R,0.069972X0.070000*%
%ADD17R,0.070000X0.070000*%
%ADD18R,0.080000X0.080000*%
%ADD19R,0.075000X0.075000*%
%ADD20C,0.024000*%
%LNCOPPER1*%
G90*
G70*
G54D10*
X253Y531D03*
X453Y531D03*
X1353Y231D03*
X1353Y631D03*
X1353Y231D03*
X1353Y631D03*
X1253Y1831D03*
X1253Y2231D03*
X1253Y1831D03*
X1253Y2231D03*
X3053Y1631D03*
X2653Y1631D03*
X3053Y1631D03*
X2653Y1631D03*
G54D11*
X3054Y1531D03*
X3153Y1531D03*
X3054Y1531D03*
X3153Y1531D03*
X1253Y2432D03*
X1253Y2531D03*
X1253Y2432D03*
X1253Y2531D03*
X1953Y332D03*
X1953Y431D03*
X1953Y332D03*
X1953Y431D03*
X3054Y1331D03*
X3153Y1331D03*
X3054Y1331D03*
X3153Y1331D03*
G54D10*
X2653Y1031D03*
X2653Y1431D03*
X2653Y1031D03*
X2653Y1431D03*
G54D11*
X1953Y132D03*
X1953Y231D03*
X1953Y132D03*
X1953Y231D03*
G54D10*
X1253Y131D03*
X1253Y531D03*
X1253Y131D03*
X1253Y531D03*
G54D11*
X1053Y2432D03*
X1053Y2531D03*
X1053Y2432D03*
X1053Y2531D03*
G54D10*
X1153Y1731D03*
X1153Y2131D03*
X1153Y1731D03*
X1153Y2131D03*
G54D12*
X1053Y731D03*
X1053Y831D03*
X1053Y931D03*
X1053Y1031D03*
X1053Y1131D03*
X1053Y1231D03*
X1053Y1331D03*
X1053Y1431D03*
X1053Y1531D03*
X1053Y1631D03*
X1053Y1731D03*
X1053Y1831D03*
X1053Y1931D03*
X1053Y2031D03*
X1053Y2131D03*
X453Y731D03*
X453Y831D03*
X453Y931D03*
X453Y1031D03*
X453Y1131D03*
X453Y1231D03*
X453Y1331D03*
X453Y1431D03*
X453Y1531D03*
X453Y1631D03*
X453Y1731D03*
X453Y1831D03*
X453Y1931D03*
X453Y2031D03*
X453Y2131D03*
X1453Y2431D03*
X1953Y2431D03*
X1453Y2331D03*
X1953Y2331D03*
X1453Y2231D03*
X1953Y2231D03*
X1453Y2131D03*
X1953Y2131D03*
X1453Y2031D03*
X1953Y2031D03*
X1453Y1931D03*
X1953Y1931D03*
X1453Y1831D03*
X1953Y1831D03*
X1453Y1731D03*
X1953Y1731D03*
X1453Y1231D03*
X1953Y1231D03*
X1453Y1131D03*
X1953Y1131D03*
X1453Y1031D03*
X1953Y1031D03*
X1453Y931D03*
X1953Y931D03*
X1453Y831D03*
X1953Y831D03*
X1453Y731D03*
X1953Y731D03*
X1453Y631D03*
X1953Y631D03*
X1453Y531D03*
X1953Y531D03*
X2753Y2430D03*
X3253Y2430D03*
X2753Y2330D03*
X3253Y2330D03*
X2753Y2230D03*
X3253Y2230D03*
X2753Y2130D03*
X3253Y2130D03*
X2753Y2030D03*
X3253Y2030D03*
X2753Y1930D03*
X3253Y1930D03*
X2753Y1830D03*
X3253Y1830D03*
X2753Y1730D03*
X3253Y1730D03*
G54D13*
X153Y2331D03*
X153Y2231D03*
G54D10*
X2153Y1331D03*
X2153Y1731D03*
G54D13*
X2353Y2331D03*
X2353Y2193D03*
X2353Y2031D03*
X2353Y1893D03*
X3653Y2231D03*
X3653Y2093D03*
X3653Y1931D03*
X3653Y1793D03*
G54D10*
X3453Y2331D03*
X3453Y2431D03*
X2153Y1131D03*
X2153Y1231D03*
X2153Y2331D03*
X2153Y2431D03*
G54D13*
X2353Y931D03*
X2353Y793D03*
X2353Y631D03*
X2353Y493D03*
G54D10*
X1753Y631D03*
X1753Y331D03*
X1753Y1231D03*
X1753Y931D03*
G54D13*
X153Y1631D03*
X153Y1493D03*
X153Y1331D03*
X153Y1193D03*
G54D14*
X3653Y231D03*
X3653Y2531D03*
X253Y2531D03*
X253Y231D03*
G54D10*
X753Y2631D03*
X753Y2431D03*
G54D15*
X3054Y1531D03*
X3054Y1531D03*
X1253Y2432D03*
X1253Y2432D03*
X1953Y332D03*
X1953Y332D03*
X3054Y1331D03*
X3054Y1331D03*
X1953Y132D03*
X1953Y132D03*
X1053Y2432D03*
X1053Y2432D03*
G54D16*
X1053Y731D03*
G54D17*
X1953Y1731D03*
X1953Y2331D03*
X1953Y531D03*
X1953Y1131D03*
X3253Y1730D03*
X3253Y2330D03*
G54D18*
X153Y2331D03*
X2353Y2331D03*
X2353Y2031D03*
X3653Y2231D03*
X3653Y1931D03*
G54D19*
X3453Y2331D03*
X2153Y1131D03*
X2153Y2331D03*
G54D18*
X2353Y931D03*
X2353Y631D03*
X153Y1631D03*
X153Y1331D03*
G54D20*
X1453Y805D02*
X1453Y757D01*
D02*
X1453Y2005D02*
X1453Y1957D01*
D02*
X2753Y2004D02*
X2753Y1956D01*
G04 End of Copper1*
M02*