G04 MADE WITH FRITZING*
G04 WWW.FRITZING.ORG*
G04 DOUBLE SIDED*
G04 HOLES PLATED*
G04 CONTOUR ON CENTER OF CONTOUR VECTOR*
%ASAXBY*%
%FSLAX23Y23*%
%MOIN*%
%OFA0B0*%
%SFA1.0B1.0*%
%ADD10C,0.244094*%
%ADD11C,0.075000*%
%ADD12C,0.062992*%
%ADD13C,0.070000*%
%ADD14C,0.080000*%
%ADD15C,0.078000*%
%ADD16R,0.062992X0.062992*%
%ADD17R,0.069972X0.070000*%
%ADD18R,0.070000X0.070000*%
%ADD19R,0.080000X0.080000*%
%ADD20R,0.075000X0.075000*%
%ADD21C,0.024000*%
%LNCOPPER1*%
G90*
G70*
G54D10*
X332Y269D03*
X332Y2569D03*
X3732Y2569D03*
X3732Y269D03*
G54D11*
X832Y2669D03*
X832Y2469D03*
X332Y569D03*
X532Y569D03*
X1432Y269D03*
X1432Y669D03*
X1432Y269D03*
X1432Y669D03*
X1332Y1869D03*
X1332Y2269D03*
X1332Y1869D03*
X1332Y2269D03*
X3132Y1669D03*
X2732Y1669D03*
X3132Y1669D03*
X2732Y1669D03*
G54D12*
X3134Y1569D03*
X3232Y1569D03*
X3134Y1569D03*
X3232Y1569D03*
X1332Y2471D03*
X1332Y2569D03*
X1332Y2471D03*
X1332Y2569D03*
X2032Y371D03*
X2032Y469D03*
X2032Y371D03*
X2032Y469D03*
X3134Y1369D03*
X3232Y1369D03*
X3134Y1369D03*
X3232Y1369D03*
G54D11*
X2732Y1069D03*
X2732Y1469D03*
X2732Y1069D03*
X2732Y1469D03*
G54D12*
X2032Y171D03*
X2032Y269D03*
X2032Y171D03*
X2032Y269D03*
G54D11*
X1332Y169D03*
X1332Y569D03*
X1332Y169D03*
X1332Y569D03*
G54D12*
X1132Y2471D03*
X1132Y2569D03*
X1132Y2471D03*
X1132Y2569D03*
G54D11*
X1232Y1769D03*
X1232Y2169D03*
X1232Y1769D03*
X1232Y2169D03*
G54D13*
X1132Y769D03*
X1132Y869D03*
X1132Y969D03*
X1132Y1069D03*
X1132Y1169D03*
X1132Y1269D03*
X1132Y1369D03*
X1132Y1469D03*
X1132Y1569D03*
X1132Y1669D03*
X1132Y1769D03*
X1132Y1869D03*
X1132Y1969D03*
X1132Y2069D03*
X1132Y2169D03*
X532Y769D03*
X532Y869D03*
X532Y969D03*
X532Y1069D03*
X532Y1169D03*
X532Y1269D03*
X532Y1369D03*
X532Y1469D03*
X532Y1569D03*
X532Y1669D03*
X532Y1769D03*
X532Y1869D03*
X532Y1969D03*
X532Y2069D03*
X532Y2169D03*
X1532Y2469D03*
X2032Y2469D03*
X1532Y2369D03*
X2032Y2369D03*
X1532Y2269D03*
X2032Y2269D03*
X1532Y2169D03*
X2032Y2169D03*
X1532Y2069D03*
X2032Y2069D03*
X1532Y1969D03*
X2032Y1969D03*
X1532Y1869D03*
X2032Y1869D03*
X1532Y1769D03*
X2032Y1769D03*
X1532Y1269D03*
X2032Y1269D03*
X1532Y1169D03*
X2032Y1169D03*
X1532Y1069D03*
X2032Y1069D03*
X1532Y969D03*
X2032Y969D03*
X1532Y869D03*
X2032Y869D03*
X1532Y769D03*
X2032Y769D03*
X1532Y669D03*
X2032Y669D03*
X1532Y569D03*
X2032Y569D03*
X2833Y2469D03*
X3333Y2469D03*
X2833Y2369D03*
X3333Y2369D03*
X2833Y2269D03*
X3333Y2269D03*
X2833Y2169D03*
X3333Y2169D03*
X2833Y2069D03*
X3333Y2069D03*
X2833Y1969D03*
X3333Y1969D03*
X2833Y1869D03*
X3333Y1869D03*
X2833Y1769D03*
X3333Y1769D03*
G54D14*
X232Y2369D03*
X232Y2269D03*
G54D11*
X2232Y1369D03*
X2232Y1769D03*
G54D14*
X2432Y2369D03*
X2432Y2232D03*
X2432Y2069D03*
X2432Y1932D03*
X3732Y2269D03*
X3732Y2132D03*
X3732Y1969D03*
X3732Y1832D03*
G54D11*
X3532Y2369D03*
X3532Y2469D03*
X2232Y1169D03*
X2232Y1269D03*
X2232Y2369D03*
X2232Y2469D03*
G54D14*
X2432Y969D03*
X2432Y832D03*
X2432Y669D03*
X2432Y532D03*
G54D11*
X1832Y669D03*
X1832Y369D03*
X1832Y1269D03*
X1832Y969D03*
G54D14*
X232Y1669D03*
X232Y1532D03*
X232Y1369D03*
X232Y1232D03*
G54D15*
X332Y2069D03*
X332Y1969D03*
X332Y1869D03*
G54D16*
X3134Y1569D03*
X3134Y1569D03*
X1332Y2471D03*
X1332Y2471D03*
X2032Y371D03*
X2032Y371D03*
X3134Y1369D03*
X3134Y1369D03*
X2032Y171D03*
X2032Y171D03*
X1132Y2471D03*
X1132Y2471D03*
G54D17*
X1132Y769D03*
G54D18*
X2032Y1769D03*
X2032Y2369D03*
X2032Y569D03*
X2032Y1169D03*
X3333Y1769D03*
X3333Y2369D03*
G54D19*
X232Y2369D03*
X2432Y2369D03*
X2432Y2069D03*
X3732Y2269D03*
X3732Y1969D03*
G54D20*
X3532Y2369D03*
X2232Y1169D03*
X2232Y2369D03*
G54D19*
X2432Y969D03*
X2432Y669D03*
X232Y1669D03*
X232Y1369D03*
G54D21*
X1532Y843D02*
X1532Y795D01*
D02*
X1532Y2043D02*
X1532Y1995D01*
D02*
X2833Y2042D02*
X2833Y1995D01*
G04 End of Copper1*
M02*