; NON-PLATED HOLES START AT T1
; THROUGH (PLATED) HOLES START AT T100
M48
INCH
T1C0.021862
T100C0.040000
T101C0.035000
T102C0.165354
T103C0.030000
T104C0.036000
T105C0.031497
T106C0.038000
%
T1
X029452Y003385
T100
X024322Y023693
X002322Y015315
X024322Y008315
X024322Y022315
X002322Y022693
X037322Y022693
X024322Y019315
X002322Y013693
X024322Y006693
X037322Y019693
X002322Y023693
X024322Y020693
X037322Y021315
X002322Y012315
X024322Y005315
X037322Y018315
X002322Y016693
X024322Y009693
T101
X022322Y012693
X022322Y017693
X008322Y024693
X012322Y021693
X013322Y005693
X013322Y018693
X022322Y023693
X027322Y010693
X018322Y003693
X022322Y013693
X013322Y022693
X013322Y001693
X035322Y023693
X022322Y011693
X018322Y006693
X022322Y024693
X014322Y006693
X027322Y016693
X018322Y012693
X012322Y017693
X018322Y009693
X031322Y016693
X003322Y005693
X027322Y014693
X008322Y026693
X035322Y024693
X014322Y002693
X005322Y005693
T102
X037322Y025693
X003322Y025693
X037322Y002693
X003322Y002693
T103
X020322Y012693
X028325Y020685
X033325Y022685
X020322Y017693
X015322Y007693
X020322Y009693
X028325Y017685
X033325Y019685
X015322Y021693
X020322Y010693
X020322Y023693
X033325Y020685
X028325Y023685
X015322Y005693
X015322Y018693
X020322Y007693
X033325Y017685
X020322Y021693
X015322Y011693
X015322Y024693
X028325Y021685
X033325Y023685
X020322Y005693
X020322Y018693
X015322Y008693
X028325Y018685
X015322Y022693
X020322Y011693
X020322Y024693
X033325Y021685
X028325Y024685
X015322Y006693
X015322Y019693
X020322Y008693
X033325Y018685
X015322Y020693
X020322Y022693
X015322Y012693
X028325Y022685
X015322Y017693
X033325Y024685
X020322Y006693
X020322Y019693
X015322Y009693
X028325Y019685
X020322Y020693
X015322Y010693
X015322Y023693
T104
X005322Y007693
X011322Y015693
X005322Y011693
X011322Y008693
X011322Y012693
X005322Y019693
X005322Y016693
X005322Y009693
X005322Y020693
X011322Y017693
X005322Y013693
X011322Y021693
X011322Y014693
X005322Y010693
X011322Y007693
X011322Y011693
X005322Y018693
X011322Y019693
X005322Y015693
X005322Y008693
X011322Y016693
X005322Y012693
X011322Y009693
X011322Y020693
X011322Y013693
X011322Y010693
X005322Y017693
X005322Y021693
X011322Y018693
X005322Y014693
T105
X020322Y002693
X031337Y015693
X020322Y004693
X013322Y025693
X011322Y024708
X020322Y001708
X032322Y013693
X031337Y013693
X020322Y003708
X011322Y025693
X013322Y024708
X032322Y015693
T106
X003322Y019693
X003322Y020693
X003322Y018693
T00
M30
