; NON-PLATED HOLES START AT T1
; THROUGH (PLATED) HOLES START AT T100
M48
INCH
T100C0.035000
T101C0.196850
T102C0.038000
T103C0.040000
%
T100
X024874Y013307
X020874Y013307
X006874Y020307
X002874Y020307
X029874Y021307
X006874Y012307
X002874Y012307
X029874Y013307
X027874Y018307
X006874Y010307
X002874Y010307
X029874Y011307
X033874Y021307
X025874Y016307
X023874Y016307
X027874Y016307
X029874Y016307
X022874Y023457
X025874Y008307
X027874Y008307
X019874Y025307
X028874Y014307
X024874Y014307
X020874Y014307
X029874Y014307
X006874Y018307
X002874Y018307
X029874Y019307
X026874Y012307
X024874Y012307
X020874Y012307
X029874Y020307
X025874Y012307
X029874Y012307
X006874Y016307
X002874Y016307
X027874Y017307
X022874Y024457
X019874Y021307
X006874Y008307
X002874Y008307
X027874Y009307
X033874Y019307
X027874Y010307
X024874Y015307
X020874Y015307
X033874Y020307
X006874Y014307
X002874Y014307
X029874Y015307
X022874Y022457
T101
X002874Y002307
X036874Y002307
X002874Y025307
X036874Y025307
T102
X008874Y019307
X013874Y024307
X009874Y019307
X008874Y017307
X013874Y022307
X008874Y009307
X009874Y017307
X009874Y009307
X036874Y021307
X034874Y021307
X037874Y021307
X035874Y021307
X008874Y015307
X036874Y018307
X034874Y018307
X009874Y015307
X037874Y018307
X035874Y018307
X008874Y021307
X008874Y013307
X009874Y021307
X009874Y013307
X013874Y023307
X008874Y011307
X009874Y011307
X013874Y021307
X036874Y019307
X034874Y019307
X014874Y005307
X016874Y005307
X018874Y005307
X037874Y019307
X035874Y019307
X036874Y020307
X034874Y020307
X015874Y005307
X017874Y005307
X037874Y020307
X035874Y020307
T103
X019374Y009307
X013374Y009307
X012874Y003307
X019374Y010307
X013374Y010307
X019374Y015307
X013374Y015307
X026874Y024307
X019374Y013307
X013374Y013307
X012874Y004685
X019374Y018307
X013374Y018307
X019374Y011307
X013374Y011307
X019374Y016307
X013374Y016307
X014524Y011757
X019374Y008307
X013374Y008307
X018874Y007307
X016874Y007307
X014874Y007307
X019374Y014307
X013374Y014307
X017874Y007307
X015874Y007307
X013874Y007307
X019374Y019307
X013374Y019307
X019374Y012307
X013374Y012307
X026874Y022929
X019374Y017307
X013374Y017307
X014524Y012757
T00
M30
