G04 MADE WITH FRITZING*
G04 WWW.FRITZING.ORG*
G04 DOUBLE SIDED*
G04 HOLES PLATED*
G04 CONTOUR ON CENTER OF CONTOUR VECTOR*
%ASAXBY*%
%FSLAX23Y23*%
%MOIN*%
%OFA0B0*%
%SFA1.0B1.0*%
%ADD10C,0.074000*%
%ADD11C,0.075000*%
%ADD12C,0.078000*%
%ADD13C,0.080000*%
%ADD14C,0.275590*%
%ADD15R,0.080000X0.080000*%
%ADD16C,0.024000*%
%LNCOPPER0*%
G90*
G70*
G54D10*
X1387Y731D03*
X1487Y731D03*
X1587Y731D03*
X1687Y731D03*
X1787Y731D03*
X1887Y731D03*
X1337Y831D03*
X1337Y931D03*
X1337Y1031D03*
X1337Y1131D03*
X1337Y1231D03*
X1452Y1176D03*
X1452Y1276D03*
X1337Y1331D03*
X1337Y1431D03*
X1337Y1531D03*
X1337Y1631D03*
X1337Y1731D03*
X1337Y1831D03*
X1337Y1931D03*
X1937Y1931D03*
X1937Y1831D03*
X1937Y1731D03*
X1937Y1631D03*
X1937Y1531D03*
X1937Y1431D03*
X1937Y1331D03*
X1937Y1231D03*
X1937Y1131D03*
X1937Y1031D03*
X1937Y931D03*
X1937Y831D03*
G54D11*
X2787Y1631D03*
X2787Y1731D03*
X2787Y1831D03*
X2987Y1431D03*
X2987Y1531D03*
X2987Y1631D03*
X2987Y1131D03*
X2987Y1231D03*
X2987Y1331D03*
X2787Y831D03*
X2787Y931D03*
X2787Y1031D03*
X2087Y1231D03*
X2487Y1231D03*
X2087Y1431D03*
X2487Y1431D03*
X2087Y1331D03*
X2487Y1331D03*
G54D12*
X3787Y2131D03*
X3787Y2031D03*
X3787Y1931D03*
X3787Y1831D03*
X3687Y2131D03*
X3687Y2031D03*
X3687Y1931D03*
X3687Y1831D03*
X3587Y2131D03*
X3587Y2031D03*
X3587Y1931D03*
X3587Y1831D03*
X3487Y2131D03*
X3487Y2031D03*
X3487Y1931D03*
X3487Y1831D03*
G54D11*
X2087Y1531D03*
X2487Y1531D03*
X2587Y1231D03*
X2587Y831D03*
X2887Y1431D03*
X2687Y1231D03*
X2387Y1631D03*
X2587Y1631D03*
X2287Y2246D03*
X2287Y2346D03*
X2287Y2446D03*
X2987Y1931D03*
X3387Y1931D03*
X2987Y2031D03*
X3387Y2031D03*
X2987Y2131D03*
X3387Y2131D03*
X1987Y2531D03*
X1987Y2131D03*
G54D13*
X2687Y2431D03*
X2687Y2293D03*
X2687Y2431D03*
X2687Y2293D03*
G54D12*
X1387Y2431D03*
X1387Y2331D03*
X1387Y2231D03*
X1387Y2131D03*
G54D13*
X1287Y331D03*
X1287Y469D03*
X1287Y331D03*
X1287Y469D03*
G54D12*
X1887Y531D03*
X1787Y531D03*
X1687Y531D03*
X1587Y531D03*
X1487Y531D03*
X1887Y531D03*
X1787Y531D03*
X1687Y531D03*
X1587Y531D03*
X1487Y531D03*
G54D11*
X287Y1631D03*
X687Y1631D03*
X287Y1431D03*
X687Y1431D03*
X287Y1231D03*
X687Y1231D03*
X287Y1031D03*
X687Y1031D03*
X287Y831D03*
X687Y831D03*
G54D12*
X987Y1131D03*
X887Y1131D03*
X987Y1131D03*
X887Y1131D03*
X987Y1331D03*
X887Y1331D03*
X987Y1331D03*
X887Y1331D03*
X987Y931D03*
X887Y931D03*
X987Y931D03*
X887Y931D03*
X987Y1531D03*
X887Y1531D03*
X987Y1531D03*
X887Y1531D03*
X987Y1731D03*
X887Y1731D03*
X987Y1731D03*
X887Y1731D03*
X987Y2131D03*
X887Y2131D03*
X987Y2131D03*
X887Y2131D03*
X987Y1931D03*
X887Y1931D03*
X987Y1931D03*
X887Y1931D03*
G54D11*
X287Y1831D03*
X687Y1831D03*
X287Y2031D03*
X687Y2031D03*
G54D14*
X287Y231D03*
X287Y2531D03*
X3687Y2531D03*
X3687Y231D03*
G54D15*
X2687Y2431D03*
X2687Y2431D03*
X1287Y331D03*
X1287Y331D03*
G54D16*
X2059Y1531D02*
X1969Y1531D01*
D02*
X2059Y1431D02*
X1969Y1431D01*
D02*
X2059Y1331D02*
X1969Y1331D01*
D02*
X2059Y1231D02*
X1969Y1231D01*
D02*
X3557Y1931D02*
X3518Y1931D01*
D02*
X3657Y1931D02*
X3618Y1931D01*
D02*
X3557Y2031D02*
X3518Y2031D01*
D02*
X3657Y2031D02*
X3618Y2031D01*
D02*
X3787Y2131D02*
X3518Y2131D01*
D02*
X3718Y2131D02*
X3787Y2131D01*
D02*
X2488Y931D02*
X2487Y1202D01*
D02*
X2759Y931D02*
X2488Y931D01*
D02*
X2688Y1330D02*
X2516Y1331D01*
D02*
X2887Y1231D02*
X2688Y1330D01*
D02*
X2959Y1231D02*
X2887Y1231D01*
D02*
X2887Y1530D02*
X2688Y1430D01*
D02*
X2688Y1430D02*
X2516Y1431D01*
D02*
X2959Y1531D02*
X2887Y1530D01*
D02*
X2488Y1730D02*
X2488Y1559D01*
D02*
X2759Y1731D02*
X2488Y1730D01*
D02*
X2616Y831D02*
X2759Y831D01*
D02*
X2688Y1231D02*
X2887Y1131D01*
D02*
X2887Y1131D02*
X2959Y1131D01*
D02*
X2616Y1231D02*
X2688Y1231D01*
D02*
X3757Y1931D02*
X3718Y1931D01*
D02*
X3757Y2031D02*
X3718Y2031D01*
D02*
X3757Y2131D02*
X3718Y2131D01*
D02*
X3487Y1731D02*
X2887Y1730D01*
D02*
X2887Y1730D02*
X2887Y1832D01*
D02*
X2887Y1832D02*
X2816Y1831D01*
D02*
X3487Y1801D02*
X3487Y1731D01*
D02*
X3587Y1631D02*
X3016Y1631D01*
D02*
X3587Y1801D02*
X3587Y1631D01*
D02*
X2959Y1431D02*
X2916Y1431D01*
D02*
X3087Y1330D02*
X3016Y1331D01*
D02*
X3087Y1530D02*
X3087Y1330D01*
D02*
X3687Y1531D02*
X3087Y1530D01*
D02*
X3687Y1801D02*
X3687Y1531D01*
D02*
X3787Y1431D02*
X3187Y1430D01*
D02*
X3187Y1031D02*
X2816Y1031D01*
D02*
X3187Y1430D02*
X3187Y1031D01*
D02*
X3787Y1801D02*
X3787Y1431D01*
D02*
X2759Y1631D02*
X2616Y1631D01*
D02*
X2388Y831D02*
X2387Y1602D01*
D02*
X2559Y831D02*
X2388Y831D01*
D02*
X2388Y1131D02*
X1969Y1131D01*
D02*
X2388Y831D02*
X2388Y1131D01*
D02*
X2559Y831D02*
X2388Y831D01*
D02*
X3457Y1931D02*
X3416Y1931D01*
D02*
X3457Y2031D02*
X3416Y2031D01*
D02*
X3457Y2131D02*
X3416Y2131D01*
D02*
X2287Y1631D02*
X2287Y1931D01*
D02*
X2287Y1931D02*
X2959Y1931D01*
D02*
X1969Y1631D02*
X2287Y1631D01*
D02*
X2187Y1731D02*
X2187Y2031D01*
D02*
X2187Y2031D02*
X2959Y2031D01*
D02*
X1969Y1731D02*
X2187Y1731D01*
D02*
X2087Y1831D02*
X2087Y2131D01*
D02*
X2087Y2131D02*
X2959Y2131D01*
D02*
X1969Y1831D02*
X2087Y1831D01*
D02*
X1987Y2102D02*
X1987Y1931D01*
D02*
X1987Y1931D02*
X1969Y1931D01*
D02*
X2187Y2331D02*
X2187Y2531D01*
D02*
X2187Y2531D02*
X2016Y2531D01*
D02*
X2259Y2331D02*
X2187Y2331D01*
D02*
X1787Y1131D02*
X1787Y2231D01*
D02*
X1787Y2231D02*
X2259Y2231D01*
D02*
X1906Y1131D02*
X1787Y1131D01*
D02*
X2590Y2331D02*
X2487Y2331D01*
D02*
X2387Y2431D02*
X2316Y2431D01*
D02*
X2487Y2331D02*
X2387Y2431D01*
D02*
X2658Y2304D02*
X2590Y2331D01*
D02*
X1487Y1331D02*
X1469Y1302D01*
D02*
X1487Y2031D02*
X1487Y1331D01*
D02*
X1409Y2109D02*
X1487Y2031D01*
D02*
X1487Y2231D02*
X1587Y2131D01*
D02*
X1587Y1231D02*
X1481Y1187D01*
D02*
X1418Y2231D02*
X1487Y2231D01*
D02*
X1587Y2131D02*
X1587Y1231D01*
D02*
X1687Y2231D02*
X1687Y762D01*
D02*
X1587Y2331D02*
X1687Y2231D01*
D02*
X1418Y2331D02*
X1587Y2331D01*
D02*
X1687Y2431D02*
X1787Y2331D01*
D02*
X1787Y2331D02*
X1787Y2231D01*
D02*
X1787Y2231D02*
X2259Y2231D01*
D02*
X1418Y2431D02*
X1687Y2431D01*
D02*
X2187Y831D02*
X2187Y331D01*
D02*
X2187Y331D02*
X1187Y331D01*
D02*
X1187Y331D02*
X1256Y331D01*
D02*
X2387Y831D02*
X2187Y831D01*
D02*
X2559Y831D02*
X2387Y831D01*
D02*
X1487Y561D02*
X1487Y700D01*
D02*
X1587Y561D02*
X1587Y700D01*
D02*
X1687Y561D02*
X1687Y700D01*
D02*
X1787Y561D02*
X1787Y700D01*
D02*
X2087Y531D02*
X2087Y1031D01*
D02*
X1918Y531D02*
X2087Y531D01*
D02*
X2087Y1031D02*
X1969Y1031D01*
D02*
X1287Y431D02*
X1287Y437D01*
D02*
X1287Y731D02*
X1287Y431D01*
D02*
X1323Y803D02*
X1287Y731D01*
D02*
X3557Y2131D02*
X3518Y2131D01*
D02*
X287Y1459D02*
X287Y1602D01*
D02*
X287Y1259D02*
X287Y1402D01*
D02*
X287Y1059D02*
X287Y1202D01*
D02*
X287Y859D02*
X287Y1002D01*
D02*
X390Y2229D02*
X387Y731D01*
D02*
X1390Y2629D02*
X1190Y2429D01*
D02*
X1287Y731D02*
X1323Y803D01*
D02*
X590Y2429D02*
X390Y2229D01*
D02*
X387Y731D02*
X1287Y731D01*
D02*
X2590Y2429D02*
X2387Y2631D01*
D02*
X2656Y2430D02*
X2590Y2429D01*
D02*
X1190Y2429D02*
X590Y2429D01*
D02*
X2387Y2631D02*
X1390Y2629D01*
D02*
X287Y1802D02*
X287Y1659D01*
D02*
X287Y2002D02*
X287Y1859D01*
D02*
X1187Y2031D02*
X716Y2031D01*
D02*
X1312Y1948D02*
X1187Y2031D01*
D02*
X1087Y2131D02*
X1018Y2131D01*
D02*
X1312Y1948D02*
X1187Y2031D01*
D02*
X1187Y2031D02*
X1087Y2131D01*
D02*
X1306Y1831D02*
X716Y1831D01*
D02*
X1306Y1831D02*
X987Y1831D01*
D02*
X987Y1831D02*
X987Y1901D01*
D02*
X1306Y1731D02*
X1018Y1731D01*
D02*
X887Y1631D02*
X716Y1631D01*
D02*
X966Y1709D02*
X887Y1631D01*
D02*
X887Y1431D02*
X716Y1431D01*
D02*
X966Y1509D02*
X887Y1431D01*
D02*
X966Y1309D02*
X887Y1231D01*
D02*
X887Y1231D02*
X716Y1231D01*
D02*
X1306Y1531D02*
X1018Y1531D01*
D02*
X1087Y1431D02*
X1009Y1352D01*
D02*
X1306Y1431D02*
X1087Y1431D01*
D02*
X1187Y1331D02*
X1009Y1152D01*
D02*
X1306Y1331D02*
X1187Y1331D01*
D02*
X966Y1109D02*
X887Y1031D01*
D02*
X887Y1031D02*
X716Y1031D01*
D02*
X1306Y1231D02*
X1287Y1231D01*
D02*
X1287Y1231D02*
X1009Y952D01*
D02*
X887Y831D02*
X716Y831D01*
D02*
X966Y909D02*
X887Y831D01*
D02*
X487Y1131D02*
X487Y931D01*
D02*
X487Y931D02*
X857Y931D01*
D02*
X857Y1131D02*
X487Y1131D01*
D02*
X487Y1331D02*
X487Y1131D01*
D02*
X857Y1331D02*
X487Y1331D01*
D02*
X487Y1131D02*
X857Y1131D01*
D02*
X487Y1531D02*
X857Y1531D01*
D02*
X857Y1331D02*
X487Y1331D01*
D02*
X487Y1331D02*
X487Y1531D01*
D02*
X487Y1731D02*
X487Y1531D01*
D02*
X487Y1531D02*
X857Y1531D01*
D02*
X857Y1731D02*
X487Y1731D01*
D02*
X487Y1931D02*
X487Y1731D01*
D02*
X857Y1931D02*
X487Y1931D01*
D02*
X487Y1731D02*
X857Y1731D01*
D02*
X487Y2131D02*
X487Y1931D01*
D02*
X487Y1931D02*
X857Y1931D01*
D02*
X857Y2131D02*
X487Y2131D01*
D02*
X687Y2331D02*
X487Y2131D01*
D02*
X487Y2131D02*
X857Y2131D01*
D02*
X1357Y2331D02*
X687Y2331D01*
D02*
X1187Y331D02*
X1256Y331D01*
D02*
X1187Y631D02*
X1187Y331D01*
D02*
X287Y802D02*
X287Y631D01*
D02*
X287Y631D02*
X1187Y631D01*
G36*
X2845Y707D02*
X2845Y699D01*
X2841Y699D01*
X2841Y695D01*
X2832Y695D01*
X2832Y699D01*
X2836Y699D01*
X2836Y703D01*
X2841Y703D01*
X2841Y707D01*
X2845Y707D01*
G37*
D02*
G36*
X2808Y707D02*
X2808Y703D01*
X2804Y703D01*
X2804Y707D01*
X2808Y707D01*
G37*
D02*
G36*
X2796Y707D02*
X2796Y703D01*
X2784Y703D01*
X2784Y699D01*
X2780Y699D01*
X2780Y703D01*
X2784Y703D01*
X2784Y707D01*
X2796Y707D01*
G37*
D02*
G36*
X2812Y703D02*
X2812Y699D01*
X2792Y699D01*
X2792Y703D01*
X2812Y703D01*
G37*
D02*
G36*
X2812Y703D02*
X2812Y699D01*
X2792Y699D01*
X2792Y703D01*
X2812Y703D01*
G37*
D02*
G36*
X2828Y699D02*
X2828Y695D01*
X2824Y695D01*
X2824Y699D01*
X2828Y699D01*
G37*
D02*
G36*
X2816Y699D02*
X2816Y695D01*
X2808Y695D01*
X2808Y699D01*
X2816Y699D01*
G37*
D02*
G36*
X2800Y699D02*
X2800Y695D01*
X2776Y695D01*
X2776Y699D01*
X2800Y699D01*
G37*
D02*
G36*
X2800Y699D02*
X2800Y695D01*
X2776Y695D01*
X2776Y699D01*
X2800Y699D01*
G37*
D02*
G36*
X2836Y695D02*
X2836Y691D01*
X2816Y691D01*
X2816Y695D01*
X2836Y695D01*
G37*
D02*
G36*
X2836Y695D02*
X2836Y691D01*
X2816Y691D01*
X2816Y695D01*
X2836Y695D01*
G37*
D02*
G36*
X2808Y695D02*
X2808Y691D01*
X2796Y691D01*
X2796Y695D01*
X2808Y695D01*
G37*
D02*
G36*
X2788Y695D02*
X2788Y691D01*
X2784Y691D01*
X2784Y695D01*
X2788Y695D01*
G37*
D02*
G36*
X2780Y695D02*
X2780Y691D01*
X2772Y691D01*
X2772Y695D01*
X2780Y695D01*
G37*
D02*
G36*
X2841Y691D02*
X2841Y687D01*
X2832Y687D01*
X2832Y691D01*
X2841Y691D01*
G37*
D02*
G36*
X2828Y691D02*
X2828Y687D01*
X2824Y687D01*
X2824Y691D01*
X2828Y691D01*
G37*
D02*
G36*
X2820Y691D02*
X2820Y687D01*
X2804Y687D01*
X2804Y691D01*
X2820Y691D01*
G37*
D02*
G36*
X2820Y691D02*
X2820Y687D01*
X2804Y687D01*
X2804Y691D01*
X2820Y691D01*
G37*
D02*
G36*
X2841Y687D02*
X2841Y683D01*
X2836Y683D01*
X2836Y679D01*
X2832Y679D01*
X2832Y683D01*
X2828Y683D01*
X2828Y687D01*
X2841Y687D01*
G37*
D02*
G36*
X2824Y687D02*
X2824Y683D01*
X2812Y683D01*
X2812Y687D01*
X2824Y687D01*
G37*
D02*
G36*
X2836Y707D02*
X2836Y703D01*
X2832Y703D01*
X2832Y707D01*
X2836Y707D01*
G37*
D02*
G36*
X2828Y707D02*
X2828Y703D01*
X2824Y703D01*
X2824Y707D01*
X2828Y707D01*
G37*
D02*
G36*
X2820Y707D02*
X2820Y703D01*
X2824Y703D01*
X2824Y699D01*
X2816Y699D01*
X2816Y703D01*
X2812Y703D01*
X2812Y707D01*
X2820Y707D01*
G37*
D02*
G36*
X2780Y707D02*
X2780Y703D01*
X2768Y703D01*
X2768Y707D01*
X2780Y707D01*
G37*
D02*
G36*
X2763Y707D02*
X2763Y703D01*
X2747Y703D01*
X2747Y707D01*
X2763Y707D01*
G37*
D02*
G36*
X2772Y703D02*
X2772Y699D01*
X2755Y699D01*
X2755Y703D01*
X2772Y703D01*
G37*
D02*
G36*
X2772Y703D02*
X2772Y699D01*
X2755Y699D01*
X2755Y703D01*
X2772Y703D01*
G37*
D02*
G36*
X2772Y699D02*
X2772Y695D01*
X2763Y695D01*
X2763Y699D01*
X2772Y699D01*
G37*
D02*
G36*
X2759Y699D02*
X2759Y695D01*
X2755Y695D01*
X2755Y699D01*
X2759Y699D01*
G37*
D02*
G36*
X2763Y695D02*
X2763Y691D01*
X2755Y691D01*
X2755Y695D01*
X2763Y695D01*
G37*
D02*
G36*
X2735Y707D02*
X2735Y703D01*
X2731Y703D01*
X2731Y707D01*
X2735Y707D01*
G37*
D02*
G36*
X2723Y707D02*
X2723Y703D01*
X2731Y703D01*
X2731Y695D01*
X2727Y695D01*
X2727Y699D01*
X2719Y699D01*
X2719Y703D01*
X2703Y703D01*
X2703Y707D01*
X2723Y707D01*
G37*
D02*
G36*
X2699Y707D02*
X2699Y703D01*
X2694Y703D01*
X2694Y707D01*
X2699Y707D01*
G37*
D02*
G36*
X2690Y707D02*
X2690Y703D01*
X2686Y703D01*
X2686Y707D01*
X2690Y707D01*
G37*
D02*
G36*
X2678Y707D02*
X2678Y703D01*
X2670Y703D01*
X2670Y707D01*
X2678Y707D01*
G37*
D02*
G36*
X2666Y707D02*
X2666Y703D01*
X2658Y703D01*
X2658Y707D01*
X2666Y707D01*
G37*
D02*
G36*
X2646Y707D02*
X2646Y703D01*
X2638Y703D01*
X2638Y707D01*
X2646Y707D01*
G37*
D02*
G36*
X2634Y707D02*
X2634Y703D01*
X2630Y703D01*
X2630Y707D01*
X2634Y707D01*
G37*
D02*
G36*
X2642Y703D02*
X2642Y699D01*
X2626Y699D01*
X2626Y703D01*
X2642Y703D01*
G37*
D02*
G36*
X2642Y703D02*
X2642Y699D01*
X2626Y699D01*
X2626Y703D01*
X2642Y703D01*
G37*
D02*
G36*
X2638Y699D02*
X2638Y695D01*
X2634Y695D01*
X2634Y699D01*
X2638Y699D01*
G37*
D02*
G36*
X2626Y707D02*
X2626Y703D01*
X2621Y703D01*
X2621Y707D01*
X2626Y707D01*
G37*
D02*
G36*
X2605Y707D02*
X2605Y703D01*
X2601Y703D01*
X2601Y707D01*
X2605Y707D01*
G37*
D02*
G36*
X2832Y703D02*
X2832Y699D01*
X2828Y699D01*
X2828Y703D01*
X2832Y703D01*
G37*
D02*
G36*
X2747Y703D02*
X2747Y699D01*
X2751Y699D01*
X2751Y695D01*
X2743Y695D01*
X2743Y703D01*
X2747Y703D01*
G37*
D02*
G36*
X2739Y703D02*
X2739Y695D01*
X2735Y695D01*
X2735Y703D01*
X2739Y703D01*
G37*
D02*
G36*
X2626Y699D02*
X2626Y691D01*
X2621Y691D01*
X2621Y699D01*
X2626Y699D01*
G37*
D02*
G36*
X2845Y695D02*
X2845Y691D01*
X2841Y691D01*
X2841Y695D01*
X2845Y695D01*
G37*
D02*
G36*
X2743Y695D02*
X2743Y691D01*
X2739Y691D01*
X2739Y695D01*
X2743Y695D01*
G37*
D02*
G36*
X2796Y691D02*
X2796Y687D01*
X2792Y687D01*
X2792Y679D01*
X2776Y679D01*
X2776Y687D01*
X2788Y687D01*
X2788Y691D01*
X2796Y691D01*
G37*
D02*
G36*
X2772Y691D02*
X2772Y679D01*
X2768Y679D01*
X2768Y683D01*
X2759Y683D01*
X2759Y687D01*
X2763Y687D01*
X2763Y691D01*
X2772Y691D01*
G37*
D02*
G36*
X2755Y691D02*
X2755Y687D01*
X2751Y687D01*
X2751Y691D01*
X2755Y691D01*
G37*
D02*
G36*
X2800Y687D02*
X2800Y679D01*
X2796Y679D01*
X2796Y687D01*
X2800Y687D01*
G37*
D02*
G36*
X2845Y683D02*
X2845Y675D01*
X2841Y675D01*
X2841Y683D01*
X2845Y683D01*
G37*
D02*
G36*
X2849Y671D02*
X2849Y667D01*
X2845Y667D01*
X2845Y671D01*
X2849Y671D01*
G37*
D02*
G36*
X2853Y667D02*
X2853Y663D01*
X2849Y663D01*
X2849Y667D01*
X2853Y667D01*
G37*
D02*
G36*
X2877Y659D02*
X2877Y654D01*
X2869Y654D01*
X2869Y659D01*
X2877Y659D01*
G37*
D02*
G36*
X2589Y659D02*
X2589Y654D01*
X2585Y654D01*
X2585Y659D01*
X2589Y659D01*
G37*
D02*
G36*
X2881Y654D02*
X2881Y650D01*
X2877Y650D01*
X2877Y654D01*
X2881Y654D01*
G37*
D02*
G36*
X2869Y654D02*
X2869Y650D01*
X2865Y650D01*
X2865Y654D01*
X2869Y654D01*
G37*
D02*
G36*
X2581Y654D02*
X2581Y650D01*
X2577Y650D01*
X2577Y646D01*
X2581Y646D01*
X2581Y638D01*
X2577Y638D01*
X2577Y642D01*
X2573Y642D01*
X2573Y654D01*
X2581Y654D01*
G37*
D02*
G36*
X2585Y650D02*
X2585Y646D01*
X2581Y646D01*
X2581Y650D01*
X2585Y650D01*
G37*
D02*
G36*
X2865Y638D02*
X2865Y630D01*
X2869Y630D01*
X2869Y626D01*
X2861Y626D01*
X2861Y638D01*
X2865Y638D01*
G37*
D02*
G36*
X2861Y626D02*
X2861Y622D01*
X2869Y622D01*
X2869Y618D01*
X2853Y618D01*
X2853Y622D01*
X2857Y622D01*
X2857Y626D01*
X2861Y626D01*
G37*
D02*
G36*
X2881Y606D02*
X2881Y598D01*
X2873Y598D01*
X2873Y606D01*
X2881Y606D01*
G37*
D02*
G36*
X2857Y598D02*
X2857Y594D01*
X2861Y594D01*
X2861Y590D01*
X2857Y590D01*
X2857Y586D01*
X2849Y586D01*
X2849Y590D01*
X2853Y590D01*
X2853Y598D01*
X2857Y598D01*
G37*
D02*
G36*
X2865Y590D02*
X2865Y586D01*
X2869Y586D01*
X2869Y581D01*
X2861Y581D01*
X2861Y590D01*
X2865Y590D01*
G37*
D02*
G36*
X2857Y581D02*
X2857Y577D01*
X2849Y577D01*
X2849Y581D01*
X2857Y581D01*
G37*
D02*
G36*
X2849Y577D02*
X2849Y573D01*
X2845Y573D01*
X2845Y577D01*
X2849Y577D01*
G37*
D02*
G36*
X3072Y573D02*
X3072Y569D01*
X3068Y569D01*
X3068Y573D01*
X3072Y573D01*
G37*
D02*
G36*
X3043Y573D02*
X3043Y569D01*
X3039Y569D01*
X3039Y573D01*
X3043Y573D01*
G37*
D02*
G36*
X3007Y573D02*
X3007Y569D01*
X2999Y569D01*
X2999Y573D01*
X3007Y573D01*
G37*
D02*
G36*
X3084Y569D02*
X3084Y565D01*
X3080Y565D01*
X3080Y569D01*
X3084Y569D01*
G37*
D02*
G36*
X3076Y569D02*
X3076Y565D01*
X3080Y565D01*
X3080Y561D01*
X3072Y561D01*
X3072Y553D01*
X3068Y553D01*
X3068Y561D01*
X3064Y561D01*
X3064Y565D01*
X3072Y565D01*
X3072Y569D01*
X3076Y569D01*
G37*
D02*
G36*
X3084Y561D02*
X3084Y557D01*
X3088Y557D01*
X3088Y553D01*
X3076Y553D01*
X3076Y561D01*
X3084Y561D01*
G37*
D02*
G36*
X3051Y569D02*
X3051Y565D01*
X3047Y565D01*
X3047Y569D01*
X3051Y569D01*
G37*
D02*
G36*
X3092Y565D02*
X3092Y561D01*
X3084Y561D01*
X3084Y565D01*
X3092Y565D01*
G37*
D02*
G36*
X2573Y565D02*
X2573Y561D01*
X2569Y561D01*
X2569Y565D01*
X2573Y565D01*
G37*
D02*
G36*
X3096Y561D02*
X3096Y557D01*
X3100Y557D01*
X3100Y553D01*
X3104Y553D01*
X3104Y549D01*
X3096Y549D01*
X3096Y545D01*
X3092Y545D01*
X3092Y549D01*
X3088Y549D01*
X3088Y553D01*
X3092Y553D01*
X3092Y561D01*
X3096Y561D01*
G37*
D02*
G36*
X3104Y549D02*
X3104Y545D01*
X3100Y545D01*
X3100Y549D01*
X3104Y549D01*
G37*
D02*
G36*
X3064Y561D02*
X3064Y557D01*
X3060Y557D01*
X3060Y561D01*
X3064Y561D01*
G37*
D02*
G36*
X3060Y557D02*
X3060Y553D01*
X3056Y553D01*
X3056Y549D01*
X3051Y549D01*
X3051Y557D01*
X3060Y557D01*
G37*
D02*
G36*
X2845Y557D02*
X2845Y553D01*
X2841Y553D01*
X2841Y557D01*
X2845Y557D01*
G37*
D02*
G36*
X2832Y557D02*
X2832Y553D01*
X2828Y553D01*
X2828Y557D01*
X2832Y557D01*
G37*
D02*
G36*
X3068Y553D02*
X3068Y549D01*
X3064Y549D01*
X3064Y553D01*
X3068Y553D01*
G37*
D02*
G36*
X2841Y553D02*
X2841Y549D01*
X2832Y549D01*
X2832Y553D01*
X2841Y553D01*
G37*
D02*
G36*
X3100Y545D02*
X3100Y541D01*
X3096Y541D01*
X3096Y545D01*
X3100Y545D01*
G37*
D02*
G36*
X3092Y545D02*
X3092Y541D01*
X3088Y541D01*
X3088Y545D01*
X3092Y545D01*
G37*
D02*
G36*
X3283Y541D02*
X3283Y537D01*
X3279Y537D01*
X3279Y541D01*
X3283Y541D01*
G37*
D02*
G36*
X3120Y541D02*
X3120Y537D01*
X3116Y537D01*
X3116Y541D01*
X3120Y541D01*
G37*
D02*
G36*
X2573Y541D02*
X2573Y537D01*
X2577Y537D01*
X2577Y529D01*
X2573Y529D01*
X2573Y525D01*
X2569Y525D01*
X2569Y541D01*
X2573Y541D01*
G37*
D02*
G36*
X3112Y537D02*
X3112Y533D01*
X3108Y533D01*
X3108Y537D01*
X3112Y537D01*
G37*
D02*
G36*
X2808Y537D02*
X2808Y533D01*
X2804Y533D01*
X2804Y537D01*
X2808Y537D01*
G37*
D02*
G36*
X2930Y533D02*
X2930Y529D01*
X2926Y529D01*
X2926Y533D01*
X2930Y533D01*
G37*
D02*
G36*
X3266Y529D02*
X3266Y525D01*
X3262Y525D01*
X3262Y529D01*
X3266Y529D01*
G37*
D02*
G36*
X2938Y529D02*
X2938Y525D01*
X2934Y525D01*
X2934Y529D01*
X2938Y529D01*
G37*
D02*
G36*
X2926Y529D02*
X2926Y525D01*
X2922Y525D01*
X2922Y529D01*
X2926Y529D01*
G37*
D02*
G36*
X2938Y525D02*
X2938Y521D01*
X2918Y521D01*
X2918Y525D01*
X2938Y525D01*
G37*
D02*
G36*
X2938Y525D02*
X2938Y521D01*
X2918Y521D01*
X2918Y525D01*
X2938Y525D01*
G37*
D02*
G36*
X2934Y521D02*
X2934Y517D01*
X2930Y517D01*
X2930Y521D01*
X2934Y521D01*
G37*
D02*
G36*
X2918Y529D02*
X2918Y525D01*
X2914Y525D01*
X2914Y521D01*
X2905Y521D01*
X2905Y525D01*
X2909Y525D01*
X2909Y529D01*
X2918Y529D01*
G37*
D02*
G36*
X3299Y525D02*
X3299Y521D01*
X3295Y521D01*
X3295Y525D01*
X3299Y525D01*
G37*
D02*
G36*
X3262Y525D02*
X3262Y521D01*
X3258Y521D01*
X3258Y525D01*
X3262Y525D01*
G37*
D02*
G36*
X3303Y521D02*
X3303Y517D01*
X3299Y517D01*
X3299Y521D01*
X3303Y521D01*
G37*
D02*
G36*
X3100Y521D02*
X3100Y517D01*
X3092Y517D01*
X3092Y521D01*
X3100Y521D01*
G37*
D02*
G36*
X2918Y521D02*
X2918Y517D01*
X2914Y517D01*
X2914Y521D01*
X2918Y521D01*
G37*
D02*
G36*
X2905Y521D02*
X2905Y513D01*
X2901Y513D01*
X2901Y517D01*
X2897Y517D01*
X2897Y521D01*
X2905Y521D01*
G37*
D02*
G36*
X3307Y517D02*
X3307Y504D01*
X3303Y504D01*
X3303Y500D01*
X3299Y500D01*
X3299Y508D01*
X3303Y508D01*
X3303Y517D01*
X3307Y517D01*
G37*
D02*
G36*
X3299Y517D02*
X3299Y513D01*
X3295Y513D01*
X3295Y517D01*
X3299Y517D01*
G37*
D02*
G36*
X3092Y517D02*
X3092Y513D01*
X3088Y513D01*
X3088Y517D01*
X3092Y517D01*
G37*
D02*
G36*
X2966Y517D02*
X2966Y513D01*
X2962Y513D01*
X2962Y517D01*
X2966Y517D01*
G37*
D02*
G36*
X2914Y517D02*
X2914Y513D01*
X2909Y513D01*
X2909Y517D01*
X2914Y517D01*
G37*
D02*
G36*
X2897Y517D02*
X2897Y513D01*
X2893Y513D01*
X2893Y517D01*
X2897Y517D01*
G37*
D02*
G36*
X2812Y517D02*
X2812Y513D01*
X2804Y513D01*
X2804Y517D01*
X2812Y517D01*
G37*
D02*
G36*
X3275Y513D02*
X3275Y508D01*
X3271Y508D01*
X3271Y513D01*
X3275Y513D01*
G37*
D02*
G36*
X2970Y513D02*
X2970Y508D01*
X2966Y508D01*
X2966Y513D01*
X2970Y513D01*
G37*
D02*
G36*
X2901Y513D02*
X2901Y508D01*
X2897Y508D01*
X2897Y513D01*
X2901Y513D01*
G37*
D02*
G36*
X3425Y508D02*
X3425Y504D01*
X3417Y504D01*
X3417Y508D01*
X3425Y508D01*
G37*
D02*
G36*
X3271Y508D02*
X3271Y504D01*
X3275Y504D01*
X3275Y500D01*
X3287Y500D01*
X3287Y496D01*
X3262Y496D01*
X3262Y500D01*
X3266Y500D01*
X3266Y508D01*
X3271Y508D01*
G37*
D02*
G36*
X3076Y508D02*
X3076Y504D01*
X3068Y504D01*
X3068Y508D01*
X3076Y508D01*
G37*
D02*
G36*
X2983Y508D02*
X2983Y504D01*
X2978Y504D01*
X2978Y508D01*
X2983Y508D01*
G37*
D02*
G36*
X2877Y508D02*
X2877Y500D01*
X2873Y500D01*
X2873Y508D01*
X2877Y508D01*
G37*
D02*
G36*
X3417Y504D02*
X3417Y500D01*
X3413Y500D01*
X3413Y504D01*
X3417Y504D01*
G37*
D02*
G36*
X2974Y504D02*
X2974Y500D01*
X2970Y500D01*
X2970Y504D01*
X2974Y504D01*
G37*
D02*
G36*
X2885Y504D02*
X2885Y496D01*
X2881Y496D01*
X2881Y504D01*
X2885Y504D01*
G37*
D02*
G36*
X3473Y707D02*
X3473Y703D01*
X2918Y703D01*
X2918Y707D01*
X3473Y707D01*
G37*
D02*
G36*
X2909Y707D02*
X2909Y703D01*
X2893Y703D01*
X2893Y707D01*
X2909Y707D01*
G37*
D02*
G36*
X2889Y707D02*
X2889Y703D01*
X2849Y703D01*
X2849Y707D01*
X2889Y707D01*
G37*
D02*
G36*
X3473Y703D02*
X3473Y695D01*
X2905Y695D01*
X2905Y699D01*
X2909Y699D01*
X2909Y703D01*
X3473Y703D01*
G37*
D02*
G36*
X2897Y703D02*
X2897Y699D01*
X2853Y699D01*
X2853Y703D01*
X2897Y703D01*
G37*
D02*
G36*
X2897Y703D02*
X2897Y699D01*
X2853Y699D01*
X2853Y703D01*
X2897Y703D01*
G37*
D02*
G36*
X2897Y699D02*
X2897Y695D01*
X2845Y695D01*
X2845Y699D01*
X2897Y699D01*
G37*
D02*
G36*
X3473Y695D02*
X3473Y691D01*
X2849Y691D01*
X2849Y695D01*
X3473Y695D01*
G37*
D02*
G36*
X3473Y695D02*
X3473Y691D01*
X2849Y691D01*
X2849Y695D01*
X3473Y695D01*
G37*
D02*
G36*
X3473Y691D02*
X3473Y679D01*
X2918Y679D01*
X2918Y691D01*
X3473Y691D01*
G37*
D02*
G36*
X2901Y691D02*
X2901Y687D01*
X2849Y687D01*
X2849Y683D01*
X2845Y683D01*
X2845Y691D01*
X2901Y691D01*
G37*
D02*
G36*
X2897Y687D02*
X2897Y683D01*
X2857Y683D01*
X2857Y687D01*
X2897Y687D01*
G37*
D02*
G36*
X2901Y683D02*
X2901Y679D01*
X2853Y679D01*
X2853Y675D01*
X2849Y675D01*
X2849Y683D01*
X2901Y683D01*
G37*
D02*
G36*
X3473Y679D02*
X3473Y675D01*
X2857Y675D01*
X2857Y679D01*
X3473Y679D01*
G37*
D02*
G36*
X3473Y679D02*
X3473Y675D01*
X2857Y675D01*
X2857Y679D01*
X3473Y679D01*
G37*
D02*
G36*
X3473Y675D02*
X3473Y659D01*
X2922Y659D01*
X2922Y667D01*
X2901Y667D01*
X2901Y671D01*
X2909Y671D01*
X2909Y675D01*
X3473Y675D01*
G37*
D02*
G36*
X2897Y675D02*
X2897Y671D01*
X2889Y671D01*
X2889Y667D01*
X2885Y667D01*
X2885Y671D01*
X2877Y671D01*
X2877Y675D01*
X2897Y675D01*
G37*
D02*
G36*
X2873Y675D02*
X2873Y671D01*
X2869Y671D01*
X2869Y675D01*
X2873Y675D01*
G37*
D02*
G36*
X2865Y675D02*
X2865Y671D01*
X2861Y671D01*
X2861Y663D01*
X2857Y663D01*
X2857Y667D01*
X2853Y667D01*
X2853Y675D01*
X2865Y675D01*
G37*
D02*
G36*
X2877Y671D02*
X2877Y667D01*
X2873Y667D01*
X2873Y671D01*
X2877Y671D01*
G37*
D02*
G36*
X2869Y671D02*
X2869Y667D01*
X2865Y667D01*
X2865Y671D01*
X2869Y671D01*
G37*
D02*
G36*
X2918Y667D02*
X2918Y663D01*
X2865Y663D01*
X2865Y667D01*
X2918Y667D01*
G37*
D02*
G36*
X2918Y667D02*
X2918Y663D01*
X2865Y663D01*
X2865Y667D01*
X2918Y667D01*
G37*
D02*
G36*
X2918Y667D02*
X2918Y663D01*
X2865Y663D01*
X2865Y667D01*
X2918Y667D01*
G37*
D02*
G36*
X2918Y667D02*
X2918Y663D01*
X2865Y663D01*
X2865Y667D01*
X2918Y667D01*
G37*
D02*
G36*
X2918Y663D02*
X2918Y659D01*
X2897Y659D01*
X2897Y663D01*
X2918Y663D01*
G37*
D02*
G36*
X2889Y663D02*
X2889Y659D01*
X2885Y659D01*
X2885Y654D01*
X2881Y654D01*
X2881Y659D01*
X2877Y659D01*
X2877Y663D01*
X2889Y663D01*
G37*
D02*
G36*
X2869Y663D02*
X2869Y659D01*
X2865Y659D01*
X2865Y654D01*
X2861Y654D01*
X2861Y663D01*
X2869Y663D01*
G37*
D02*
G36*
X3473Y659D02*
X3473Y654D01*
X2905Y654D01*
X2905Y659D01*
X3473Y659D01*
G37*
D02*
G36*
X3473Y659D02*
X3473Y654D01*
X2905Y654D01*
X2905Y659D01*
X3473Y659D01*
G37*
D02*
G36*
X3473Y654D02*
X3473Y650D01*
X2918Y650D01*
X2918Y646D01*
X2885Y646D01*
X2885Y650D01*
X2901Y650D01*
X2901Y654D01*
X3473Y654D01*
G37*
D02*
G36*
X3473Y650D02*
X3473Y646D01*
X2922Y646D01*
X2922Y650D01*
X3473Y650D01*
G37*
D02*
G36*
X2877Y650D02*
X2877Y646D01*
X2869Y646D01*
X2869Y642D01*
X2865Y642D01*
X2865Y646D01*
X2869Y646D01*
X2869Y650D01*
X2877Y650D01*
G37*
D02*
G36*
X3473Y646D02*
X3473Y642D01*
X2909Y642D01*
X2909Y646D01*
X3473Y646D01*
G37*
D02*
G36*
X3473Y646D02*
X3473Y642D01*
X2909Y642D01*
X2909Y646D01*
X3473Y646D01*
G37*
D02*
G36*
X2893Y646D02*
X2893Y642D01*
X2873Y642D01*
X2873Y646D01*
X2893Y646D01*
G37*
D02*
G36*
X2893Y646D02*
X2893Y642D01*
X2873Y642D01*
X2873Y646D01*
X2893Y646D01*
G37*
D02*
G36*
X3473Y642D02*
X3473Y638D01*
X2889Y638D01*
X2889Y642D01*
X3473Y642D01*
G37*
D02*
G36*
X3473Y642D02*
X3473Y638D01*
X2889Y638D01*
X2889Y642D01*
X3473Y642D01*
G37*
D02*
G36*
X2885Y642D02*
X2885Y638D01*
X2881Y638D01*
X2881Y642D01*
X2885Y642D01*
G37*
D02*
G36*
X2877Y642D02*
X2877Y638D01*
X2865Y638D01*
X2865Y642D01*
X2877Y642D01*
G37*
D02*
G36*
X2877Y642D02*
X2877Y638D01*
X2865Y638D01*
X2865Y642D01*
X2877Y642D01*
G37*
D02*
G36*
X3473Y638D02*
X3473Y634D01*
X2889Y634D01*
X2889Y638D01*
X3473Y638D01*
G37*
D02*
G36*
X2885Y638D02*
X2885Y634D01*
X2869Y634D01*
X2869Y638D01*
X2885Y638D01*
G37*
D02*
G36*
X2885Y638D02*
X2885Y634D01*
X2869Y634D01*
X2869Y638D01*
X2885Y638D01*
G37*
D02*
G36*
X3473Y634D02*
X3473Y626D01*
X2885Y626D01*
X2885Y622D01*
X2881Y622D01*
X2881Y626D01*
X2885Y626D01*
X2885Y634D01*
X3473Y634D01*
G37*
D02*
G36*
X2881Y634D02*
X2881Y630D01*
X2877Y630D01*
X2877Y622D01*
X2869Y622D01*
X2869Y626D01*
X2873Y626D01*
X2873Y630D01*
X2869Y630D01*
X2869Y634D01*
X2881Y634D01*
G37*
D02*
G36*
X3473Y626D02*
X3473Y622D01*
X2889Y622D01*
X2889Y626D01*
X3473Y626D01*
G37*
D02*
G36*
X3473Y622D02*
X3473Y618D01*
X2877Y618D01*
X2877Y622D01*
X3473Y622D01*
G37*
D02*
G36*
X3473Y622D02*
X3473Y618D01*
X2877Y618D01*
X2877Y622D01*
X3473Y622D01*
G37*
D02*
G36*
X3473Y618D02*
X3473Y614D01*
X2889Y614D01*
X2889Y618D01*
X3473Y618D01*
G37*
D02*
G36*
X2881Y618D02*
X2881Y614D01*
X2873Y614D01*
X2873Y610D01*
X2869Y610D01*
X2869Y618D01*
X2881Y618D01*
G37*
D02*
G36*
X3473Y614D02*
X3473Y594D01*
X2885Y594D01*
X2885Y590D01*
X2881Y590D01*
X2881Y598D01*
X2885Y598D01*
X2885Y602D01*
X2889Y602D01*
X2889Y606D01*
X2881Y606D01*
X2881Y614D01*
X3473Y614D01*
G37*
D02*
G36*
X2865Y614D02*
X2865Y610D01*
X2857Y610D01*
X2857Y614D01*
X2865Y614D01*
G37*
D02*
G36*
X2873Y610D02*
X2873Y606D01*
X2857Y606D01*
X2857Y610D01*
X2873Y610D01*
G37*
D02*
G36*
X2873Y610D02*
X2873Y606D01*
X2857Y606D01*
X2857Y610D01*
X2873Y610D01*
G37*
D02*
G36*
X2869Y606D02*
X2869Y598D01*
X2873Y598D01*
X2873Y594D01*
X2877Y594D01*
X2877Y577D01*
X2869Y577D01*
X2869Y581D01*
X2873Y581D01*
X2873Y586D01*
X2869Y586D01*
X2869Y594D01*
X2861Y594D01*
X2861Y602D01*
X2865Y602D01*
X2865Y606D01*
X2869Y606D01*
G37*
D02*
G36*
X3473Y594D02*
X3473Y590D01*
X2889Y590D01*
X2889Y594D01*
X3473Y594D01*
G37*
D02*
G36*
X3473Y590D02*
X3473Y586D01*
X2881Y586D01*
X2881Y590D01*
X3473Y590D01*
G37*
D02*
G36*
X3473Y590D02*
X3473Y586D01*
X2881Y586D01*
X2881Y590D01*
X3473Y590D01*
G37*
D02*
G36*
X3473Y586D02*
X3473Y577D01*
X2978Y577D01*
X2978Y569D01*
X2974Y569D01*
X2974Y573D01*
X2966Y573D01*
X2966Y577D01*
X2881Y577D01*
X2881Y586D01*
X3473Y586D01*
G37*
D02*
G36*
X3473Y577D02*
X3473Y573D01*
X3112Y573D01*
X3112Y577D01*
X3473Y577D01*
G37*
D02*
G36*
X3108Y577D02*
X3108Y573D01*
X3096Y573D01*
X3096Y577D01*
X3108Y577D01*
G37*
D02*
G36*
X3088Y577D02*
X3088Y573D01*
X3080Y573D01*
X3080Y569D01*
X3076Y569D01*
X3076Y573D01*
X3072Y573D01*
X3072Y577D01*
X3088Y577D01*
G37*
D02*
G36*
X3068Y577D02*
X3068Y573D01*
X3060Y573D01*
X3060Y577D01*
X3068Y577D01*
G37*
D02*
G36*
X3056Y577D02*
X3056Y573D01*
X3047Y573D01*
X3047Y577D01*
X3056Y577D01*
G37*
D02*
G36*
X3039Y577D02*
X3039Y573D01*
X3035Y573D01*
X3035Y577D01*
X3039Y577D01*
G37*
D02*
G36*
X3031Y577D02*
X3031Y573D01*
X3027Y573D01*
X3027Y577D01*
X3031Y577D01*
G37*
D02*
G36*
X3019Y577D02*
X3019Y573D01*
X3007Y573D01*
X3007Y577D01*
X3019Y577D01*
G37*
D02*
G36*
X2995Y577D02*
X2995Y573D01*
X2991Y573D01*
X2991Y577D01*
X2995Y577D01*
G37*
D02*
G36*
X2987Y577D02*
X2987Y573D01*
X2983Y573D01*
X2983Y577D01*
X2987Y577D01*
G37*
D02*
G36*
X2962Y577D02*
X2962Y573D01*
X2857Y573D01*
X2857Y577D01*
X2962Y577D01*
G37*
D02*
G36*
X2962Y577D02*
X2962Y573D01*
X2857Y573D01*
X2857Y577D01*
X2962Y577D01*
G37*
D02*
G36*
X3473Y573D02*
X3473Y569D01*
X3112Y569D01*
X3112Y565D01*
X3108Y565D01*
X3108Y573D01*
X3473Y573D01*
G37*
D02*
G36*
X3100Y573D02*
X3100Y569D01*
X3084Y569D01*
X3084Y573D01*
X3100Y573D01*
G37*
D02*
G36*
X3100Y573D02*
X3100Y569D01*
X3084Y569D01*
X3084Y573D01*
X3100Y573D01*
G37*
D02*
G36*
X3064Y573D02*
X3064Y569D01*
X3051Y569D01*
X3051Y573D01*
X3064Y573D01*
G37*
D02*
G36*
X3064Y573D02*
X3064Y569D01*
X3051Y569D01*
X3051Y573D01*
X3064Y573D01*
G37*
D02*
G36*
X2995Y573D02*
X2995Y569D01*
X2987Y569D01*
X2987Y573D01*
X2995Y573D01*
G37*
D02*
G36*
X2970Y573D02*
X2970Y569D01*
X2966Y569D01*
X2966Y565D01*
X2962Y565D01*
X2962Y573D01*
X2970Y573D01*
G37*
D02*
G36*
X2958Y573D02*
X2958Y569D01*
X2853Y569D01*
X2853Y565D01*
X2849Y565D01*
X2849Y573D01*
X2958Y573D01*
G37*
D02*
G36*
X2845Y573D02*
X2845Y565D01*
X2841Y565D01*
X2841Y573D01*
X2845Y573D01*
G37*
D02*
G36*
X3473Y569D02*
X3473Y565D01*
X3116Y565D01*
X3116Y569D01*
X3473Y569D01*
G37*
D02*
G36*
X3104Y569D02*
X3104Y561D01*
X3100Y561D01*
X3100Y565D01*
X3096Y565D01*
X3096Y569D01*
X3104Y569D01*
G37*
D02*
G36*
X3064Y569D02*
X3064Y565D01*
X3060Y565D01*
X3060Y561D01*
X3051Y561D01*
X3051Y565D01*
X3056Y565D01*
X3056Y569D01*
X3064Y569D01*
G37*
D02*
G36*
X2958Y569D02*
X2958Y565D01*
X2857Y565D01*
X2857Y569D01*
X2958Y569D01*
G37*
D02*
G36*
X2836Y569D02*
X2836Y565D01*
X2832Y565D01*
X2832Y569D01*
X2836Y569D01*
G37*
D02*
G36*
X3473Y565D02*
X3473Y561D01*
X3112Y561D01*
X3112Y565D01*
X3473Y565D01*
G37*
D02*
G36*
X2966Y565D02*
X2966Y561D01*
X2857Y561D01*
X2857Y565D01*
X2966Y565D01*
G37*
D02*
G36*
X2966Y565D02*
X2966Y561D01*
X2857Y561D01*
X2857Y565D01*
X2966Y565D01*
G37*
D02*
G36*
X2853Y565D02*
X2853Y561D01*
X2832Y561D01*
X2832Y565D01*
X2853Y565D01*
G37*
D02*
G36*
X2853Y565D02*
X2853Y561D01*
X2832Y561D01*
X2832Y565D01*
X2853Y565D01*
G37*
D02*
G36*
X2853Y565D02*
X2853Y561D01*
X2832Y561D01*
X2832Y565D01*
X2853Y565D01*
G37*
D02*
G36*
X3473Y561D02*
X3473Y557D01*
X3112Y557D01*
X3112Y553D01*
X3104Y553D01*
X3104Y561D01*
X3473Y561D01*
G37*
D02*
G36*
X2970Y561D02*
X2970Y557D01*
X2966Y557D01*
X2966Y561D01*
X2970Y561D01*
G37*
D02*
G36*
X2962Y561D02*
X2962Y557D01*
X2958Y557D01*
X2958Y561D01*
X2962Y561D01*
G37*
D02*
G36*
X2954Y561D02*
X2954Y557D01*
X2849Y557D01*
X2849Y561D01*
X2954Y561D01*
G37*
D02*
G36*
X2954Y561D02*
X2954Y557D01*
X2849Y557D01*
X2849Y561D01*
X2954Y561D01*
G37*
D02*
G36*
X2841Y561D02*
X2841Y557D01*
X2836Y557D01*
X2836Y561D01*
X2841Y561D01*
G37*
D02*
G36*
X3473Y557D02*
X3473Y553D01*
X3116Y553D01*
X3116Y557D01*
X3473Y557D01*
G37*
D02*
G36*
X2970Y557D02*
X2970Y553D01*
X2958Y553D01*
X2958Y557D01*
X2970Y557D01*
G37*
D02*
G36*
X2970Y557D02*
X2970Y553D01*
X2958Y553D01*
X2958Y557D01*
X2970Y557D01*
G37*
D02*
G36*
X2954Y557D02*
X2954Y553D01*
X2857Y553D01*
X2857Y557D01*
X2954Y557D01*
G37*
D02*
G36*
X2853Y557D02*
X2853Y553D01*
X2849Y553D01*
X2849Y549D01*
X2845Y549D01*
X2845Y553D01*
X2849Y553D01*
X2849Y557D01*
X2853Y557D01*
G37*
D02*
G36*
X3473Y553D02*
X3473Y549D01*
X3108Y549D01*
X3108Y553D01*
X3473Y553D01*
G37*
D02*
G36*
X3473Y553D02*
X3473Y549D01*
X3108Y549D01*
X3108Y553D01*
X3473Y553D01*
G37*
D02*
G36*
X2970Y553D02*
X2970Y549D01*
X2966Y549D01*
X2966Y553D01*
X2970Y553D01*
G37*
D02*
G36*
X2962Y553D02*
X2962Y549D01*
X2857Y549D01*
X2857Y553D01*
X2962Y553D01*
G37*
D02*
G36*
X2962Y553D02*
X2962Y549D01*
X2857Y549D01*
X2857Y553D01*
X2962Y553D01*
G37*
D02*
G36*
X2828Y553D02*
X2828Y549D01*
X2832Y549D01*
X2832Y545D01*
X2820Y545D01*
X2820Y549D01*
X2824Y549D01*
X2824Y553D01*
X2828Y553D01*
G37*
D02*
G36*
X3473Y549D02*
X3473Y545D01*
X3129Y545D01*
X3129Y541D01*
X3120Y541D01*
X3120Y545D01*
X3116Y545D01*
X3116Y549D01*
X3473Y549D01*
G37*
D02*
G36*
X3112Y549D02*
X3112Y545D01*
X3108Y545D01*
X3108Y549D01*
X3112Y549D01*
G37*
D02*
G36*
X2970Y549D02*
X2970Y545D01*
X2962Y545D01*
X2962Y549D01*
X2970Y549D01*
G37*
D02*
G36*
X2958Y549D02*
X2958Y545D01*
X2841Y545D01*
X2841Y549D01*
X2958Y549D01*
G37*
D02*
G36*
X2958Y549D02*
X2958Y545D01*
X2841Y545D01*
X2841Y549D01*
X2958Y549D01*
G37*
D02*
G36*
X3473Y545D02*
X3473Y537D01*
X3311Y537D01*
X3311Y541D01*
X3295Y541D01*
X3295Y545D01*
X3473Y545D01*
G37*
D02*
G36*
X3291Y545D02*
X3291Y541D01*
X3283Y541D01*
X3283Y545D01*
X3291Y545D01*
G37*
D02*
G36*
X3279Y545D02*
X3279Y541D01*
X3266Y541D01*
X3266Y545D01*
X3279Y545D01*
G37*
D02*
G36*
X3258Y545D02*
X3258Y541D01*
X3262Y541D01*
X3262Y537D01*
X3275Y537D01*
X3275Y533D01*
X3254Y533D01*
X3254Y541D01*
X3250Y541D01*
X3250Y545D01*
X3258Y545D01*
G37*
D02*
G36*
X3246Y545D02*
X3246Y541D01*
X3242Y541D01*
X3242Y545D01*
X3246Y545D01*
G37*
D02*
G36*
X3238Y545D02*
X3238Y541D01*
X3230Y541D01*
X3230Y545D01*
X3238Y545D01*
G37*
D02*
G36*
X3226Y545D02*
X3226Y541D01*
X3218Y541D01*
X3218Y545D01*
X3226Y545D01*
G37*
D02*
G36*
X3193Y545D02*
X3193Y541D01*
X3189Y541D01*
X3189Y545D01*
X3193Y545D01*
G37*
D02*
G36*
X3185Y545D02*
X3185Y541D01*
X3181Y541D01*
X3181Y545D01*
X3185Y545D01*
G37*
D02*
G36*
X3177Y545D02*
X3177Y541D01*
X3173Y541D01*
X3173Y545D01*
X3177Y545D01*
G37*
D02*
G36*
X3169Y545D02*
X3169Y541D01*
X3165Y541D01*
X3165Y545D01*
X3169Y545D01*
G37*
D02*
G36*
X3161Y545D02*
X3161Y541D01*
X3157Y541D01*
X3157Y545D01*
X3161Y545D01*
G37*
D02*
G36*
X3153Y545D02*
X3153Y541D01*
X3149Y541D01*
X3149Y545D01*
X3153Y545D01*
G37*
D02*
G36*
X3145Y545D02*
X3145Y541D01*
X3137Y541D01*
X3137Y545D01*
X3145Y545D01*
G37*
D02*
G36*
X3116Y545D02*
X3116Y541D01*
X3108Y541D01*
X3108Y537D01*
X3104Y537D01*
X3104Y533D01*
X3096Y533D01*
X3096Y525D01*
X3088Y525D01*
X3088Y529D01*
X3092Y529D01*
X3092Y533D01*
X3088Y533D01*
X3088Y537D01*
X3100Y537D01*
X3100Y541D01*
X3104Y541D01*
X3104Y545D01*
X3116Y545D01*
G37*
D02*
G36*
X2962Y545D02*
X2962Y537D01*
X2958Y537D01*
X2958Y545D01*
X2962Y545D01*
G37*
D02*
G36*
X2954Y545D02*
X2954Y541D01*
X2950Y541D01*
X2950Y545D01*
X2954Y545D01*
G37*
D02*
G36*
X2946Y545D02*
X2946Y541D01*
X2942Y541D01*
X2942Y545D01*
X2946Y545D01*
G37*
D02*
G36*
X2938Y545D02*
X2938Y541D01*
X2934Y541D01*
X2934Y537D01*
X2926Y537D01*
X2926Y541D01*
X2934Y541D01*
X2934Y545D01*
X2938Y545D01*
G37*
D02*
G36*
X2922Y545D02*
X2922Y541D01*
X2918Y541D01*
X2918Y545D01*
X2922Y545D01*
G37*
D02*
G36*
X2909Y545D02*
X2909Y541D01*
X2901Y541D01*
X2901Y545D01*
X2909Y545D01*
G37*
D02*
G36*
X2897Y545D02*
X2897Y541D01*
X2893Y541D01*
X2893Y545D01*
X2897Y545D01*
G37*
D02*
G36*
X2889Y545D02*
X2889Y541D01*
X2820Y541D01*
X2820Y545D01*
X2889Y545D01*
G37*
D02*
G36*
X2889Y545D02*
X2889Y541D01*
X2820Y541D01*
X2820Y545D01*
X2889Y545D01*
G37*
D02*
G36*
X3299Y541D02*
X3299Y537D01*
X3287Y537D01*
X3287Y541D01*
X3299Y541D01*
G37*
D02*
G36*
X3299Y541D02*
X3299Y537D01*
X3287Y537D01*
X3287Y541D01*
X3299Y541D01*
G37*
D02*
G36*
X2950Y541D02*
X2950Y537D01*
X2938Y537D01*
X2938Y541D01*
X2950Y541D01*
G37*
D02*
G36*
X2922Y541D02*
X2922Y537D01*
X2909Y537D01*
X2909Y541D01*
X2922Y541D01*
G37*
D02*
G36*
X2905Y541D02*
X2905Y537D01*
X2897Y537D01*
X2897Y541D01*
X2905Y541D01*
G37*
D02*
G36*
X2893Y541D02*
X2893Y537D01*
X2824Y537D01*
X2824Y541D01*
X2893Y541D01*
G37*
D02*
G36*
X2820Y541D02*
X2820Y537D01*
X2816Y537D01*
X2816Y541D01*
X2820Y541D01*
G37*
D02*
G36*
X3473Y537D02*
X3473Y533D01*
X3295Y533D01*
X3295Y537D01*
X3473Y537D01*
G37*
D02*
G36*
X3473Y537D02*
X3473Y533D01*
X3295Y533D01*
X3295Y537D01*
X3473Y537D01*
G37*
D02*
G36*
X2962Y537D02*
X2962Y533D01*
X2930Y533D01*
X2930Y537D01*
X2962Y537D01*
G37*
D02*
G36*
X2962Y537D02*
X2962Y533D01*
X2930Y533D01*
X2930Y537D01*
X2962Y537D01*
G37*
D02*
G36*
X2962Y537D02*
X2962Y533D01*
X2930Y533D01*
X2930Y537D01*
X2962Y537D01*
G37*
D02*
G36*
X2926Y537D02*
X2926Y533D01*
X2909Y533D01*
X2909Y529D01*
X2901Y529D01*
X2901Y533D01*
X2905Y533D01*
X2905Y537D01*
X2926Y537D01*
G37*
D02*
G36*
X2889Y537D02*
X2889Y533D01*
X2812Y533D01*
X2812Y537D01*
X2889Y537D01*
G37*
D02*
G36*
X2889Y537D02*
X2889Y533D01*
X2812Y533D01*
X2812Y537D01*
X2889Y537D01*
G37*
D02*
G36*
X3473Y533D02*
X3473Y529D01*
X3311Y529D01*
X3311Y533D01*
X3473Y533D01*
G37*
D02*
G36*
X3303Y533D02*
X3303Y529D01*
X3295Y529D01*
X3295Y525D01*
X3291Y525D01*
X3291Y533D01*
X3303Y533D01*
G37*
D02*
G36*
X2958Y533D02*
X2958Y529D01*
X2946Y529D01*
X2946Y521D01*
X2942Y521D01*
X2942Y529D01*
X2938Y529D01*
X2938Y533D01*
X2958Y533D01*
G37*
D02*
G36*
X2897Y533D02*
X2897Y529D01*
X2893Y529D01*
X2893Y521D01*
X2824Y521D01*
X2824Y525D01*
X2820Y525D01*
X2820Y529D01*
X2824Y529D01*
X2824Y533D01*
X2897Y533D01*
G37*
D02*
G36*
X3473Y529D02*
X3473Y525D01*
X3299Y525D01*
X3299Y529D01*
X3473Y529D01*
G37*
D02*
G36*
X3473Y529D02*
X3473Y525D01*
X3299Y525D01*
X3299Y529D01*
X3473Y529D01*
G37*
D02*
G36*
X2962Y529D02*
X2962Y525D01*
X2958Y525D01*
X2958Y529D01*
X2962Y529D01*
G37*
D02*
G36*
X2954Y529D02*
X2954Y525D01*
X2950Y525D01*
X2950Y529D01*
X2954Y529D01*
G37*
D02*
G36*
X2905Y529D02*
X2905Y525D01*
X2897Y525D01*
X2897Y529D01*
X2905Y529D01*
G37*
D02*
G36*
X2816Y529D02*
X2816Y525D01*
X2808Y525D01*
X2808Y529D01*
X2816Y529D01*
G37*
D02*
G36*
X3473Y525D02*
X3473Y513D01*
X3315Y513D01*
X3315Y508D01*
X3311Y508D01*
X3311Y517D01*
X3307Y517D01*
X3307Y521D01*
X3311Y521D01*
X3311Y525D01*
X3473Y525D01*
G37*
D02*
G36*
X2962Y525D02*
X2962Y521D01*
X2950Y521D01*
X2950Y525D01*
X2962Y525D01*
G37*
D02*
G36*
X2962Y525D02*
X2962Y521D01*
X2950Y521D01*
X2950Y525D01*
X2962Y525D01*
G37*
D02*
G36*
X2820Y525D02*
X2820Y521D01*
X2800Y521D01*
X2800Y525D01*
X2820Y525D01*
G37*
D02*
G36*
X2958Y521D02*
X2958Y517D01*
X2954Y517D01*
X2954Y521D01*
X2958Y521D01*
G37*
D02*
G36*
X2950Y521D02*
X2950Y517D01*
X2938Y517D01*
X2938Y521D01*
X2950Y521D01*
G37*
D02*
G36*
X2893Y521D02*
X2893Y517D01*
X2812Y517D01*
X2812Y521D01*
X2893Y521D01*
G37*
D02*
G36*
X2893Y521D02*
X2893Y517D01*
X2812Y517D01*
X2812Y521D01*
X2893Y521D01*
G37*
D02*
G36*
X2889Y517D02*
X2889Y513D01*
X2828Y513D01*
X2828Y508D01*
X2820Y508D01*
X2820Y504D01*
X2816Y504D01*
X2816Y500D01*
X2812Y500D01*
X2812Y504D01*
X2808Y504D01*
X2808Y508D01*
X2816Y508D01*
X2816Y517D01*
X2889Y517D01*
G37*
D02*
G36*
X3473Y513D02*
X3473Y508D01*
X3465Y508D01*
X3465Y504D01*
X3461Y504D01*
X3461Y500D01*
X3457Y500D01*
X3457Y513D01*
X3473Y513D01*
G37*
D02*
G36*
X3453Y513D02*
X3453Y504D01*
X3433Y504D01*
X3433Y500D01*
X3425Y500D01*
X3425Y504D01*
X3433Y504D01*
X3433Y508D01*
X3425Y508D01*
X3425Y513D01*
X3453Y513D01*
G37*
D02*
G36*
X3417Y513D02*
X3417Y508D01*
X3413Y508D01*
X3413Y504D01*
X3376Y504D01*
X3376Y508D01*
X3368Y508D01*
X3368Y513D01*
X3417Y513D01*
G37*
D02*
G36*
X3364Y513D02*
X3364Y508D01*
X3360Y508D01*
X3360Y513D01*
X3364Y513D01*
G37*
D02*
G36*
X3356Y513D02*
X3356Y508D01*
X3352Y508D01*
X3352Y504D01*
X3348Y504D01*
X3348Y513D01*
X3356Y513D01*
G37*
D02*
G36*
X3344Y513D02*
X3344Y508D01*
X3339Y508D01*
X3339Y504D01*
X3335Y504D01*
X3335Y508D01*
X3331Y508D01*
X3331Y513D01*
X3344Y513D01*
G37*
D02*
G36*
X3323Y513D02*
X3323Y508D01*
X3319Y508D01*
X3319Y513D01*
X3323Y513D01*
G37*
D02*
G36*
X2893Y513D02*
X2893Y508D01*
X2889Y508D01*
X2889Y504D01*
X2885Y504D01*
X2885Y508D01*
X2877Y508D01*
X2877Y513D01*
X2893Y513D01*
G37*
D02*
G36*
X2873Y513D02*
X2873Y508D01*
X2865Y508D01*
X2865Y513D01*
X2873Y513D01*
G37*
D02*
G36*
X2861Y513D02*
X2861Y508D01*
X2857Y508D01*
X2857Y513D01*
X2861Y513D01*
G37*
D02*
G36*
X2853Y513D02*
X2853Y508D01*
X2832Y508D01*
X2832Y513D01*
X2853Y513D01*
G37*
D02*
G36*
X3473Y508D02*
X3473Y504D01*
X3469Y504D01*
X3469Y508D01*
X3473Y508D01*
G37*
D02*
G36*
X3364Y508D02*
X3364Y504D01*
X3356Y504D01*
X3356Y508D01*
X3364Y508D01*
G37*
D02*
G36*
X3327Y508D02*
X3327Y504D01*
X3319Y504D01*
X3319Y496D01*
X3307Y496D01*
X3307Y492D01*
X3303Y492D01*
X3303Y500D01*
X3307Y500D01*
X3307Y504D01*
X3315Y504D01*
X3315Y508D01*
X3327Y508D01*
G37*
D02*
G36*
X2865Y508D02*
X2865Y504D01*
X2845Y504D01*
X2845Y508D01*
X2865Y508D01*
G37*
D02*
G36*
X2865Y508D02*
X2865Y504D01*
X2845Y504D01*
X2845Y508D01*
X2865Y508D01*
G37*
D02*
G36*
X2832Y508D02*
X2832Y504D01*
X2824Y504D01*
X2824Y508D01*
X2832Y508D01*
G37*
D02*
G36*
X3473Y504D02*
X3473Y496D01*
X3469Y496D01*
X3469Y500D01*
X3465Y500D01*
X3465Y504D01*
X3473Y504D01*
G37*
D02*
G36*
X3453Y504D02*
X3453Y500D01*
X3449Y500D01*
X3449Y504D01*
X3453Y504D01*
G37*
D02*
G36*
X3445Y504D02*
X3445Y500D01*
X3441Y500D01*
X3441Y504D01*
X3445Y504D01*
G37*
D02*
G36*
X3376Y504D02*
X3376Y500D01*
X3368Y500D01*
X3368Y496D01*
X3364Y496D01*
X3364Y500D01*
X3356Y500D01*
X3356Y504D01*
X3376Y504D01*
G37*
D02*
G36*
X3348Y504D02*
X3348Y500D01*
X3323Y500D01*
X3323Y504D01*
X3348Y504D01*
G37*
D02*
G36*
X3348Y504D02*
X3348Y500D01*
X3323Y500D01*
X3323Y504D01*
X3348Y504D01*
G37*
D02*
G36*
X2869Y504D02*
X2869Y500D01*
X2873Y500D01*
X2873Y492D01*
X2869Y492D01*
X2869Y496D01*
X2861Y496D01*
X2861Y500D01*
X2865Y500D01*
X2865Y504D01*
X2869Y504D01*
G37*
D02*
G36*
X2857Y504D02*
X2857Y496D01*
X2853Y496D01*
X2853Y504D01*
X2857Y504D01*
G37*
D02*
G36*
X2849Y504D02*
X2849Y500D01*
X2820Y500D01*
X2820Y504D01*
X2849Y504D01*
G37*
D02*
G36*
X2849Y504D02*
X2849Y500D01*
X2820Y500D01*
X2820Y504D01*
X2849Y504D01*
G37*
D02*
G36*
X3453Y500D02*
X3453Y496D01*
X3449Y496D01*
X3449Y492D01*
X3445Y492D01*
X3445Y500D01*
X3453Y500D01*
G37*
D02*
G36*
X3441Y500D02*
X3441Y496D01*
X3433Y496D01*
X3433Y492D01*
X3429Y492D01*
X3429Y496D01*
X3417Y496D01*
X3417Y500D01*
X3441Y500D01*
G37*
D02*
G36*
X3413Y500D02*
X3413Y496D01*
X3376Y496D01*
X3376Y500D01*
X3413Y500D01*
G37*
D02*
G36*
X3360Y500D02*
X3360Y492D01*
X3356Y492D01*
X3356Y488D01*
X3352Y488D01*
X3352Y496D01*
X3348Y496D01*
X3348Y500D01*
X3360Y500D01*
G37*
D02*
G36*
X3344Y500D02*
X3344Y496D01*
X3339Y496D01*
X3339Y500D01*
X3344Y500D01*
G37*
D02*
G36*
X3335Y500D02*
X3335Y496D01*
X3327Y496D01*
X3327Y500D01*
X3335Y500D01*
G37*
D02*
G36*
X2849Y500D02*
X2849Y496D01*
X2828Y496D01*
X2828Y500D01*
X2849Y500D01*
G37*
D02*
G36*
X2824Y500D02*
X2824Y496D01*
X2812Y496D01*
X2812Y500D01*
X2824Y500D01*
G37*
D02*
G36*
X2824Y500D02*
X2824Y496D01*
X2812Y496D01*
X2812Y500D01*
X2824Y500D01*
G37*
D02*
G36*
X3441Y496D02*
X3441Y492D01*
X3437Y492D01*
X3437Y496D01*
X3441Y496D01*
G37*
D02*
G36*
X3421Y496D02*
X3421Y492D01*
X3413Y492D01*
X3413Y496D01*
X3421Y496D01*
G37*
D02*
G36*
X3408Y496D02*
X3408Y492D01*
X3364Y492D01*
X3364Y496D01*
X3408Y496D01*
G37*
D02*
G36*
X3408Y496D02*
X3408Y492D01*
X3364Y492D01*
X3364Y496D01*
X3408Y496D01*
G37*
D02*
G36*
X3348Y496D02*
X3348Y488D01*
X3344Y488D01*
X3344Y492D01*
X3339Y492D01*
X3339Y496D01*
X3348Y496D01*
G37*
D02*
G36*
X3331Y496D02*
X3331Y492D01*
X3315Y492D01*
X3315Y496D01*
X3331Y496D01*
G37*
D02*
G36*
X3331Y496D02*
X3331Y492D01*
X3315Y492D01*
X3315Y496D01*
X3331Y496D01*
G37*
D02*
G36*
X2865Y496D02*
X2865Y492D01*
X2845Y492D01*
X2845Y496D01*
X2865Y496D01*
G37*
D02*
G36*
X2865Y496D02*
X2865Y492D01*
X2845Y492D01*
X2845Y496D01*
X2865Y496D01*
G37*
D02*
G36*
X2865Y496D02*
X2865Y492D01*
X2845Y492D01*
X2845Y496D01*
X2865Y496D01*
G37*
D02*
G36*
X3449Y492D02*
X3449Y488D01*
X3437Y488D01*
X3437Y492D01*
X3449Y492D01*
G37*
D02*
G36*
X3449Y492D02*
X3449Y488D01*
X3437Y488D01*
X3437Y492D01*
X3449Y492D01*
G37*
D02*
G36*
X3433Y492D02*
X3433Y488D01*
X3417Y488D01*
X3417Y492D01*
X3433Y492D01*
G37*
D02*
G36*
X3433Y492D02*
X3433Y488D01*
X3417Y488D01*
X3417Y492D01*
X3433Y492D01*
G37*
D02*
G36*
X3376Y492D02*
X3376Y488D01*
X3372Y488D01*
X3372Y492D01*
X3376Y492D01*
G37*
D02*
G36*
X3339Y492D02*
X3339Y488D01*
X3327Y488D01*
X3327Y492D01*
X3339Y492D01*
G37*
D02*
G36*
X3319Y492D02*
X3319Y488D01*
X3307Y488D01*
X3307Y492D01*
X3319Y492D01*
G37*
D02*
G36*
X2877Y492D02*
X2877Y488D01*
X2865Y488D01*
X2865Y492D01*
X2877Y492D01*
G37*
D02*
G36*
X2861Y492D02*
X2861Y488D01*
X2857Y488D01*
X2857Y492D01*
X2861Y492D01*
G37*
D02*
G36*
X2853Y492D02*
X2853Y488D01*
X2812Y488D01*
X2812Y492D01*
X2853Y492D01*
G37*
D02*
G36*
X3356Y488D02*
X3356Y484D01*
X3348Y484D01*
X3348Y488D01*
X3356Y488D01*
G37*
D02*
G36*
X3344Y488D02*
X3344Y484D01*
X3335Y484D01*
X3335Y488D01*
X3344Y488D01*
G37*
D02*
G36*
X3465Y500D02*
X3465Y492D01*
X3469Y492D01*
X3469Y488D01*
X3465Y488D01*
X3465Y484D01*
X3461Y484D01*
X3461Y492D01*
X3457Y492D01*
X3457Y496D01*
X3461Y496D01*
X3461Y500D01*
X3465Y500D01*
G37*
D02*
G36*
X2881Y496D02*
X2881Y492D01*
X2877Y492D01*
X2877Y496D01*
X2881Y496D01*
G37*
D02*
G36*
X3457Y492D02*
X3457Y488D01*
X3453Y488D01*
X3453Y492D01*
X3457Y492D01*
G37*
D02*
G36*
X3413Y492D02*
X3413Y488D01*
X3408Y488D01*
X3408Y492D01*
X3413Y492D01*
G37*
D02*
G36*
X3364Y492D02*
X3364Y488D01*
X3360Y488D01*
X3360Y492D01*
X3364Y492D01*
G37*
D02*
G36*
X3303Y492D02*
X3303Y488D01*
X3299Y488D01*
X3299Y492D01*
X3303Y492D01*
G37*
D02*
G36*
X2885Y492D02*
X2885Y488D01*
X2881Y488D01*
X2881Y492D01*
X2885Y492D01*
G37*
D02*
G36*
X3473Y488D02*
X3473Y484D01*
X3469Y484D01*
X3469Y488D01*
X3473Y488D01*
G37*
D02*
G36*
X3469Y484D02*
X3469Y480D01*
X3473Y480D01*
X3473Y476D01*
X3469Y476D01*
X3469Y472D01*
X3465Y472D01*
X3465Y468D01*
X3469Y468D01*
X3469Y464D01*
X3465Y464D01*
X3465Y460D01*
X3457Y460D01*
X3457Y464D01*
X3461Y464D01*
X3461Y476D01*
X3465Y476D01*
X3465Y484D01*
X3469Y484D01*
G37*
D02*
G36*
X3453Y464D02*
X3453Y460D01*
X3449Y460D01*
X3449Y464D01*
X3453Y464D01*
G37*
D02*
G36*
X3445Y464D02*
X3445Y460D01*
X3437Y460D01*
X3437Y464D01*
X3445Y464D01*
G37*
D02*
G36*
X3461Y460D02*
X3461Y456D01*
X3441Y456D01*
X3441Y460D01*
X3461Y460D01*
G37*
D02*
G36*
X3461Y460D02*
X3461Y456D01*
X3441Y456D01*
X3441Y460D01*
X3461Y460D01*
G37*
D02*
G36*
X3461Y460D02*
X3461Y456D01*
X3441Y456D01*
X3441Y460D01*
X3461Y460D01*
G37*
D02*
G36*
X3457Y456D02*
X3457Y452D01*
X3453Y452D01*
X3453Y456D01*
X3457Y456D01*
G37*
D02*
G36*
X3449Y456D02*
X3449Y452D01*
X3445Y452D01*
X3445Y456D01*
X3449Y456D01*
G37*
D02*
G36*
X3461Y484D02*
X3461Y480D01*
X3457Y480D01*
X3457Y484D01*
X3461Y484D01*
G37*
D02*
G36*
X3473Y472D02*
X3473Y468D01*
X3469Y468D01*
X3469Y472D01*
X3473Y472D01*
G37*
D02*
G36*
X2508Y472D02*
X2508Y468D01*
X2500Y468D01*
X2500Y472D01*
X2508Y472D01*
G37*
D02*
G36*
X2459Y472D02*
X2459Y464D01*
X2451Y464D01*
X2451Y468D01*
X2455Y468D01*
X2455Y472D01*
X2459Y472D01*
G37*
D02*
G36*
X2447Y472D02*
X2447Y468D01*
X2439Y468D01*
X2439Y472D01*
X2447Y472D01*
G37*
D02*
G36*
X3352Y468D02*
X3352Y464D01*
X3348Y464D01*
X3348Y468D01*
X3352Y468D01*
G37*
D02*
G36*
X3344Y468D02*
X3344Y464D01*
X3339Y464D01*
X3339Y468D01*
X3344Y468D01*
G37*
D02*
G36*
X2488Y468D02*
X2488Y464D01*
X2484Y464D01*
X2484Y468D01*
X2488Y468D01*
G37*
D02*
G36*
X3421Y464D02*
X3421Y460D01*
X3413Y460D01*
X3413Y464D01*
X3421Y464D01*
G37*
D02*
G36*
X3408Y464D02*
X3408Y460D01*
X3376Y460D01*
X3376Y464D01*
X3408Y464D01*
G37*
D02*
G36*
X2492Y464D02*
X2492Y460D01*
X2488Y460D01*
X2488Y464D01*
X2492Y464D01*
G37*
D02*
G36*
X3473Y460D02*
X3473Y452D01*
X3469Y452D01*
X3469Y456D01*
X3465Y456D01*
X3465Y460D01*
X3473Y460D01*
G37*
D02*
G36*
X3413Y460D02*
X3413Y456D01*
X3408Y456D01*
X3408Y460D01*
X3413Y460D01*
G37*
D02*
G36*
X3433Y464D02*
X3433Y456D01*
X3429Y456D01*
X3429Y448D01*
X3421Y448D01*
X3421Y452D01*
X3413Y452D01*
X3413Y456D01*
X3421Y456D01*
X3421Y460D01*
X3429Y460D01*
X3429Y464D01*
X3433Y464D01*
G37*
D02*
G36*
X3364Y464D02*
X3364Y460D01*
X3376Y460D01*
X3376Y456D01*
X3364Y456D01*
X3364Y448D01*
X3360Y448D01*
X3360Y464D01*
X3364Y464D01*
G37*
D02*
G36*
X3356Y464D02*
X3356Y448D01*
X3352Y448D01*
X3352Y452D01*
X3348Y452D01*
X3348Y456D01*
X3344Y456D01*
X3344Y460D01*
X3352Y460D01*
X3352Y464D01*
X3356Y464D01*
G37*
D02*
G36*
X3339Y464D02*
X3339Y456D01*
X3327Y456D01*
X3327Y460D01*
X3323Y460D01*
X3323Y464D01*
X3339Y464D01*
G37*
D02*
G36*
X3319Y464D02*
X3319Y456D01*
X3315Y456D01*
X3315Y464D01*
X3319Y464D01*
G37*
D02*
G36*
X3465Y456D02*
X3465Y448D01*
X3457Y448D01*
X3457Y452D01*
X3461Y452D01*
X3461Y456D01*
X3465Y456D01*
G37*
D02*
G36*
X3441Y456D02*
X3441Y452D01*
X3437Y452D01*
X3437Y448D01*
X3433Y448D01*
X3433Y456D01*
X3441Y456D01*
G37*
D02*
G36*
X3408Y456D02*
X3408Y452D01*
X3376Y452D01*
X3376Y456D01*
X3408Y456D01*
G37*
D02*
G36*
X3372Y456D02*
X3372Y452D01*
X3368Y452D01*
X3368Y456D01*
X3372Y456D01*
G37*
D02*
G36*
X3344Y456D02*
X3344Y452D01*
X3339Y452D01*
X3339Y456D01*
X3344Y456D01*
G37*
D02*
G36*
X3331Y456D02*
X3331Y452D01*
X3315Y452D01*
X3315Y456D01*
X3331Y456D01*
G37*
D02*
G36*
X3331Y456D02*
X3331Y452D01*
X3315Y452D01*
X3315Y456D01*
X3331Y456D01*
G37*
D02*
G36*
X3453Y452D02*
X3453Y448D01*
X3449Y448D01*
X3449Y452D01*
X3453Y452D01*
G37*
D02*
G36*
X3445Y452D02*
X3445Y448D01*
X3441Y448D01*
X3441Y452D01*
X3445Y452D01*
G37*
D02*
G36*
X3413Y452D02*
X3413Y448D01*
X3372Y448D01*
X3372Y452D01*
X3413Y452D01*
G37*
D02*
G36*
X3348Y452D02*
X3348Y448D01*
X3339Y448D01*
X3339Y452D01*
X3348Y452D01*
G37*
D02*
G36*
X3335Y452D02*
X3335Y448D01*
X3327Y448D01*
X3327Y452D01*
X3335Y452D01*
G37*
D02*
G36*
X3315Y452D02*
X3315Y448D01*
X3303Y448D01*
X3303Y452D01*
X3315Y452D01*
G37*
D02*
G36*
X3473Y448D02*
X3473Y444D01*
X3303Y444D01*
X3303Y448D01*
X3473Y448D01*
G37*
D02*
G36*
X3473Y448D02*
X3473Y444D01*
X3303Y444D01*
X3303Y448D01*
X3473Y448D01*
G37*
D02*
G36*
X3473Y448D02*
X3473Y444D01*
X3303Y444D01*
X3303Y448D01*
X3473Y448D01*
G37*
D02*
G36*
X3473Y448D02*
X3473Y444D01*
X3303Y444D01*
X3303Y448D01*
X3473Y448D01*
G37*
D02*
G36*
X3473Y448D02*
X3473Y444D01*
X3303Y444D01*
X3303Y448D01*
X3473Y448D01*
G37*
D02*
G36*
X3473Y448D02*
X3473Y444D01*
X3303Y444D01*
X3303Y448D01*
X3473Y448D01*
G37*
D02*
G36*
X3473Y448D02*
X3473Y444D01*
X3303Y444D01*
X3303Y448D01*
X3473Y448D01*
G37*
D02*
G36*
X3473Y448D02*
X3473Y444D01*
X3303Y444D01*
X3303Y448D01*
X3473Y448D01*
G37*
D02*
G36*
X3473Y448D02*
X3473Y444D01*
X3303Y444D01*
X3303Y448D01*
X3473Y448D01*
G37*
D02*
G36*
X3473Y448D02*
X3473Y444D01*
X3303Y444D01*
X3303Y448D01*
X3473Y448D01*
G37*
D02*
G36*
X3473Y448D02*
X3473Y444D01*
X3303Y444D01*
X3303Y448D01*
X3473Y448D01*
G37*
D02*
G36*
X3473Y444D02*
X3473Y435D01*
X3307Y435D01*
X3307Y431D01*
X3303Y431D01*
X3303Y427D01*
X3295Y427D01*
X3295Y431D01*
X3299Y431D01*
X3299Y435D01*
X3303Y435D01*
X3303Y439D01*
X3307Y439D01*
X3307Y444D01*
X3473Y444D01*
G37*
D02*
G36*
X3226Y444D02*
X3226Y439D01*
X3214Y439D01*
X3214Y444D01*
X3226Y444D01*
G37*
D02*
G36*
X3210Y444D02*
X3210Y439D01*
X3206Y439D01*
X3206Y444D01*
X3210Y444D01*
G37*
D02*
G36*
X3202Y444D02*
X3202Y439D01*
X3198Y439D01*
X3198Y444D01*
X3202Y444D01*
G37*
D02*
G36*
X3193Y444D02*
X3193Y439D01*
X3189Y439D01*
X3189Y444D01*
X3193Y444D01*
G37*
D02*
G36*
X3287Y439D02*
X3287Y435D01*
X3291Y435D01*
X3291Y431D01*
X3287Y431D01*
X3287Y427D01*
X3279Y427D01*
X3279Y431D01*
X3283Y431D01*
X3283Y439D01*
X3287Y439D01*
G37*
D02*
G36*
X3218Y439D02*
X3218Y435D01*
X3206Y435D01*
X3206Y439D01*
X3218Y439D01*
G37*
D02*
G36*
X3218Y439D02*
X3218Y435D01*
X3206Y435D01*
X3206Y439D01*
X3218Y439D01*
G37*
D02*
G36*
X3202Y439D02*
X3202Y435D01*
X3189Y435D01*
X3189Y439D01*
X3202Y439D01*
G37*
D02*
G36*
X3202Y439D02*
X3202Y435D01*
X3189Y435D01*
X3189Y439D01*
X3202Y439D01*
G37*
D02*
G36*
X3473Y435D02*
X3473Y431D01*
X3311Y431D01*
X3311Y435D01*
X3473Y435D01*
G37*
D02*
G36*
X3218Y435D02*
X3218Y431D01*
X3198Y431D01*
X3198Y435D01*
X3218Y435D01*
G37*
D02*
G36*
X3218Y435D02*
X3218Y431D01*
X3198Y431D01*
X3198Y435D01*
X3218Y435D01*
G37*
D02*
G36*
X3193Y435D02*
X3193Y431D01*
X3189Y431D01*
X3189Y435D01*
X3193Y435D01*
G37*
D02*
G36*
X3473Y431D02*
X3473Y427D01*
X3307Y427D01*
X3307Y431D01*
X3473Y431D01*
G37*
D02*
G36*
X3222Y431D02*
X3222Y427D01*
X3226Y427D01*
X3226Y423D01*
X3230Y423D01*
X3230Y415D01*
X3226Y415D01*
X3226Y419D01*
X3218Y419D01*
X3218Y427D01*
X3214Y427D01*
X3214Y431D01*
X3222Y431D01*
G37*
D02*
G36*
X3210Y431D02*
X3210Y423D01*
X3206Y423D01*
X3206Y415D01*
X3202Y415D01*
X3202Y423D01*
X3206Y423D01*
X3206Y427D01*
X3202Y427D01*
X3202Y431D01*
X3210Y431D01*
G37*
D02*
G36*
X3473Y427D02*
X3473Y419D01*
X3307Y419D01*
X3307Y423D01*
X3303Y423D01*
X3303Y427D01*
X3473Y427D01*
G37*
D02*
G36*
X3295Y427D02*
X3295Y423D01*
X3287Y423D01*
X3287Y419D01*
X3275Y419D01*
X3275Y423D01*
X3279Y423D01*
X3279Y427D01*
X3295Y427D01*
G37*
D02*
G36*
X3262Y427D02*
X3262Y423D01*
X3258Y423D01*
X3258Y419D01*
X3250Y419D01*
X3250Y423D01*
X3254Y423D01*
X3254Y427D01*
X3262Y427D01*
G37*
D02*
G36*
X3242Y427D02*
X3242Y423D01*
X3246Y423D01*
X3246Y419D01*
X3238Y419D01*
X3238Y415D01*
X3234Y415D01*
X3234Y423D01*
X3238Y423D01*
X3238Y427D01*
X3242Y427D01*
G37*
D02*
G36*
X3193Y427D02*
X3193Y419D01*
X3198Y419D01*
X3198Y415D01*
X3185Y415D01*
X3185Y419D01*
X3189Y419D01*
X3189Y427D01*
X3193Y427D01*
G37*
D02*
G36*
X3299Y423D02*
X3299Y419D01*
X3291Y419D01*
X3291Y423D01*
X3299Y423D01*
G37*
D02*
G36*
X3214Y423D02*
X3214Y419D01*
X3210Y419D01*
X3210Y423D01*
X3214Y423D01*
G37*
D02*
G36*
X3473Y419D02*
X3473Y415D01*
X3299Y415D01*
X3299Y419D01*
X3473Y419D01*
G37*
D02*
G36*
X3295Y419D02*
X3295Y415D01*
X3283Y415D01*
X3283Y419D01*
X3295Y419D01*
G37*
D02*
G36*
X3295Y419D02*
X3295Y415D01*
X3283Y415D01*
X3283Y419D01*
X3295Y419D01*
G37*
D02*
G36*
X3271Y419D02*
X3271Y415D01*
X3266Y415D01*
X3266Y419D01*
X3271Y419D01*
G37*
D02*
G36*
X3262Y419D02*
X3262Y415D01*
X3246Y415D01*
X3246Y419D01*
X3262Y419D01*
G37*
D02*
G36*
X3218Y419D02*
X3218Y415D01*
X3210Y415D01*
X3210Y419D01*
X3218Y419D01*
G37*
D02*
G36*
X3473Y415D02*
X3473Y411D01*
X3181Y411D01*
X3181Y415D01*
X3473Y415D01*
G37*
D02*
G36*
X3473Y415D02*
X3473Y411D01*
X3181Y411D01*
X3181Y415D01*
X3473Y415D01*
G37*
D02*
G36*
X3473Y415D02*
X3473Y411D01*
X3181Y411D01*
X3181Y415D01*
X3473Y415D01*
G37*
D02*
G36*
X3473Y415D02*
X3473Y411D01*
X3181Y411D01*
X3181Y415D01*
X3473Y415D01*
G37*
D02*
G36*
X3473Y415D02*
X3473Y411D01*
X3181Y411D01*
X3181Y415D01*
X3473Y415D01*
G37*
D02*
G36*
X3473Y415D02*
X3473Y411D01*
X3181Y411D01*
X3181Y415D01*
X3473Y415D01*
G37*
D02*
G36*
X3473Y415D02*
X3473Y411D01*
X3181Y411D01*
X3181Y415D01*
X3473Y415D01*
G37*
D02*
G36*
X3473Y415D02*
X3473Y411D01*
X3181Y411D01*
X3181Y415D01*
X3473Y415D01*
G37*
D02*
G36*
X3473Y415D02*
X3473Y411D01*
X3181Y411D01*
X3181Y415D01*
X3473Y415D01*
G37*
D02*
G36*
X3473Y411D02*
X3473Y358D01*
X3181Y358D01*
X3181Y383D01*
X3177Y383D01*
X3177Y387D01*
X3181Y387D01*
X3181Y395D01*
X3177Y395D01*
X3177Y403D01*
X3181Y403D01*
X3181Y411D01*
X3473Y411D01*
G37*
D02*
G36*
X3177Y362D02*
X3177Y358D01*
X3173Y358D01*
X3173Y362D01*
X3177Y362D01*
G37*
D02*
G36*
X3473Y358D02*
X3473Y354D01*
X3173Y354D01*
X3173Y358D01*
X3473Y358D01*
G37*
D02*
G36*
X3473Y358D02*
X3473Y354D01*
X3173Y354D01*
X3173Y358D01*
X3473Y358D01*
G37*
D02*
G36*
X3473Y354D02*
X3473Y350D01*
X3181Y350D01*
X3181Y354D01*
X3473Y354D01*
G37*
D02*
G36*
X3177Y354D02*
X3177Y350D01*
X3173Y350D01*
X3173Y346D01*
X3169Y346D01*
X3169Y350D01*
X3173Y350D01*
X3173Y354D01*
X3177Y354D01*
G37*
D02*
G36*
X3473Y350D02*
X3473Y342D01*
X3181Y342D01*
X3181Y346D01*
X3177Y346D01*
X3177Y350D01*
X3473Y350D01*
G37*
D02*
G36*
X3177Y346D02*
X3177Y342D01*
X3169Y342D01*
X3169Y346D01*
X3177Y346D01*
G37*
D02*
G36*
X3473Y342D02*
X3473Y338D01*
X3161Y338D01*
X3161Y342D01*
X3473Y342D01*
G37*
D02*
G36*
X3473Y342D02*
X3473Y338D01*
X3161Y338D01*
X3161Y342D01*
X3473Y342D01*
G37*
D02*
G36*
X3473Y338D02*
X3473Y334D01*
X3181Y334D01*
X3181Y338D01*
X3473Y338D01*
G37*
D02*
G36*
X3177Y338D02*
X3177Y334D01*
X3173Y334D01*
X3173Y330D01*
X3169Y330D01*
X3169Y334D01*
X3165Y334D01*
X3165Y338D01*
X3177Y338D01*
G37*
D02*
G36*
X3473Y334D02*
X3473Y330D01*
X3177Y330D01*
X3177Y334D01*
X3473Y334D01*
G37*
D02*
G36*
X3473Y330D02*
X3473Y326D01*
X3165Y326D01*
X3165Y330D01*
X3473Y330D01*
G37*
D02*
G36*
X3473Y330D02*
X3473Y326D01*
X3165Y326D01*
X3165Y330D01*
X3473Y330D01*
G37*
D02*
G36*
X3161Y330D02*
X3161Y326D01*
X3153Y326D01*
X3153Y330D01*
X3161Y330D01*
G37*
D02*
G36*
X3473Y326D02*
X3473Y322D01*
X3173Y322D01*
X3173Y318D01*
X3169Y318D01*
X3169Y326D01*
X3473Y326D01*
G37*
D02*
G36*
X3165Y326D02*
X3165Y322D01*
X3153Y322D01*
X3153Y318D01*
X3145Y318D01*
X3145Y322D01*
X3153Y322D01*
X3153Y326D01*
X3165Y326D01*
G37*
D02*
G36*
X3473Y322D02*
X3473Y318D01*
X3177Y318D01*
X3177Y322D01*
X3473Y322D01*
G37*
D02*
G36*
X3165Y322D02*
X3165Y318D01*
X3161Y318D01*
X3161Y322D01*
X3165Y322D01*
G37*
D02*
G36*
X3141Y322D02*
X3141Y318D01*
X3137Y318D01*
X3137Y322D01*
X3141Y322D01*
G37*
D02*
G36*
X3129Y322D02*
X3129Y318D01*
X3124Y318D01*
X3124Y322D01*
X3129Y322D01*
G37*
D02*
G36*
X3473Y318D02*
X3473Y314D01*
X3108Y314D01*
X3108Y318D01*
X3473Y318D01*
G37*
D02*
G36*
X3473Y318D02*
X3473Y314D01*
X3108Y314D01*
X3108Y318D01*
X3473Y318D01*
G37*
D02*
G36*
X3473Y318D02*
X3473Y314D01*
X3108Y314D01*
X3108Y318D01*
X3473Y318D01*
G37*
D02*
G36*
X3473Y318D02*
X3473Y314D01*
X3108Y314D01*
X3108Y318D01*
X3473Y318D01*
G37*
D02*
G36*
X3473Y318D02*
X3473Y314D01*
X3108Y314D01*
X3108Y318D01*
X3473Y318D01*
G37*
D02*
G36*
X3473Y318D02*
X3473Y314D01*
X3108Y314D01*
X3108Y318D01*
X3473Y318D01*
G37*
D02*
G36*
X3473Y314D02*
X3473Y310D01*
X3116Y310D01*
X3116Y314D01*
X3473Y314D01*
G37*
D02*
G36*
X3112Y314D02*
X3112Y310D01*
X3108Y310D01*
X3108Y314D01*
X3112Y314D01*
G37*
D02*
G36*
X3473Y310D02*
X3473Y302D01*
X3112Y302D01*
X3112Y293D01*
X3108Y293D01*
X3108Y306D01*
X3112Y306D01*
X3112Y310D01*
X3473Y310D01*
G37*
D02*
G36*
X3473Y302D02*
X3473Y293D01*
X3116Y293D01*
X3116Y302D01*
X3473Y302D01*
G37*
D02*
G36*
X3473Y293D02*
X3473Y285D01*
X3112Y285D01*
X3112Y277D01*
X3108Y277D01*
X3108Y285D01*
X3112Y285D01*
X3112Y293D01*
X3473Y293D01*
G37*
D02*
G36*
X3473Y285D02*
X3473Y277D01*
X3116Y277D01*
X3116Y285D01*
X3473Y285D01*
G37*
D02*
G36*
X3473Y277D02*
X3473Y273D01*
X3108Y273D01*
X3108Y277D01*
X3473Y277D01*
G37*
D02*
G36*
X3473Y277D02*
X3473Y273D01*
X3108Y273D01*
X3108Y277D01*
X3473Y277D01*
G37*
D02*
G36*
X3473Y273D02*
X3473Y265D01*
X3116Y265D01*
X3116Y269D01*
X3112Y269D01*
X3112Y273D01*
X3473Y273D01*
G37*
D02*
G36*
X3108Y273D02*
X3108Y269D01*
X3104Y269D01*
X3104Y273D01*
X3108Y273D01*
G37*
D02*
G36*
X3112Y269D02*
X3112Y265D01*
X3104Y265D01*
X3104Y269D01*
X3112Y269D01*
G37*
D02*
G36*
X3473Y265D02*
X3473Y261D01*
X3108Y261D01*
X3108Y265D01*
X3473Y265D01*
G37*
D02*
G36*
X3473Y265D02*
X3473Y261D01*
X3108Y261D01*
X3108Y265D01*
X3473Y265D01*
G37*
D02*
G36*
X3100Y265D02*
X3100Y261D01*
X3096Y261D01*
X3096Y265D01*
X3100Y265D01*
G37*
D02*
G36*
X3473Y261D02*
X3473Y257D01*
X3116Y257D01*
X3116Y261D01*
X3473Y261D01*
G37*
D02*
G36*
X3112Y261D02*
X3112Y257D01*
X3096Y257D01*
X3096Y261D01*
X3112Y261D01*
G37*
D02*
G36*
X3112Y261D02*
X3112Y257D01*
X3096Y257D01*
X3096Y261D01*
X3112Y261D01*
G37*
D02*
G36*
X3473Y257D02*
X3473Y253D01*
X3112Y253D01*
X3112Y257D01*
X3473Y257D01*
G37*
D02*
G36*
X3104Y257D02*
X3104Y253D01*
X3100Y253D01*
X3100Y257D01*
X3104Y257D01*
G37*
D02*
G36*
X3473Y253D02*
X3473Y249D01*
X3084Y249D01*
X3084Y253D01*
X3473Y253D01*
G37*
D02*
G36*
X3473Y253D02*
X3473Y249D01*
X3084Y249D01*
X3084Y253D01*
X3473Y253D01*
G37*
D02*
G36*
X3473Y249D02*
X3473Y208D01*
X3080Y208D01*
X3080Y204D01*
X3068Y204D01*
X3068Y208D01*
X3076Y208D01*
X3076Y212D01*
X3080Y212D01*
X3080Y224D01*
X3084Y224D01*
X3084Y233D01*
X3080Y233D01*
X3080Y237D01*
X3084Y237D01*
X3084Y249D01*
X3473Y249D01*
G37*
D02*
G36*
X3473Y208D02*
X3473Y204D01*
X3084Y204D01*
X3084Y208D01*
X3473Y208D01*
G37*
D02*
G36*
X3064Y208D02*
X3064Y204D01*
X3060Y204D01*
X3060Y208D01*
X3064Y208D01*
G37*
D02*
G36*
X3473Y204D02*
X3473Y200D01*
X3076Y200D01*
X3076Y204D01*
X3473Y204D01*
G37*
D02*
G36*
X3473Y204D02*
X3473Y200D01*
X3076Y200D01*
X3076Y204D01*
X3473Y204D01*
G37*
D02*
G36*
X3072Y204D02*
X3072Y200D01*
X3060Y200D01*
X3060Y204D01*
X3072Y204D01*
G37*
D02*
G36*
X3072Y204D02*
X3072Y200D01*
X3060Y200D01*
X3060Y204D01*
X3072Y204D01*
G37*
D02*
G36*
X3473Y200D02*
X3473Y192D01*
X3080Y192D01*
X3080Y188D01*
X3076Y188D01*
X3076Y192D01*
X3080Y192D01*
X3080Y196D01*
X3084Y196D01*
X3084Y200D01*
X3473Y200D01*
G37*
D02*
G36*
X3072Y200D02*
X3072Y196D01*
X3068Y196D01*
X3068Y200D01*
X3072Y200D01*
G37*
D02*
G36*
X3060Y200D02*
X3060Y196D01*
X3056Y196D01*
X3056Y200D01*
X3060Y200D01*
G37*
D02*
G36*
X3068Y196D02*
X3068Y192D01*
X3056Y192D01*
X3056Y188D01*
X3047Y188D01*
X3047Y192D01*
X3051Y192D01*
X3051Y196D01*
X3068Y196D01*
G37*
D02*
G36*
X3473Y192D02*
X3473Y188D01*
X3084Y188D01*
X3084Y192D01*
X3473Y192D01*
G37*
D02*
G36*
X3072Y192D02*
X3072Y188D01*
X3068Y188D01*
X3068Y192D01*
X3072Y192D01*
G37*
D02*
G36*
X3064Y192D02*
X3064Y188D01*
X3060Y188D01*
X3060Y192D01*
X3064Y192D01*
G37*
D02*
G36*
X3473Y188D02*
X3473Y184D01*
X3051Y184D01*
X3051Y188D01*
X3473Y188D01*
G37*
D02*
G36*
X3473Y188D02*
X3473Y184D01*
X3051Y184D01*
X3051Y188D01*
X3473Y188D01*
G37*
D02*
G36*
X3473Y188D02*
X3473Y184D01*
X3051Y184D01*
X3051Y188D01*
X3473Y188D01*
G37*
D02*
G36*
X3473Y188D02*
X3473Y184D01*
X3051Y184D01*
X3051Y188D01*
X3473Y188D01*
G37*
D02*
G36*
X3473Y188D02*
X3473Y184D01*
X3051Y184D01*
X3051Y188D01*
X3473Y188D01*
G37*
D02*
G36*
X3473Y184D02*
X3473Y160D01*
X3051Y160D01*
X3051Y172D01*
X3047Y172D01*
X3047Y176D01*
X3051Y176D01*
X3051Y180D01*
X3047Y180D01*
X3047Y184D01*
X3473Y184D01*
G37*
D02*
G36*
X3043Y176D02*
X3043Y172D01*
X3039Y172D01*
X3039Y168D01*
X3035Y168D01*
X3035Y160D01*
X3027Y160D01*
X3027Y164D01*
X3031Y164D01*
X3031Y172D01*
X3035Y172D01*
X3035Y176D01*
X3043Y176D01*
G37*
D02*
G36*
X3047Y172D02*
X3047Y160D01*
X3039Y160D01*
X3039Y164D01*
X3043Y164D01*
X3043Y172D01*
X3047Y172D01*
G37*
D02*
G36*
X3473Y160D02*
X3473Y156D01*
X3043Y156D01*
X3043Y160D01*
X3473Y160D01*
G37*
D02*
G36*
X3473Y160D02*
X3473Y156D01*
X3043Y156D01*
X3043Y160D01*
X3473Y160D01*
G37*
D02*
G36*
X3039Y160D02*
X3039Y156D01*
X3019Y156D01*
X3019Y160D01*
X3039Y160D01*
G37*
D02*
G36*
X3473Y156D02*
X3473Y151D01*
X3019Y151D01*
X3019Y156D01*
X3473Y156D01*
G37*
D02*
G36*
X3473Y156D02*
X3473Y151D01*
X3019Y151D01*
X3019Y156D01*
X3473Y156D01*
G37*
D02*
G36*
X3473Y151D02*
X3473Y147D01*
X3015Y147D01*
X3015Y143D01*
X3007Y143D01*
X3007Y139D01*
X3003Y139D01*
X3003Y143D01*
X3007Y143D01*
X3007Y147D01*
X3015Y147D01*
X3015Y151D01*
X3473Y151D01*
G37*
D02*
G36*
X3473Y147D02*
X3473Y143D01*
X3019Y143D01*
X3019Y147D01*
X3473Y147D01*
G37*
D02*
G36*
X3473Y143D02*
X3473Y139D01*
X3011Y139D01*
X3011Y143D01*
X3473Y143D01*
G37*
D02*
G36*
X3473Y143D02*
X3473Y139D01*
X3011Y139D01*
X3011Y143D01*
X3473Y143D01*
G37*
D02*
G36*
X3473Y139D02*
X3473Y127D01*
X3019Y127D01*
X3019Y131D01*
X3015Y131D01*
X3015Y135D01*
X3019Y135D01*
X3019Y139D01*
X3473Y139D01*
G37*
D02*
G36*
X3011Y139D02*
X3011Y135D01*
X3003Y135D01*
X3003Y131D01*
X2999Y131D01*
X2999Y135D01*
X3003Y135D01*
X3003Y139D01*
X3011Y139D01*
G37*
D02*
G36*
X3011Y135D02*
X3011Y131D01*
X3007Y131D01*
X3007Y135D01*
X3011Y135D01*
G37*
D02*
G36*
X3015Y131D02*
X3015Y127D01*
X2995Y127D01*
X2995Y131D01*
X3015Y131D01*
G37*
D02*
G36*
X3015Y131D02*
X3015Y127D01*
X2995Y127D01*
X2995Y131D01*
X3015Y131D01*
G37*
D02*
G36*
X2991Y131D02*
X2991Y119D01*
X2987Y119D01*
X2987Y115D01*
X2978Y115D01*
X2978Y119D01*
X2958Y119D01*
X2958Y123D01*
X2978Y123D01*
X2978Y127D01*
X2987Y127D01*
X2987Y131D01*
X2991Y131D01*
G37*
D02*
G36*
X3473Y127D02*
X3473Y119D01*
X3019Y119D01*
X3019Y123D01*
X3015Y123D01*
X3015Y127D01*
X3473Y127D01*
G37*
D02*
G36*
X3011Y127D02*
X3011Y123D01*
X3003Y123D01*
X3003Y127D01*
X3011Y127D01*
G37*
D02*
G36*
X2999Y127D02*
X2999Y123D01*
X2995Y123D01*
X2995Y127D01*
X2999Y127D01*
G37*
D02*
G36*
X3011Y123D02*
X3011Y119D01*
X2999Y119D01*
X2999Y123D01*
X3011Y123D01*
G37*
D02*
G36*
X2954Y123D02*
X2954Y119D01*
X2922Y119D01*
X2922Y123D01*
X2954Y123D01*
G37*
D02*
G36*
X3473Y119D02*
X3473Y115D01*
X2995Y115D01*
X2995Y119D01*
X3473Y119D01*
G37*
D02*
G36*
X3473Y119D02*
X3473Y115D01*
X2995Y115D01*
X2995Y119D01*
X3473Y119D01*
G37*
D02*
G36*
X2958Y119D02*
X2958Y115D01*
X2922Y115D01*
X2922Y111D01*
X2918Y111D01*
X2918Y107D01*
X2909Y107D01*
X2909Y111D01*
X2914Y111D01*
X2914Y115D01*
X2918Y115D01*
X2918Y119D01*
X2958Y119D01*
G37*
D02*
G36*
X3473Y115D02*
X3473Y111D01*
X3051Y111D01*
X3051Y115D01*
X3473Y115D01*
G37*
D02*
G36*
X3043Y115D02*
X3043Y111D01*
X3015Y111D01*
X3015Y115D01*
X3043Y115D01*
G37*
D02*
G36*
X3003Y115D02*
X3003Y111D01*
X2987Y111D01*
X2987Y115D01*
X3003Y115D01*
G37*
D02*
G36*
X2983Y115D02*
X2983Y111D01*
X2938Y111D01*
X2938Y115D01*
X2983Y115D01*
G37*
D02*
G36*
X2983Y115D02*
X2983Y111D01*
X2938Y111D01*
X2938Y115D01*
X2983Y115D01*
G37*
D02*
G36*
X3473Y111D02*
X3473Y107D01*
X3035Y107D01*
X3035Y111D01*
X3473Y111D01*
G37*
D02*
G36*
X3473Y111D02*
X3473Y107D01*
X3035Y107D01*
X3035Y111D01*
X3473Y111D01*
G37*
D02*
G36*
X3019Y111D02*
X3019Y107D01*
X2991Y107D01*
X2991Y111D01*
X3019Y111D01*
G37*
D02*
G36*
X3019Y111D02*
X3019Y107D01*
X2991Y107D01*
X2991Y111D01*
X3019Y111D01*
G37*
D02*
G36*
X2987Y111D02*
X2987Y107D01*
X2974Y107D01*
X2974Y111D01*
X2987Y111D01*
G37*
D02*
G36*
X2958Y111D02*
X2958Y107D01*
X2930Y107D01*
X2930Y111D01*
X2958Y111D01*
G37*
D02*
G36*
X3473Y107D02*
X3473Y103D01*
X3043Y103D01*
X3043Y107D01*
X3473Y107D01*
G37*
D02*
G36*
X3027Y107D02*
X3027Y103D01*
X3019Y103D01*
X3019Y107D01*
X3027Y107D01*
G37*
D02*
G36*
X3015Y107D02*
X3015Y103D01*
X3003Y103D01*
X3003Y107D01*
X3015Y107D01*
G37*
D02*
G36*
X2999Y107D02*
X2999Y103D01*
X2983Y103D01*
X2983Y107D01*
X2999Y107D01*
G37*
D02*
G36*
X2999Y107D02*
X2999Y103D01*
X2983Y103D01*
X2983Y107D01*
X2999Y107D01*
G37*
D02*
G36*
X2974Y107D02*
X2974Y103D01*
X2954Y103D01*
X2954Y99D01*
X2938Y99D01*
X2938Y95D01*
X2918Y95D01*
X2918Y91D01*
X2914Y91D01*
X2914Y99D01*
X2909Y99D01*
X2909Y103D01*
X2922Y103D01*
X2922Y107D01*
X2974Y107D01*
G37*
D02*
G36*
X3473Y103D02*
X3473Y99D01*
X2962Y99D01*
X2962Y103D01*
X3473Y103D01*
G37*
D02*
G36*
X3473Y103D02*
X3473Y99D01*
X2962Y99D01*
X2962Y103D01*
X3473Y103D01*
G37*
D02*
G36*
X3473Y103D02*
X3473Y99D01*
X2962Y99D01*
X2962Y103D01*
X3473Y103D01*
G37*
D02*
G36*
X3473Y103D02*
X3473Y99D01*
X2962Y99D01*
X2962Y103D01*
X3473Y103D01*
G37*
D02*
G36*
X3473Y103D02*
X3473Y99D01*
X2962Y99D01*
X2962Y103D01*
X3473Y103D01*
G37*
D02*
G36*
X3473Y99D02*
X3473Y95D01*
X3047Y95D01*
X3047Y91D01*
X3035Y91D01*
X3035Y95D01*
X3027Y95D01*
X3027Y99D01*
X3473Y99D01*
G37*
D02*
G36*
X3019Y99D02*
X3019Y95D01*
X3015Y95D01*
X3015Y99D01*
X3019Y99D01*
G37*
D02*
G36*
X3007Y99D02*
X3007Y95D01*
X2999Y95D01*
X2999Y99D01*
X3007Y99D01*
G37*
D02*
G36*
X2983Y99D02*
X2983Y95D01*
X2970Y95D01*
X2970Y99D01*
X2983Y99D01*
G37*
D02*
G36*
X3473Y95D02*
X3473Y91D01*
X3421Y91D01*
X3421Y82D01*
X3319Y82D01*
X3319Y91D01*
X3051Y91D01*
X3051Y95D01*
X3473Y95D01*
G37*
D02*
G36*
X2926Y95D02*
X2926Y91D01*
X2922Y91D01*
X2922Y95D01*
X2926Y95D01*
G37*
D02*
G36*
X3473Y91D02*
X3473Y82D01*
X3429Y82D01*
X3429Y91D01*
X3473Y91D01*
G37*
D02*
G36*
X3279Y91D02*
X3279Y87D01*
X3031Y87D01*
X3031Y91D01*
X3279Y91D01*
G37*
D02*
G36*
X3279Y91D02*
X3279Y87D01*
X3031Y87D01*
X3031Y91D01*
X3279Y91D01*
G37*
D02*
G36*
X2954Y91D02*
X2954Y82D01*
X2922Y82D01*
X2922Y87D01*
X2918Y87D01*
X2918Y91D01*
X2954Y91D01*
G37*
D02*
G36*
X3279Y87D02*
X3279Y82D01*
X3027Y82D01*
X3027Y87D01*
X3279Y87D01*
G37*
D02*
G36*
X3299Y452D02*
X3299Y439D01*
X3295Y439D01*
X3295Y444D01*
X3291Y444D01*
X3291Y448D01*
X3295Y448D01*
X3295Y452D01*
X3299Y452D01*
G37*
D02*
G36*
X3291Y452D02*
X3291Y448D01*
X3287Y448D01*
X3287Y444D01*
X3283Y444D01*
X3283Y452D01*
X3291Y452D01*
G37*
D02*
G36*
X2459Y452D02*
X2459Y448D01*
X2455Y448D01*
X2455Y452D01*
X2459Y452D01*
G37*
D02*
G36*
X3271Y448D02*
X3271Y444D01*
X3266Y444D01*
X3266Y448D01*
X3271Y448D01*
G37*
D02*
G36*
X2877Y448D02*
X2877Y444D01*
X2873Y444D01*
X2873Y448D01*
X2877Y448D01*
G37*
D02*
G36*
X3291Y444D02*
X3291Y439D01*
X3287Y439D01*
X3287Y444D01*
X3291Y444D01*
G37*
D02*
G36*
X3266Y452D02*
X3266Y448D01*
X3262Y448D01*
X3262Y444D01*
X3258Y444D01*
X3258Y439D01*
X3250Y439D01*
X3250Y444D01*
X3254Y444D01*
X3254Y452D01*
X3266Y452D01*
G37*
D02*
G36*
X3266Y444D02*
X3266Y439D01*
X3262Y439D01*
X3262Y444D01*
X3266Y444D01*
G37*
D02*
G36*
X3271Y439D02*
X3271Y435D01*
X3254Y435D01*
X3254Y439D01*
X3271Y439D01*
G37*
D02*
G36*
X3271Y439D02*
X3271Y435D01*
X3254Y435D01*
X3254Y439D01*
X3271Y439D01*
G37*
D02*
G36*
X3271Y435D02*
X3271Y431D01*
X3266Y431D01*
X3266Y435D01*
X3271Y435D01*
G37*
D02*
G36*
X3262Y435D02*
X3262Y431D01*
X3254Y431D01*
X3254Y435D01*
X3262Y435D01*
G37*
D02*
G36*
X3246Y444D02*
X3246Y439D01*
X3242Y439D01*
X3242Y444D01*
X3246Y444D01*
G37*
D02*
G36*
X3234Y444D02*
X3234Y439D01*
X3230Y439D01*
X3230Y444D01*
X3234Y444D01*
G37*
D02*
G36*
X3181Y444D02*
X3181Y439D01*
X3177Y439D01*
X3177Y444D01*
X3181Y444D01*
G37*
D02*
G36*
X2873Y444D02*
X2873Y439D01*
X2869Y439D01*
X2869Y444D01*
X2873Y444D01*
G37*
D02*
G36*
X3295Y439D02*
X3295Y435D01*
X3291Y435D01*
X3291Y439D01*
X3295Y439D01*
G37*
D02*
G36*
X3250Y439D02*
X3250Y435D01*
X3246Y435D01*
X3246Y439D01*
X3250Y439D01*
G37*
D02*
G36*
X3242Y439D02*
X3242Y435D01*
X3246Y435D01*
X3246Y431D01*
X3254Y431D01*
X3254Y427D01*
X3250Y427D01*
X3250Y423D01*
X3246Y423D01*
X3246Y427D01*
X3242Y427D01*
X3242Y431D01*
X3238Y431D01*
X3238Y435D01*
X3234Y435D01*
X3234Y439D01*
X3242Y439D01*
G37*
D02*
G36*
X3173Y444D02*
X3173Y439D01*
X3177Y439D01*
X3177Y435D01*
X3169Y435D01*
X3169Y444D01*
X3173Y444D01*
G37*
D02*
G36*
X3185Y439D02*
X3185Y435D01*
X3181Y435D01*
X3181Y439D01*
X3185Y439D01*
G37*
D02*
G36*
X3185Y435D02*
X3185Y431D01*
X3169Y431D01*
X3169Y435D01*
X3185Y435D01*
G37*
D02*
G36*
X3185Y435D02*
X3185Y431D01*
X3169Y431D01*
X3169Y435D01*
X3185Y435D01*
G37*
D02*
G36*
X3189Y431D02*
X3189Y427D01*
X3185Y427D01*
X3185Y419D01*
X3181Y419D01*
X3181Y423D01*
X3177Y423D01*
X3177Y431D01*
X3189Y431D01*
G37*
D02*
G36*
X2877Y439D02*
X2877Y431D01*
X2869Y431D01*
X2869Y435D01*
X2873Y435D01*
X2873Y439D01*
X2877Y439D01*
G37*
D02*
G36*
X2865Y439D02*
X2865Y431D01*
X2861Y431D01*
X2861Y439D01*
X2865Y439D01*
G37*
D02*
G36*
X2857Y439D02*
X2857Y431D01*
X2861Y431D01*
X2861Y427D01*
X2857Y427D01*
X2857Y423D01*
X2861Y423D01*
X2861Y419D01*
X2853Y419D01*
X2853Y427D01*
X2849Y427D01*
X2849Y435D01*
X2853Y435D01*
X2853Y439D01*
X2857Y439D01*
G37*
D02*
G36*
X2841Y423D02*
X2841Y419D01*
X2836Y419D01*
X2836Y423D01*
X2841Y423D01*
G37*
D02*
G36*
X2857Y419D02*
X2857Y415D01*
X2836Y415D01*
X2836Y419D01*
X2857Y419D01*
G37*
D02*
G36*
X2857Y419D02*
X2857Y415D01*
X2836Y415D01*
X2836Y419D01*
X2857Y419D01*
G37*
D02*
G36*
X2849Y415D02*
X2849Y411D01*
X2845Y411D01*
X2845Y407D01*
X2841Y407D01*
X2841Y411D01*
X2836Y411D01*
X2836Y415D01*
X2849Y415D01*
G37*
D02*
G36*
X2845Y439D02*
X2845Y435D01*
X2836Y435D01*
X2836Y439D01*
X2845Y439D01*
G37*
D02*
G36*
X3230Y435D02*
X3230Y431D01*
X3238Y431D01*
X3238Y427D01*
X3234Y427D01*
X3234Y423D01*
X3230Y423D01*
X3230Y427D01*
X3226Y427D01*
X3226Y431D01*
X3222Y431D01*
X3222Y435D01*
X3230Y435D01*
G37*
D02*
G36*
X2411Y435D02*
X2411Y431D01*
X2415Y431D01*
X2415Y427D01*
X2406Y427D01*
X2406Y435D01*
X2411Y435D01*
G37*
D02*
G36*
X3275Y431D02*
X3275Y423D01*
X3266Y423D01*
X3266Y427D01*
X3271Y427D01*
X3271Y431D01*
X3275Y431D01*
G37*
D02*
G36*
X3266Y431D02*
X3266Y427D01*
X3262Y427D01*
X3262Y431D01*
X3266Y431D01*
G37*
D02*
G36*
X3198Y431D02*
X3198Y427D01*
X3193Y427D01*
X3193Y431D01*
X3198Y431D01*
G37*
D02*
G36*
X2869Y431D02*
X2869Y427D01*
X2865Y427D01*
X2865Y431D01*
X2869Y431D01*
G37*
D02*
G36*
X2845Y431D02*
X2845Y427D01*
X2849Y427D01*
X2849Y423D01*
X2841Y423D01*
X2841Y427D01*
X2836Y427D01*
X2836Y431D01*
X2845Y431D01*
G37*
D02*
G36*
X2427Y431D02*
X2427Y419D01*
X2423Y419D01*
X2423Y431D01*
X2427Y431D01*
G37*
D02*
G36*
X3202Y427D02*
X3202Y423D01*
X3198Y423D01*
X3198Y427D01*
X3202Y427D01*
G37*
D02*
G36*
X2419Y427D02*
X2419Y423D01*
X2415Y423D01*
X2415Y427D01*
X2419Y427D01*
G37*
D02*
G36*
X3266Y423D02*
X3266Y419D01*
X3262Y419D01*
X3262Y423D01*
X3266Y423D01*
G37*
D02*
G36*
X3177Y423D02*
X3177Y419D01*
X3173Y419D01*
X3173Y423D01*
X3177Y423D01*
G37*
D02*
G36*
X3181Y419D02*
X3181Y415D01*
X3177Y415D01*
X3177Y419D01*
X3181Y419D01*
G37*
D02*
G36*
X2987Y419D02*
X2987Y411D01*
X2983Y411D01*
X2983Y419D01*
X2987Y419D01*
G37*
D02*
G36*
X2978Y419D02*
X2978Y415D01*
X2974Y415D01*
X2974Y419D01*
X2978Y419D01*
G37*
D02*
G36*
X2423Y419D02*
X2423Y415D01*
X2419Y415D01*
X2419Y407D01*
X2411Y407D01*
X2411Y411D01*
X2415Y411D01*
X2415Y415D01*
X2411Y415D01*
X2411Y419D01*
X2423Y419D01*
G37*
D02*
G36*
X3177Y415D02*
X3177Y411D01*
X3173Y411D01*
X3173Y415D01*
X3177Y415D01*
G37*
D02*
G36*
X2995Y415D02*
X2995Y411D01*
X2991Y411D01*
X2991Y415D01*
X2995Y415D01*
G37*
D02*
G36*
X2974Y415D02*
X2974Y411D01*
X2978Y411D01*
X2978Y407D01*
X2974Y407D01*
X2974Y403D01*
X2970Y403D01*
X2970Y415D01*
X2974Y415D01*
G37*
D02*
G36*
X2958Y415D02*
X2958Y411D01*
X2954Y411D01*
X2954Y415D01*
X2958Y415D01*
G37*
D02*
G36*
X2832Y415D02*
X2832Y411D01*
X2824Y411D01*
X2824Y403D01*
X2812Y403D01*
X2812Y399D01*
X2808Y399D01*
X2808Y395D01*
X2812Y395D01*
X2812Y391D01*
X2800Y391D01*
X2800Y383D01*
X2792Y383D01*
X2792Y387D01*
X2796Y387D01*
X2796Y395D01*
X2804Y395D01*
X2804Y403D01*
X2808Y403D01*
X2808Y407D01*
X2816Y407D01*
X2816Y411D01*
X2820Y411D01*
X2820Y415D01*
X2832Y415D01*
G37*
D02*
G36*
X2836Y411D02*
X2836Y407D01*
X2841Y407D01*
X2841Y403D01*
X2832Y403D01*
X2832Y407D01*
X2828Y407D01*
X2828Y411D01*
X2836Y411D01*
G37*
D02*
G36*
X2820Y403D02*
X2820Y399D01*
X2816Y399D01*
X2816Y403D01*
X2820Y403D01*
G37*
D02*
G36*
X2812Y391D02*
X2812Y387D01*
X2808Y387D01*
X2808Y383D01*
X2804Y383D01*
X2804Y391D01*
X2812Y391D01*
G37*
D02*
G36*
X2800Y415D02*
X2800Y407D01*
X2796Y407D01*
X2796Y415D01*
X2800Y415D01*
G37*
D02*
G36*
X2999Y411D02*
X2999Y407D01*
X2995Y407D01*
X2995Y411D01*
X2999Y411D01*
G37*
D02*
G36*
X2991Y411D02*
X2991Y407D01*
X2987Y407D01*
X2987Y411D01*
X2991Y411D01*
G37*
D02*
G36*
X2792Y411D02*
X2792Y407D01*
X2796Y407D01*
X2796Y403D01*
X2788Y403D01*
X2788Y399D01*
X2784Y399D01*
X2784Y407D01*
X2788Y407D01*
X2788Y411D01*
X2792Y411D01*
G37*
D02*
G36*
X2987Y407D02*
X2987Y403D01*
X2983Y403D01*
X2983Y407D01*
X2987Y407D01*
G37*
D02*
G36*
X2804Y407D02*
X2804Y403D01*
X2800Y403D01*
X2800Y407D01*
X2804Y407D01*
G37*
D02*
G36*
X2411Y407D02*
X2411Y403D01*
X2406Y403D01*
X2406Y407D01*
X2411Y407D01*
G37*
D02*
G36*
X2832Y403D02*
X2832Y399D01*
X2828Y399D01*
X2828Y403D01*
X2832Y403D01*
G37*
D02*
G36*
X2800Y403D02*
X2800Y399D01*
X2796Y399D01*
X2796Y403D01*
X2800Y403D01*
G37*
D02*
G36*
X2828Y399D02*
X2828Y395D01*
X2824Y395D01*
X2824Y391D01*
X2816Y391D01*
X2816Y395D01*
X2820Y395D01*
X2820Y399D01*
X2828Y399D01*
G37*
D02*
G36*
X2816Y399D02*
X2816Y395D01*
X2812Y395D01*
X2812Y399D01*
X2816Y399D01*
G37*
D02*
G36*
X2796Y399D02*
X2796Y395D01*
X2788Y395D01*
X2788Y399D01*
X2796Y399D01*
G37*
D02*
G36*
X2995Y391D02*
X2995Y387D01*
X2991Y387D01*
X2991Y391D01*
X2995Y391D01*
G37*
D02*
G36*
X2978Y391D02*
X2978Y383D01*
X2974Y383D01*
X2974Y391D01*
X2978Y391D01*
G37*
D02*
G36*
X3007Y383D02*
X3007Y379D01*
X3003Y379D01*
X3003Y383D01*
X3007Y383D01*
G37*
D02*
G36*
X2974Y383D02*
X2974Y379D01*
X2970Y379D01*
X2970Y383D01*
X2974Y383D01*
G37*
D02*
G36*
X2978Y379D02*
X2978Y375D01*
X2983Y375D01*
X2983Y371D01*
X2970Y371D01*
X2970Y366D01*
X2966Y366D01*
X2966Y375D01*
X2974Y375D01*
X2974Y379D01*
X2978Y379D01*
G37*
D02*
G36*
X2978Y371D02*
X2978Y366D01*
X2974Y366D01*
X2974Y371D01*
X2978Y371D01*
G37*
D02*
G36*
X2974Y366D02*
X2974Y362D01*
X2962Y362D01*
X2962Y358D01*
X2958Y358D01*
X2958Y366D01*
X2974Y366D01*
G37*
D02*
G36*
X2970Y362D02*
X2970Y358D01*
X2966Y358D01*
X2966Y362D01*
X2970Y362D01*
G37*
D02*
G36*
X2987Y371D02*
X2987Y362D01*
X2991Y362D01*
X2991Y354D01*
X2987Y354D01*
X2987Y358D01*
X2983Y358D01*
X2983Y362D01*
X2978Y362D01*
X2978Y366D01*
X2983Y366D01*
X2983Y371D01*
X2987Y371D01*
G37*
D02*
G36*
X2978Y358D02*
X2978Y354D01*
X2970Y354D01*
X2970Y358D01*
X2978Y358D01*
G37*
D02*
G36*
X2966Y358D02*
X2966Y354D01*
X2962Y354D01*
X2962Y358D01*
X2966Y358D01*
G37*
D02*
G36*
X2958Y358D02*
X2958Y354D01*
X2954Y354D01*
X2954Y358D01*
X2958Y358D01*
G37*
D02*
G36*
X2999Y387D02*
X2999Y379D01*
X3003Y379D01*
X3003Y371D01*
X3007Y371D01*
X3007Y366D01*
X2999Y366D01*
X2999Y375D01*
X2995Y375D01*
X2995Y387D01*
X2999Y387D01*
G37*
D02*
G36*
X2991Y387D02*
X2991Y375D01*
X2983Y375D01*
X2983Y379D01*
X2978Y379D01*
X2978Y383D01*
X2983Y383D01*
X2983Y387D01*
X2991Y387D01*
G37*
D02*
G36*
X2995Y375D02*
X2995Y366D01*
X2991Y366D01*
X2991Y371D01*
X2987Y371D01*
X2987Y375D01*
X2995Y375D01*
G37*
D02*
G36*
X3011Y366D02*
X3011Y362D01*
X2991Y362D01*
X2991Y366D01*
X3011Y366D01*
G37*
D02*
G36*
X3011Y366D02*
X3011Y362D01*
X2991Y362D01*
X2991Y366D01*
X3011Y366D01*
G37*
D02*
G36*
X3011Y362D02*
X3011Y346D01*
X3015Y346D01*
X3015Y342D01*
X3011Y342D01*
X3011Y346D01*
X3007Y346D01*
X3007Y350D01*
X3003Y350D01*
X3003Y358D01*
X3007Y358D01*
X3007Y362D01*
X3011Y362D01*
G37*
D02*
G36*
X2999Y362D02*
X2999Y350D01*
X2995Y350D01*
X2995Y346D01*
X2991Y346D01*
X2991Y354D01*
X2995Y354D01*
X2995Y362D01*
X2999Y362D01*
G37*
D02*
G36*
X2987Y354D02*
X2987Y350D01*
X2983Y350D01*
X2983Y354D01*
X2987Y354D01*
G37*
D02*
G36*
X2970Y354D02*
X2970Y350D01*
X2966Y350D01*
X2966Y354D01*
X2970Y354D01*
G37*
D02*
G36*
X2962Y354D02*
X2962Y350D01*
X2958Y350D01*
X2958Y354D01*
X2962Y354D01*
G37*
D02*
G36*
X3003Y350D02*
X3003Y346D01*
X2999Y346D01*
X2999Y350D01*
X3003Y350D01*
G37*
D02*
G36*
X2987Y350D02*
X2987Y346D01*
X2950Y346D01*
X2950Y350D01*
X2987Y350D01*
G37*
D02*
G36*
X2987Y350D02*
X2987Y346D01*
X2950Y346D01*
X2950Y350D01*
X2987Y350D01*
G37*
D02*
G36*
X2987Y350D02*
X2987Y346D01*
X2950Y346D01*
X2950Y350D01*
X2987Y350D01*
G37*
D02*
G36*
X3007Y346D02*
X3007Y342D01*
X2999Y342D01*
X2999Y346D01*
X3007Y346D01*
G37*
D02*
G36*
X2995Y346D02*
X2995Y342D01*
X2950Y342D01*
X2950Y346D01*
X2995Y346D01*
G37*
D02*
G36*
X2995Y346D02*
X2995Y342D01*
X2950Y342D01*
X2950Y346D01*
X2995Y346D01*
G37*
D02*
G36*
X3015Y342D02*
X3015Y338D01*
X3003Y338D01*
X3003Y342D01*
X3015Y342D01*
G37*
D02*
G36*
X3015Y342D02*
X3015Y338D01*
X3003Y338D01*
X3003Y342D01*
X3015Y342D01*
G37*
D02*
G36*
X2995Y342D02*
X2995Y338D01*
X2991Y338D01*
X2991Y342D01*
X2995Y342D01*
G37*
D02*
G36*
X2987Y342D02*
X2987Y338D01*
X2946Y338D01*
X2946Y334D01*
X2942Y334D01*
X2942Y338D01*
X2946Y338D01*
X2946Y342D01*
X2987Y342D01*
G37*
D02*
G36*
X3007Y338D02*
X3007Y334D01*
X2954Y334D01*
X2954Y338D01*
X3007Y338D01*
G37*
D02*
G36*
X3007Y338D02*
X3007Y334D01*
X2954Y334D01*
X2954Y338D01*
X3007Y338D01*
G37*
D02*
G36*
X3007Y338D02*
X3007Y334D01*
X2954Y334D01*
X2954Y338D01*
X3007Y338D01*
G37*
D02*
G36*
X3015Y334D02*
X3015Y330D01*
X3011Y330D01*
X3011Y326D01*
X3003Y326D01*
X3003Y330D01*
X2995Y330D01*
X2995Y334D01*
X3015Y334D01*
G37*
D02*
G36*
X2987Y334D02*
X2987Y330D01*
X2942Y330D01*
X2942Y334D01*
X2987Y334D01*
G37*
D02*
G36*
X2987Y334D02*
X2987Y330D01*
X2942Y330D01*
X2942Y334D01*
X2987Y334D01*
G37*
D02*
G36*
X2999Y330D02*
X2999Y326D01*
X2954Y326D01*
X2954Y330D01*
X2999Y330D01*
G37*
D02*
G36*
X2999Y330D02*
X2999Y326D01*
X2954Y326D01*
X2954Y330D01*
X2999Y330D01*
G37*
D02*
G36*
X2950Y330D02*
X2950Y326D01*
X2946Y326D01*
X2946Y330D01*
X2950Y330D01*
G37*
D02*
G36*
X2942Y330D02*
X2942Y322D01*
X2930Y322D01*
X2930Y326D01*
X2938Y326D01*
X2938Y330D01*
X2942Y330D01*
G37*
D02*
G36*
X3007Y326D02*
X3007Y322D01*
X2999Y322D01*
X2999Y326D01*
X3007Y326D01*
G37*
D02*
G36*
X2987Y326D02*
X2987Y322D01*
X2954Y322D01*
X2954Y326D01*
X2987Y326D01*
G37*
D02*
G36*
X2926Y326D02*
X2926Y322D01*
X2922Y322D01*
X2922Y318D01*
X2918Y318D01*
X2918Y322D01*
X2914Y322D01*
X2914Y326D01*
X2926Y326D01*
G37*
D02*
G36*
X2909Y326D02*
X2909Y322D01*
X2897Y322D01*
X2897Y326D01*
X2909Y326D01*
G37*
D02*
G36*
X2893Y326D02*
X2893Y322D01*
X2889Y322D01*
X2889Y326D01*
X2893Y326D01*
G37*
D02*
G36*
X3003Y322D02*
X3003Y318D01*
X2942Y318D01*
X2942Y322D01*
X3003Y322D01*
G37*
D02*
G36*
X3003Y322D02*
X3003Y318D01*
X2942Y318D01*
X2942Y322D01*
X3003Y322D01*
G37*
D02*
G36*
X2938Y322D02*
X2938Y318D01*
X2926Y318D01*
X2926Y322D01*
X2938Y322D01*
G37*
D02*
G36*
X2914Y322D02*
X2914Y314D01*
X2909Y314D01*
X2909Y322D01*
X2914Y322D01*
G37*
D02*
G36*
X2901Y322D02*
X2901Y318D01*
X2885Y318D01*
X2885Y322D01*
X2901Y322D01*
G37*
D02*
G36*
X2901Y322D02*
X2901Y318D01*
X2885Y318D01*
X2885Y322D01*
X2901Y322D01*
G37*
D02*
G36*
X3007Y318D02*
X3007Y314D01*
X3003Y314D01*
X3003Y310D01*
X2995Y310D01*
X2995Y314D01*
X2999Y314D01*
X2999Y318D01*
X3007Y318D01*
G37*
D02*
G36*
X2991Y318D02*
X2991Y314D01*
X2918Y314D01*
X2918Y318D01*
X2991Y318D01*
G37*
D02*
G36*
X2991Y318D02*
X2991Y314D01*
X2918Y314D01*
X2918Y318D01*
X2991Y318D01*
G37*
D02*
G36*
X2991Y318D02*
X2991Y314D01*
X2918Y314D01*
X2918Y318D01*
X2991Y318D01*
G37*
D02*
G36*
X2905Y318D02*
X2905Y310D01*
X2901Y310D01*
X2901Y314D01*
X2897Y314D01*
X2897Y318D01*
X2905Y318D01*
G37*
D02*
G36*
X2893Y318D02*
X2893Y314D01*
X2889Y314D01*
X2889Y318D01*
X2893Y318D01*
G37*
D02*
G36*
X2987Y314D02*
X2987Y310D01*
X2909Y310D01*
X2909Y314D01*
X2987Y314D01*
G37*
D02*
G36*
X2987Y314D02*
X2987Y310D01*
X2909Y310D01*
X2909Y314D01*
X2987Y314D01*
G37*
D02*
G36*
X2897Y314D02*
X2897Y310D01*
X2893Y310D01*
X2893Y314D01*
X2897Y314D01*
G37*
D02*
G36*
X2995Y310D02*
X2995Y306D01*
X2987Y306D01*
X2987Y302D01*
X2914Y302D01*
X2914Y306D01*
X2909Y306D01*
X2909Y310D01*
X2995Y310D01*
G37*
D02*
G36*
X2905Y310D02*
X2905Y306D01*
X2889Y306D01*
X2889Y310D01*
X2905Y310D01*
G37*
D02*
G36*
X2905Y310D02*
X2905Y306D01*
X2889Y306D01*
X2889Y310D01*
X2905Y310D01*
G37*
D02*
G36*
X2999Y306D02*
X2999Y298D01*
X2995Y298D01*
X2995Y302D01*
X2991Y302D01*
X2991Y306D01*
X2999Y306D01*
G37*
D02*
G36*
X2909Y306D02*
X2909Y298D01*
X2905Y298D01*
X2905Y302D01*
X2897Y302D01*
X2897Y306D01*
X2909Y306D01*
G37*
D02*
G36*
X2991Y302D02*
X2991Y293D01*
X2922Y293D01*
X2922Y298D01*
X2918Y298D01*
X2918Y302D01*
X2991Y302D01*
G37*
D02*
G36*
X2918Y298D02*
X2918Y293D01*
X2905Y293D01*
X2905Y289D01*
X2897Y289D01*
X2897Y298D01*
X2918Y298D01*
G37*
D02*
G36*
X2987Y293D02*
X2987Y289D01*
X2909Y289D01*
X2909Y293D01*
X2987Y293D01*
G37*
D02*
G36*
X2987Y293D02*
X2987Y289D01*
X2909Y289D01*
X2909Y293D01*
X2987Y293D01*
G37*
D02*
G36*
X2991Y289D02*
X2991Y285D01*
X2934Y285D01*
X2934Y281D01*
X2926Y281D01*
X2926Y285D01*
X2918Y285D01*
X2918Y289D01*
X2991Y289D01*
G37*
D02*
G36*
X2914Y289D02*
X2914Y285D01*
X2909Y285D01*
X2909Y281D01*
X2905Y281D01*
X2905Y289D01*
X2914Y289D01*
G37*
D02*
G36*
X2978Y285D02*
X2978Y281D01*
X2974Y281D01*
X2974Y285D01*
X2978Y285D01*
G37*
D02*
G36*
X2966Y285D02*
X2966Y281D01*
X2962Y281D01*
X2962Y285D01*
X2966Y285D01*
G37*
D02*
G36*
X2958Y285D02*
X2958Y281D01*
X2954Y281D01*
X2954Y285D01*
X2958Y285D01*
G37*
D02*
G36*
X2950Y285D02*
X2950Y281D01*
X2938Y281D01*
X2938Y285D01*
X2950Y285D01*
G37*
D02*
G36*
X2922Y285D02*
X2922Y281D01*
X2914Y281D01*
X2914Y285D01*
X2922Y285D01*
G37*
D02*
G36*
X2962Y281D02*
X2962Y273D01*
X2966Y273D01*
X2966Y269D01*
X2958Y269D01*
X2958Y273D01*
X2950Y273D01*
X2950Y281D01*
X2962Y281D01*
G37*
D02*
G36*
X2946Y281D02*
X2946Y277D01*
X2930Y277D01*
X2930Y281D01*
X2946Y281D01*
G37*
D02*
G36*
X2946Y281D02*
X2946Y277D01*
X2930Y277D01*
X2930Y281D01*
X2946Y281D01*
G37*
D02*
G36*
X2946Y277D02*
X2946Y273D01*
X2938Y273D01*
X2938Y269D01*
X2926Y269D01*
X2926Y273D01*
X2934Y273D01*
X2934Y277D01*
X2946Y277D01*
G37*
D02*
G36*
X2954Y273D02*
X2954Y269D01*
X2942Y269D01*
X2942Y273D01*
X2954Y273D01*
G37*
D02*
G36*
X2954Y273D02*
X2954Y269D01*
X2942Y269D01*
X2942Y273D01*
X2954Y273D01*
G37*
D02*
G36*
X2958Y269D02*
X2958Y265D01*
X2950Y265D01*
X2950Y269D01*
X2958Y269D01*
G37*
D02*
G36*
X2942Y269D02*
X2942Y265D01*
X2926Y265D01*
X2926Y261D01*
X2922Y261D01*
X2922Y265D01*
X2918Y265D01*
X2918Y269D01*
X2942Y269D01*
G37*
D02*
G36*
X2950Y265D02*
X2950Y261D01*
X2930Y261D01*
X2930Y265D01*
X2950Y265D01*
G37*
D02*
G36*
X2930Y261D02*
X2930Y257D01*
X2918Y257D01*
X2918Y261D01*
X2930Y261D01*
G37*
D02*
G36*
X2402Y342D02*
X2402Y338D01*
X2398Y338D01*
X2398Y342D01*
X2402Y342D01*
G37*
D02*
G36*
X3161Y338D02*
X3161Y334D01*
X3153Y334D01*
X3153Y338D01*
X3161Y338D01*
G37*
D02*
G36*
X3019Y338D02*
X3019Y334D01*
X3015Y334D01*
X3015Y338D01*
X3019Y338D01*
G37*
D02*
G36*
X3165Y334D02*
X3165Y330D01*
X3161Y330D01*
X3161Y334D01*
X3165Y334D01*
G37*
D02*
G36*
X3153Y334D02*
X3153Y330D01*
X3149Y330D01*
X3149Y326D01*
X3145Y326D01*
X3145Y334D01*
X3153Y334D01*
G37*
D02*
G36*
X3141Y334D02*
X3141Y326D01*
X3137Y326D01*
X3137Y322D01*
X3129Y322D01*
X3129Y330D01*
X3137Y330D01*
X3137Y334D01*
X3141Y334D01*
G37*
D02*
G36*
X3019Y330D02*
X3019Y326D01*
X3015Y326D01*
X3015Y330D01*
X3019Y330D01*
G37*
D02*
G36*
X3145Y326D02*
X3145Y322D01*
X3141Y322D01*
X3141Y326D01*
X3145Y326D01*
G37*
D02*
G36*
X3015Y326D02*
X3015Y322D01*
X3011Y322D01*
X3011Y326D01*
X3015Y326D01*
G37*
D02*
G36*
X2885Y326D02*
X2885Y322D01*
X2881Y322D01*
X2881Y326D01*
X2885Y326D01*
G37*
D02*
G36*
X3011Y322D02*
X3011Y318D01*
X3007Y318D01*
X3007Y322D01*
X3011Y322D01*
G37*
D02*
G36*
X2382Y322D02*
X2382Y318D01*
X2378Y318D01*
X2378Y322D01*
X2382Y322D01*
G37*
D02*
G36*
X2402Y318D02*
X2402Y314D01*
X2398Y314D01*
X2398Y318D01*
X2402Y318D01*
G37*
D02*
G36*
X2386Y318D02*
X2386Y314D01*
X2382Y314D01*
X2382Y318D01*
X2386Y318D01*
G37*
D02*
G36*
X2382Y314D02*
X2382Y310D01*
X2378Y310D01*
X2378Y314D01*
X2382Y314D01*
G37*
D02*
G36*
X2386Y310D02*
X2386Y306D01*
X2390Y306D01*
X2390Y302D01*
X2394Y302D01*
X2394Y298D01*
X2386Y298D01*
X2386Y302D01*
X2382Y302D01*
X2382Y310D01*
X2386Y310D01*
G37*
D02*
G36*
X2398Y306D02*
X2398Y302D01*
X2394Y302D01*
X2394Y306D01*
X2398Y306D01*
G37*
D02*
G36*
X2897Y302D02*
X2897Y298D01*
X2893Y298D01*
X2893Y302D01*
X2897Y302D01*
G37*
D02*
G36*
X2995Y293D02*
X2995Y289D01*
X2991Y289D01*
X2991Y293D01*
X2995Y293D01*
G37*
D02*
G36*
X2390Y289D02*
X2390Y285D01*
X2386Y285D01*
X2386Y289D01*
X2390Y289D01*
G37*
D02*
G36*
X2983Y281D02*
X2983Y277D01*
X2978Y277D01*
X2978Y281D01*
X2983Y281D01*
G37*
D02*
G36*
X2974Y281D02*
X2974Y277D01*
X2970Y277D01*
X2970Y281D01*
X2974Y281D01*
G37*
D02*
G36*
X2983Y277D02*
X2983Y273D01*
X2970Y273D01*
X2970Y277D01*
X2983Y277D01*
G37*
D02*
G36*
X2983Y277D02*
X2983Y273D01*
X2970Y273D01*
X2970Y277D01*
X2983Y277D01*
G37*
D02*
G36*
X2914Y281D02*
X2914Y277D01*
X2909Y277D01*
X2909Y281D01*
X2914Y281D01*
G37*
D02*
G36*
X2346Y281D02*
X2346Y277D01*
X2342Y277D01*
X2342Y281D01*
X2346Y281D01*
G37*
D02*
G36*
X3104Y277D02*
X3104Y273D01*
X3100Y273D01*
X3100Y277D01*
X3104Y277D01*
G37*
D02*
G36*
X2926Y277D02*
X2926Y273D01*
X2922Y273D01*
X2922Y277D01*
X2926Y277D01*
G37*
D02*
G36*
X2918Y277D02*
X2918Y269D01*
X2914Y269D01*
X2914Y265D01*
X2905Y265D01*
X2905Y273D01*
X2914Y273D01*
X2914Y277D01*
X2918Y277D01*
G37*
D02*
G36*
X2350Y277D02*
X2350Y273D01*
X2346Y273D01*
X2346Y277D01*
X2350Y277D01*
G37*
D02*
G36*
X3100Y273D02*
X3100Y269D01*
X3096Y269D01*
X3096Y273D01*
X3100Y273D01*
G37*
D02*
G36*
X2918Y265D02*
X2918Y261D01*
X2914Y261D01*
X2914Y265D01*
X2918Y265D01*
G37*
D02*
G36*
X3080Y241D02*
X3080Y237D01*
X3076Y237D01*
X3076Y241D01*
X3080Y241D01*
G37*
D02*
G36*
X3076Y233D02*
X3076Y229D01*
X3072Y229D01*
X3072Y233D01*
X3076Y233D01*
G37*
D02*
G36*
X3080Y229D02*
X3080Y224D01*
X3076Y224D01*
X3076Y229D01*
X3080Y229D01*
G37*
D02*
G36*
X3076Y224D02*
X3076Y212D01*
X3072Y212D01*
X3072Y216D01*
X3068Y216D01*
X3068Y224D01*
X3076Y224D01*
G37*
D02*
G36*
X2333Y216D02*
X2333Y212D01*
X2329Y212D01*
X2329Y216D01*
X2333Y216D01*
G37*
D02*
G36*
X2329Y212D02*
X2329Y204D01*
X2325Y204D01*
X2325Y212D01*
X2329Y212D01*
G37*
D02*
G36*
X2317Y200D02*
X2317Y196D01*
X2313Y196D01*
X2313Y200D01*
X2317Y200D01*
G37*
D02*
G36*
X3047Y188D02*
X3047Y184D01*
X3043Y184D01*
X3043Y188D01*
X3047Y188D01*
G37*
D02*
G36*
X3043Y184D02*
X3043Y180D01*
X3039Y180D01*
X3039Y184D01*
X3043Y184D01*
G37*
D02*
G36*
X3047Y180D02*
X3047Y176D01*
X3043Y176D01*
X3043Y180D01*
X3047Y180D01*
G37*
D02*
G36*
X2285Y139D02*
X2285Y131D01*
X2281Y131D01*
X2281Y139D01*
X2285Y139D01*
G37*
D02*
G36*
X2995Y135D02*
X2995Y131D01*
X2991Y131D01*
X2991Y135D01*
X2995Y135D01*
G37*
D02*
G36*
X2297Y135D02*
X2297Y127D01*
X2289Y127D01*
X2289Y131D01*
X2293Y131D01*
X2293Y135D01*
X2297Y135D01*
G37*
D02*
G36*
X2617Y707D02*
X2617Y703D01*
X2621Y703D01*
X2621Y699D01*
X2617Y699D01*
X2617Y695D01*
X2605Y695D01*
X2605Y703D01*
X2613Y703D01*
X2613Y707D01*
X2617Y707D01*
G37*
D02*
G36*
X2597Y707D02*
X2597Y703D01*
X2601Y703D01*
X2601Y695D01*
X2597Y695D01*
X2597Y691D01*
X2256Y691D01*
X2256Y707D01*
X2597Y707D01*
G37*
D02*
G36*
X2613Y695D02*
X2613Y691D01*
X2617Y691D01*
X2617Y683D01*
X2613Y683D01*
X2613Y687D01*
X2609Y687D01*
X2609Y691D01*
X2601Y691D01*
X2601Y695D01*
X2613Y695D01*
G37*
D02*
G36*
X2605Y691D02*
X2605Y687D01*
X2256Y687D01*
X2256Y691D01*
X2605Y691D01*
G37*
D02*
G36*
X2605Y691D02*
X2605Y687D01*
X2256Y687D01*
X2256Y691D01*
X2605Y691D01*
G37*
D02*
G36*
X2605Y687D02*
X2605Y683D01*
X2601Y683D01*
X2601Y679D01*
X2256Y679D01*
X2256Y687D01*
X2605Y687D01*
G37*
D02*
G36*
X2613Y683D02*
X2613Y679D01*
X2605Y679D01*
X2605Y683D01*
X2613Y683D01*
G37*
D02*
G36*
X2609Y679D02*
X2609Y675D01*
X2256Y675D01*
X2256Y679D01*
X2609Y679D01*
G37*
D02*
G36*
X2609Y679D02*
X2609Y675D01*
X2256Y675D01*
X2256Y679D01*
X2609Y679D01*
G37*
D02*
G36*
X2597Y675D02*
X2597Y667D01*
X2593Y667D01*
X2593Y675D01*
X2597Y675D01*
G37*
D02*
G36*
X2589Y675D02*
X2589Y671D01*
X2585Y671D01*
X2585Y675D01*
X2589Y675D01*
G37*
D02*
G36*
X2581Y675D02*
X2581Y671D01*
X2565Y671D01*
X2565Y667D01*
X2256Y667D01*
X2256Y675D01*
X2581Y675D01*
G37*
D02*
G36*
X2581Y671D02*
X2581Y667D01*
X2569Y667D01*
X2569Y671D01*
X2581Y671D01*
G37*
D02*
G36*
X2597Y667D02*
X2597Y663D01*
X2593Y663D01*
X2593Y659D01*
X2589Y659D01*
X2589Y663D01*
X2581Y663D01*
X2581Y667D01*
X2597Y667D01*
G37*
D02*
G36*
X2577Y667D02*
X2577Y663D01*
X2256Y663D01*
X2256Y667D01*
X2577Y667D01*
G37*
D02*
G36*
X2577Y667D02*
X2577Y663D01*
X2256Y663D01*
X2256Y667D01*
X2577Y667D01*
G37*
D02*
G36*
X2585Y663D02*
X2585Y659D01*
X2577Y659D01*
X2577Y663D01*
X2585Y663D01*
G37*
D02*
G36*
X2573Y663D02*
X2573Y654D01*
X2569Y654D01*
X2569Y663D01*
X2573Y663D01*
G37*
D02*
G36*
X2565Y663D02*
X2565Y654D01*
X2256Y654D01*
X2256Y663D01*
X2565Y663D01*
G37*
D02*
G36*
X2569Y654D02*
X2569Y646D01*
X2565Y646D01*
X2565Y642D01*
X2573Y642D01*
X2573Y638D01*
X2565Y638D01*
X2565Y630D01*
X2569Y630D01*
X2569Y626D01*
X2577Y626D01*
X2577Y622D01*
X2573Y622D01*
X2573Y614D01*
X2569Y614D01*
X2569Y610D01*
X2573Y610D01*
X2573Y606D01*
X2565Y606D01*
X2565Y602D01*
X2256Y602D01*
X2256Y654D01*
X2569Y654D01*
G37*
D02*
G36*
X2577Y638D02*
X2577Y630D01*
X2573Y630D01*
X2573Y634D01*
X2569Y634D01*
X2569Y638D01*
X2577Y638D01*
G37*
D02*
G36*
X2573Y606D02*
X2573Y602D01*
X2569Y602D01*
X2569Y606D01*
X2573Y606D01*
G37*
D02*
G36*
X2573Y602D02*
X2573Y598D01*
X2256Y598D01*
X2256Y602D01*
X2573Y602D01*
G37*
D02*
G36*
X2573Y602D02*
X2573Y598D01*
X2256Y598D01*
X2256Y602D01*
X2573Y602D01*
G37*
D02*
G36*
X2573Y598D02*
X2573Y594D01*
X2565Y594D01*
X2565Y586D01*
X2256Y586D01*
X2256Y598D01*
X2573Y598D01*
G37*
D02*
G36*
X2573Y594D02*
X2573Y586D01*
X2569Y586D01*
X2569Y594D01*
X2573Y594D01*
G37*
D02*
G36*
X2569Y586D02*
X2569Y577D01*
X2565Y577D01*
X2565Y573D01*
X2569Y573D01*
X2569Y569D01*
X2565Y569D01*
X2565Y561D01*
X2569Y561D01*
X2569Y557D01*
X2573Y557D01*
X2573Y553D01*
X2569Y553D01*
X2569Y549D01*
X2577Y549D01*
X2577Y545D01*
X2569Y545D01*
X2569Y541D01*
X2565Y541D01*
X2565Y525D01*
X2569Y525D01*
X2569Y521D01*
X2565Y521D01*
X2565Y517D01*
X2569Y517D01*
X2569Y513D01*
X2544Y513D01*
X2544Y508D01*
X2536Y508D01*
X2536Y500D01*
X2256Y500D01*
X2256Y586D01*
X2569Y586D01*
G37*
D02*
G36*
X2577Y545D02*
X2577Y541D01*
X2573Y541D01*
X2573Y545D01*
X2577Y545D01*
G37*
D02*
G36*
X2569Y513D02*
X2569Y504D01*
X2565Y504D01*
X2565Y508D01*
X2561Y508D01*
X2561Y513D01*
X2569Y513D01*
G37*
D02*
G36*
X2557Y513D02*
X2557Y508D01*
X2548Y508D01*
X2548Y513D01*
X2557Y513D01*
G37*
D02*
G36*
X2561Y508D02*
X2561Y504D01*
X2557Y504D01*
X2557Y508D01*
X2561Y508D01*
G37*
D02*
G36*
X2548Y508D02*
X2548Y504D01*
X2553Y504D01*
X2553Y500D01*
X2544Y500D01*
X2544Y504D01*
X2540Y504D01*
X2540Y508D01*
X2548Y508D01*
G37*
D02*
G36*
X2565Y504D02*
X2565Y500D01*
X2557Y500D01*
X2557Y504D01*
X2565Y504D01*
G37*
D02*
G36*
X2561Y500D02*
X2561Y496D01*
X2256Y496D01*
X2256Y500D01*
X2561Y500D01*
G37*
D02*
G36*
X2561Y500D02*
X2561Y496D01*
X2256Y496D01*
X2256Y500D01*
X2561Y500D01*
G37*
D02*
G36*
X2561Y500D02*
X2561Y496D01*
X2256Y496D01*
X2256Y500D01*
X2561Y500D01*
G37*
D02*
G36*
X2557Y496D02*
X2557Y488D01*
X2553Y488D01*
X2553Y496D01*
X2557Y496D01*
G37*
D02*
G36*
X2548Y496D02*
X2548Y488D01*
X2544Y488D01*
X2544Y484D01*
X2540Y484D01*
X2540Y492D01*
X2536Y492D01*
X2536Y496D01*
X2548Y496D01*
G37*
D02*
G36*
X2532Y496D02*
X2532Y492D01*
X2256Y492D01*
X2256Y496D01*
X2532Y496D01*
G37*
D02*
G36*
X2536Y492D02*
X2536Y484D01*
X2532Y484D01*
X2532Y480D01*
X2435Y480D01*
X2435Y476D01*
X2256Y476D01*
X2256Y492D01*
X2536Y492D01*
G37*
D02*
G36*
X2524Y480D02*
X2524Y476D01*
X2520Y476D01*
X2520Y480D01*
X2524Y480D01*
G37*
D02*
G36*
X2512Y480D02*
X2512Y476D01*
X2500Y476D01*
X2500Y472D01*
X2496Y472D01*
X2496Y476D01*
X2479Y476D01*
X2479Y480D01*
X2512Y480D01*
G37*
D02*
G36*
X2475Y480D02*
X2475Y476D01*
X2471Y476D01*
X2471Y480D01*
X2475Y480D01*
G37*
D02*
G36*
X2467Y480D02*
X2467Y476D01*
X2459Y476D01*
X2459Y480D01*
X2467Y480D01*
G37*
D02*
G36*
X2455Y480D02*
X2455Y472D01*
X2447Y472D01*
X2447Y480D01*
X2455Y480D01*
G37*
D02*
G36*
X2443Y480D02*
X2443Y476D01*
X2439Y476D01*
X2439Y480D01*
X2443Y480D01*
G37*
D02*
G36*
X2520Y476D02*
X2520Y472D01*
X2508Y472D01*
X2508Y476D01*
X2520Y476D01*
G37*
D02*
G36*
X2492Y476D02*
X2492Y472D01*
X2475Y472D01*
X2475Y476D01*
X2492Y476D01*
G37*
D02*
G36*
X2471Y476D02*
X2471Y472D01*
X2459Y472D01*
X2459Y476D01*
X2471Y476D01*
G37*
D02*
G36*
X2439Y476D02*
X2439Y472D01*
X2435Y472D01*
X2435Y464D01*
X2451Y464D01*
X2451Y460D01*
X2443Y460D01*
X2443Y456D01*
X2435Y456D01*
X2435Y452D01*
X2256Y452D01*
X2256Y476D01*
X2439Y476D01*
G37*
D02*
G36*
X2496Y472D02*
X2496Y468D01*
X2500Y468D01*
X2500Y464D01*
X2504Y464D01*
X2504Y460D01*
X2496Y460D01*
X2496Y464D01*
X2492Y464D01*
X2492Y468D01*
X2488Y468D01*
X2488Y472D01*
X2496Y472D01*
G37*
D02*
G36*
X2479Y472D02*
X2479Y468D01*
X2463Y468D01*
X2463Y472D01*
X2479Y472D01*
G37*
D02*
G36*
X2479Y472D02*
X2479Y468D01*
X2463Y468D01*
X2463Y472D01*
X2479Y472D01*
G37*
D02*
G36*
X2479Y468D02*
X2479Y460D01*
X2475Y460D01*
X2475Y464D01*
X2471Y464D01*
X2471Y468D01*
X2479Y468D01*
G37*
D02*
G36*
X2467Y468D02*
X2467Y464D01*
X2463Y464D01*
X2463Y468D01*
X2467Y468D01*
G37*
D02*
G36*
X2471Y464D02*
X2471Y460D01*
X2463Y460D01*
X2463Y452D01*
X2459Y452D01*
X2459Y464D01*
X2471Y464D01*
G37*
D02*
G36*
X2488Y460D02*
X2488Y456D01*
X2471Y456D01*
X2471Y460D01*
X2488Y460D01*
G37*
D02*
G36*
X2455Y460D02*
X2455Y452D01*
X2447Y452D01*
X2447Y460D01*
X2455Y460D01*
G37*
D02*
G36*
X2443Y456D02*
X2443Y452D01*
X2439Y452D01*
X2439Y456D01*
X2443Y456D01*
G37*
D02*
G36*
X2451Y452D02*
X2451Y448D01*
X2256Y448D01*
X2256Y452D01*
X2451Y452D01*
G37*
D02*
G36*
X2451Y452D02*
X2451Y448D01*
X2256Y448D01*
X2256Y452D01*
X2451Y452D01*
G37*
D02*
G36*
X2451Y452D02*
X2451Y448D01*
X2256Y448D01*
X2256Y452D01*
X2451Y452D01*
G37*
D02*
G36*
X2451Y448D02*
X2451Y444D01*
X2443Y444D01*
X2443Y448D01*
X2451Y448D01*
G37*
D02*
G36*
X2435Y448D02*
X2435Y444D01*
X2427Y444D01*
X2427Y439D01*
X2423Y439D01*
X2423Y448D01*
X2435Y448D01*
G37*
D02*
G36*
X2415Y448D02*
X2415Y444D01*
X2406Y444D01*
X2406Y448D01*
X2415Y448D01*
G37*
D02*
G36*
X2402Y448D02*
X2402Y444D01*
X2256Y444D01*
X2256Y448D01*
X2402Y448D01*
G37*
D02*
G36*
X2447Y444D02*
X2447Y439D01*
X2431Y439D01*
X2431Y444D01*
X2447Y444D01*
G37*
D02*
G36*
X2447Y444D02*
X2447Y439D01*
X2431Y439D01*
X2431Y444D01*
X2447Y444D01*
G37*
D02*
G36*
X2419Y444D02*
X2419Y439D01*
X2256Y439D01*
X2256Y444D01*
X2419Y444D01*
G37*
D02*
G36*
X2419Y444D02*
X2419Y439D01*
X2256Y439D01*
X2256Y444D01*
X2419Y444D01*
G37*
D02*
G36*
X2439Y439D02*
X2439Y435D01*
X2419Y435D01*
X2419Y439D01*
X2439Y439D01*
G37*
D02*
G36*
X2439Y439D02*
X2439Y435D01*
X2419Y435D01*
X2419Y439D01*
X2439Y439D01*
G37*
D02*
G36*
X2415Y439D02*
X2415Y435D01*
X2411Y435D01*
X2411Y439D01*
X2415Y439D01*
G37*
D02*
G36*
X2406Y439D02*
X2406Y435D01*
X2402Y435D01*
X2402Y427D01*
X2406Y427D01*
X2406Y423D01*
X2411Y423D01*
X2411Y419D01*
X2402Y419D01*
X2402Y415D01*
X2411Y415D01*
X2411Y411D01*
X2402Y411D01*
X2402Y391D01*
X2256Y391D01*
X2256Y439D01*
X2406Y439D01*
G37*
D02*
G36*
X2431Y435D02*
X2431Y431D01*
X2427Y431D01*
X2427Y435D01*
X2431Y435D01*
G37*
D02*
G36*
X2423Y435D02*
X2423Y431D01*
X2415Y431D01*
X2415Y435D01*
X2423Y435D01*
G37*
D02*
G36*
X2415Y403D02*
X2415Y391D01*
X2406Y391D01*
X2406Y399D01*
X2411Y399D01*
X2411Y403D01*
X2415Y403D01*
G37*
D02*
G36*
X2411Y391D02*
X2411Y387D01*
X2256Y387D01*
X2256Y391D01*
X2411Y391D01*
G37*
D02*
G36*
X2411Y391D02*
X2411Y387D01*
X2256Y387D01*
X2256Y391D01*
X2411Y391D01*
G37*
D02*
G36*
X2411Y387D02*
X2411Y383D01*
X2406Y383D01*
X2406Y387D01*
X2411Y387D01*
G37*
D02*
G36*
X2402Y387D02*
X2402Y383D01*
X2256Y383D01*
X2256Y387D01*
X2402Y387D01*
G37*
D02*
G36*
X2411Y383D02*
X2411Y379D01*
X2256Y379D01*
X2256Y383D01*
X2411Y383D01*
G37*
D02*
G36*
X2411Y383D02*
X2411Y379D01*
X2256Y379D01*
X2256Y383D01*
X2411Y383D01*
G37*
D02*
G36*
X2406Y379D02*
X2406Y375D01*
X2411Y375D01*
X2411Y371D01*
X2402Y371D01*
X2402Y358D01*
X2406Y358D01*
X2406Y350D01*
X2370Y350D01*
X2370Y346D01*
X2256Y346D01*
X2256Y379D01*
X2406Y379D01*
G37*
D02*
G36*
X2411Y350D02*
X2411Y346D01*
X2398Y346D01*
X2398Y342D01*
X2390Y342D01*
X2390Y346D01*
X2386Y346D01*
X2386Y350D01*
X2411Y350D01*
G37*
D02*
G36*
X2382Y350D02*
X2382Y346D01*
X2374Y346D01*
X2374Y350D01*
X2382Y350D01*
G37*
D02*
G36*
X2415Y346D02*
X2415Y342D01*
X2402Y342D01*
X2402Y346D01*
X2415Y346D01*
G37*
D02*
G36*
X2386Y346D02*
X2386Y342D01*
X2378Y342D01*
X2378Y346D01*
X2386Y346D01*
G37*
D02*
G36*
X2374Y346D02*
X2374Y338D01*
X2370Y338D01*
X2370Y334D01*
X2256Y334D01*
X2256Y346D01*
X2374Y346D01*
G37*
D02*
G36*
X2390Y342D02*
X2390Y338D01*
X2382Y338D01*
X2382Y334D01*
X2378Y334D01*
X2378Y342D01*
X2390Y342D01*
G37*
D02*
G36*
X2394Y338D02*
X2394Y334D01*
X2398Y334D01*
X2398Y322D01*
X2394Y322D01*
X2394Y330D01*
X2390Y330D01*
X2390Y334D01*
X2386Y334D01*
X2386Y338D01*
X2394Y338D01*
G37*
D02*
G36*
X2386Y334D02*
X2386Y330D01*
X2256Y330D01*
X2256Y334D01*
X2386Y334D01*
G37*
D02*
G36*
X2386Y334D02*
X2386Y330D01*
X2256Y330D01*
X2256Y334D01*
X2386Y334D01*
G37*
D02*
G36*
X2386Y330D02*
X2386Y326D01*
X2390Y326D01*
X2390Y322D01*
X2382Y322D01*
X2382Y330D01*
X2386Y330D01*
G37*
D02*
G36*
X2378Y330D02*
X2378Y326D01*
X2370Y326D01*
X2370Y322D01*
X2256Y322D01*
X2256Y330D01*
X2378Y330D01*
G37*
D02*
G36*
X2378Y326D02*
X2378Y322D01*
X2374Y322D01*
X2374Y326D01*
X2378Y326D01*
G37*
D02*
G36*
X2398Y322D02*
X2398Y318D01*
X2386Y318D01*
X2386Y322D01*
X2398Y322D01*
G37*
D02*
G36*
X2398Y322D02*
X2398Y318D01*
X2386Y318D01*
X2386Y322D01*
X2398Y322D01*
G37*
D02*
G36*
X2374Y322D02*
X2374Y318D01*
X2378Y318D01*
X2378Y314D01*
X2370Y314D01*
X2370Y310D01*
X2378Y310D01*
X2378Y306D01*
X2370Y306D01*
X2370Y302D01*
X2256Y302D01*
X2256Y322D01*
X2374Y322D01*
G37*
D02*
G36*
X2394Y318D02*
X2394Y314D01*
X2398Y314D01*
X2398Y310D01*
X2394Y310D01*
X2394Y306D01*
X2390Y306D01*
X2390Y310D01*
X2386Y310D01*
X2386Y314D01*
X2390Y314D01*
X2390Y318D01*
X2394Y318D01*
G37*
D02*
G36*
X2378Y306D02*
X2378Y302D01*
X2374Y302D01*
X2374Y306D01*
X2378Y306D01*
G37*
D02*
G36*
X2382Y302D02*
X2382Y298D01*
X2256Y298D01*
X2256Y302D01*
X2382Y302D01*
G37*
D02*
G36*
X2382Y302D02*
X2382Y298D01*
X2256Y298D01*
X2256Y302D01*
X2382Y302D01*
G37*
D02*
G36*
X2386Y298D02*
X2386Y293D01*
X2378Y293D01*
X2378Y298D01*
X2386Y298D01*
G37*
D02*
G36*
X2370Y298D02*
X2370Y293D01*
X2256Y293D01*
X2256Y298D01*
X2370Y298D01*
G37*
D02*
G36*
X2382Y293D02*
X2382Y289D01*
X2256Y289D01*
X2256Y293D01*
X2382Y293D01*
G37*
D02*
G36*
X2382Y293D02*
X2382Y289D01*
X2256Y289D01*
X2256Y293D01*
X2382Y293D01*
G37*
D02*
G36*
X2382Y289D02*
X2382Y285D01*
X2386Y285D01*
X2386Y281D01*
X2378Y281D01*
X2378Y285D01*
X2374Y285D01*
X2374Y289D01*
X2382Y289D01*
G37*
D02*
G36*
X2370Y289D02*
X2370Y285D01*
X2342Y285D01*
X2342Y281D01*
X2337Y281D01*
X2337Y277D01*
X2342Y277D01*
X2342Y269D01*
X2337Y269D01*
X2337Y265D01*
X2256Y265D01*
X2256Y289D01*
X2370Y289D01*
G37*
D02*
G36*
X2370Y285D02*
X2370Y281D01*
X2366Y281D01*
X2366Y285D01*
X2370Y285D01*
G37*
D02*
G36*
X2362Y285D02*
X2362Y281D01*
X2358Y281D01*
X2358Y277D01*
X2354Y277D01*
X2354Y281D01*
X2346Y281D01*
X2346Y285D01*
X2362Y285D01*
G37*
D02*
G36*
X2382Y281D02*
X2382Y277D01*
X2366Y277D01*
X2366Y281D01*
X2382Y281D01*
G37*
D02*
G36*
X2382Y281D02*
X2382Y277D01*
X2366Y277D01*
X2366Y281D01*
X2382Y281D01*
G37*
D02*
G36*
X2374Y277D02*
X2374Y273D01*
X2354Y273D01*
X2354Y277D01*
X2374Y277D01*
G37*
D02*
G36*
X2374Y277D02*
X2374Y273D01*
X2354Y273D01*
X2354Y277D01*
X2374Y277D01*
G37*
D02*
G36*
X2370Y273D02*
X2370Y269D01*
X2366Y269D01*
X2366Y273D01*
X2370Y273D01*
G37*
D02*
G36*
X2354Y273D02*
X2354Y269D01*
X2350Y269D01*
X2350Y273D01*
X2354Y273D01*
G37*
D02*
G36*
X2366Y269D02*
X2366Y265D01*
X2358Y265D01*
X2358Y261D01*
X2354Y261D01*
X2354Y265D01*
X2342Y265D01*
X2342Y269D01*
X2366Y269D01*
G37*
D02*
G36*
X2346Y265D02*
X2346Y261D01*
X2256Y261D01*
X2256Y265D01*
X2346Y265D01*
G37*
D02*
G36*
X2346Y265D02*
X2346Y261D01*
X2256Y261D01*
X2256Y265D01*
X2346Y265D01*
G37*
D02*
G36*
X2350Y261D02*
X2350Y257D01*
X2346Y257D01*
X2346Y253D01*
X2305Y253D01*
X2305Y245D01*
X2309Y245D01*
X2309Y241D01*
X2256Y241D01*
X2256Y261D01*
X2350Y261D01*
G37*
D02*
G36*
X2346Y253D02*
X2346Y249D01*
X2342Y249D01*
X2342Y253D01*
X2346Y253D01*
G37*
D02*
G36*
X2333Y253D02*
X2333Y249D01*
X2329Y249D01*
X2329Y253D01*
X2333Y253D01*
G37*
D02*
G36*
X2321Y253D02*
X2321Y249D01*
X2309Y249D01*
X2309Y253D01*
X2321Y253D01*
G37*
D02*
G36*
X2342Y249D02*
X2342Y245D01*
X2317Y245D01*
X2317Y249D01*
X2342Y249D01*
G37*
D02*
G36*
X2342Y249D02*
X2342Y245D01*
X2317Y245D01*
X2317Y249D01*
X2342Y249D01*
G37*
D02*
G36*
X2342Y245D02*
X2342Y241D01*
X2337Y241D01*
X2337Y237D01*
X2333Y237D01*
X2333Y245D01*
X2342Y245D01*
G37*
D02*
G36*
X2329Y245D02*
X2329Y241D01*
X2313Y241D01*
X2313Y245D01*
X2329Y245D01*
G37*
D02*
G36*
X2329Y241D02*
X2329Y237D01*
X2256Y237D01*
X2256Y241D01*
X2329Y241D01*
G37*
D02*
G36*
X2329Y241D02*
X2329Y237D01*
X2256Y237D01*
X2256Y241D01*
X2329Y241D01*
G37*
D02*
G36*
X2333Y237D02*
X2333Y220D01*
X2325Y220D01*
X2325Y233D01*
X2313Y233D01*
X2313Y237D01*
X2333Y237D01*
G37*
D02*
G36*
X2305Y237D02*
X2305Y233D01*
X2256Y233D01*
X2256Y237D01*
X2305Y237D01*
G37*
D02*
G36*
X2321Y233D02*
X2321Y229D01*
X2256Y229D01*
X2256Y233D01*
X2321Y233D01*
G37*
D02*
G36*
X2321Y233D02*
X2321Y229D01*
X2256Y229D01*
X2256Y233D01*
X2321Y233D01*
G37*
D02*
G36*
X2321Y229D02*
X2321Y224D01*
X2305Y224D01*
X2305Y220D01*
X2256Y220D01*
X2256Y229D01*
X2321Y229D01*
G37*
D02*
G36*
X2321Y224D02*
X2321Y220D01*
X2317Y220D01*
X2317Y224D01*
X2321Y224D01*
G37*
D02*
G36*
X2313Y224D02*
X2313Y220D01*
X2309Y220D01*
X2309Y224D01*
X2313Y224D01*
G37*
D02*
G36*
X2329Y220D02*
X2329Y216D01*
X2317Y216D01*
X2317Y220D01*
X2329Y220D01*
G37*
D02*
G36*
X2329Y220D02*
X2329Y216D01*
X2317Y216D01*
X2317Y220D01*
X2329Y220D01*
G37*
D02*
G36*
X2313Y220D02*
X2313Y216D01*
X2256Y216D01*
X2256Y220D01*
X2313Y220D01*
G37*
D02*
G36*
X2313Y220D02*
X2313Y216D01*
X2256Y216D01*
X2256Y220D01*
X2313Y220D01*
G37*
D02*
G36*
X2325Y216D02*
X2325Y212D01*
X2321Y212D01*
X2321Y216D01*
X2325Y216D01*
G37*
D02*
G36*
X2317Y216D02*
X2317Y212D01*
X2313Y212D01*
X2313Y216D01*
X2317Y216D01*
G37*
D02*
G36*
X2305Y216D02*
X2305Y212D01*
X2256Y212D01*
X2256Y216D01*
X2305Y216D01*
G37*
D02*
G36*
X2317Y212D02*
X2317Y208D01*
X2256Y208D01*
X2256Y212D01*
X2317Y212D01*
G37*
D02*
G36*
X2317Y212D02*
X2317Y208D01*
X2256Y208D01*
X2256Y212D01*
X2317Y212D01*
G37*
D02*
G36*
X2321Y208D02*
X2321Y204D01*
X2325Y204D01*
X2325Y196D01*
X2321Y196D01*
X2321Y200D01*
X2317Y200D01*
X2317Y204D01*
X2313Y204D01*
X2313Y208D01*
X2321Y208D01*
G37*
D02*
G36*
X2305Y208D02*
X2305Y204D01*
X2256Y204D01*
X2256Y208D01*
X2305Y208D01*
G37*
D02*
G36*
X2313Y204D02*
X2313Y200D01*
X2305Y200D01*
X2305Y196D01*
X2313Y196D01*
X2313Y192D01*
X2305Y192D01*
X2305Y176D01*
X2313Y176D01*
X2313Y172D01*
X2309Y172D01*
X2309Y168D01*
X2305Y168D01*
X2305Y156D01*
X2277Y156D01*
X2277Y151D01*
X2273Y151D01*
X2273Y147D01*
X2256Y147D01*
X2256Y204D01*
X2313Y204D01*
G37*
D02*
G36*
X2301Y156D02*
X2301Y147D01*
X2297Y147D01*
X2297Y156D01*
X2301Y156D01*
G37*
D02*
G36*
X2293Y156D02*
X2293Y151D01*
X2285Y151D01*
X2285Y156D01*
X2293Y156D01*
G37*
D02*
G36*
X2289Y151D02*
X2289Y147D01*
X2277Y147D01*
X2277Y151D01*
X2289Y151D01*
G37*
D02*
G36*
X2297Y147D02*
X2297Y139D01*
X2293Y139D01*
X2293Y135D01*
X2289Y135D01*
X2289Y139D01*
X2285Y139D01*
X2285Y147D01*
X2297Y147D01*
G37*
D02*
G36*
X2281Y147D02*
X2281Y143D01*
X2256Y143D01*
X2256Y147D01*
X2281Y147D01*
G37*
D02*
G36*
X2281Y147D02*
X2281Y143D01*
X2256Y143D01*
X2256Y147D01*
X2281Y147D01*
G37*
D02*
G36*
X2273Y143D02*
X2273Y139D01*
X2277Y139D01*
X2277Y135D01*
X2273Y135D01*
X2273Y131D01*
X2281Y131D01*
X2281Y127D01*
X2273Y127D01*
X2273Y123D01*
X2260Y123D01*
X2260Y111D01*
X2256Y111D01*
X2256Y143D01*
X2273Y143D01*
G37*
D02*
G36*
X2289Y127D02*
X2289Y123D01*
X2285Y123D01*
X2285Y127D01*
X2289Y127D01*
G37*
D02*
G36*
X2281Y127D02*
X2281Y123D01*
X2277Y123D01*
X2277Y127D01*
X2281Y127D01*
G37*
D02*
G36*
X2289Y123D02*
X2289Y119D01*
X2277Y119D01*
X2277Y123D01*
X2289Y123D01*
G37*
D02*
G36*
X2289Y123D02*
X2289Y119D01*
X2277Y119D01*
X2277Y123D01*
X2289Y123D01*
G37*
D02*
G36*
X2273Y123D02*
X2273Y119D01*
X2264Y119D01*
X2264Y123D01*
X2273Y123D01*
G37*
D02*
G36*
X2281Y119D02*
X2281Y115D01*
X2264Y115D01*
X2264Y119D01*
X2281Y119D01*
G37*
D02*
G36*
X2281Y119D02*
X2281Y115D01*
X2264Y115D01*
X2264Y119D01*
X2281Y119D01*
G37*
D02*
G36*
X2918Y123D02*
X2918Y119D01*
X2914Y119D01*
X2914Y123D01*
X2918Y123D01*
G37*
D02*
G36*
X2297Y123D02*
X2297Y119D01*
X2293Y119D01*
X2293Y123D01*
X2297Y123D01*
G37*
D02*
G36*
X2914Y119D02*
X2914Y115D01*
X2909Y115D01*
X2909Y119D01*
X2914Y119D01*
G37*
D02*
G36*
X2277Y111D02*
X2277Y107D01*
X2264Y107D01*
X2264Y103D01*
X2260Y103D01*
X2260Y99D01*
X2256Y99D01*
X2256Y107D01*
X2260Y107D01*
X2260Y111D01*
X2277Y111D01*
G37*
D02*
G36*
X2909Y107D02*
X2909Y103D01*
X2905Y103D01*
X2905Y107D01*
X2909Y107D01*
G37*
D02*
G36*
X2273Y103D02*
X2273Y99D01*
X2269Y99D01*
X2269Y95D01*
X2264Y95D01*
X2264Y103D01*
X2273Y103D01*
G37*
D02*
G36*
X2962Y99D02*
X2962Y95D01*
X2954Y95D01*
X2954Y99D01*
X2962Y99D01*
G37*
D02*
G36*
X2909Y99D02*
X2909Y95D01*
X2901Y95D01*
X2901Y99D01*
X2909Y99D01*
G37*
D02*
G36*
X2914Y91D02*
X2914Y87D01*
X2909Y87D01*
X2909Y91D01*
X2914Y91D01*
G37*
D02*
G36*
X2918Y87D02*
X2918Y82D01*
X2914Y82D01*
X2914Y87D01*
X2918Y87D01*
G37*
D02*
G04 End of Copper0*
M02*