<?xml version="1.0" standalone="yes"?>

<svg version="1.1" viewBox="0.0 0.0 462.51443569553805 583.1102362204724" fill="none" stroke="none" stroke-linecap="square" stroke-miterlimit="10" xmlns="http://www.w3.org/2000/svg" xmlns:xlink="http://www.w3.org/1999/xlink"><clipPath id="p.0"><path d="m0 0l462.51443 0l0 583.1102l-462.51443 0l0 -583.1102z" clip-rule="nonzero"></path></clipPath><g clip-path="url(#p.0)"><path fill="#000000" fill-opacity="0.0" d="m0 0l462.51443 0l0 583.1102l-462.51443 0z" fill-rule="nonzero"></path><path fill="#ffffff" d="m115.54068 177.74016l0 0c0 -63.908478 51.80806 -115.71654 115.71654 -115.71654l0 0c30.689926 0 60.12288 12.191528 81.82396 33.892593c21.70105 21.701057 33.89258 51.134003 33.89258 81.823944l0 0c0 63.908478 -51.808044 115.71654 -115.71654 115.71654l0 0c-63.908478 0 -115.71654 -51.80806 -115.71654 -115.71654z" fill-rule="nonzero"></path><path stroke="#000000" stroke-width="8.0" stroke-linejoin="round" stroke-linecap="butt" d="m115.54068 177.74016l0 0c0 -63.908478 51.80806 -115.71654 115.71654 -115.71654l0 0c30.689926 0 60.12288 12.191528 81.82396 33.892593c21.70105 21.701057 33.89258 51.134003 33.89258 81.823944l0 0c0 63.908478 -51.808044 115.71654 -115.71654 115.71654l0 0c-63.908478 0 -115.71654 -51.80806 -115.71654 -115.71654z" fill-rule="nonzero"></path><path fill="#ffffff" d="m234.93439 130.4567l0 0c0 -17.647026 14.305725 -31.952759 31.952759 -31.952759l0 0c8.474396 0 16.601685 3.3664398 22.593994 9.358749c5.9923096 5.992302 9.358765 14.119606 9.358765 22.59401l0 0c0 17.647018 -14.305756 31.952759 -31.952759 31.952759l0 0c-17.647034 0 -31.952759 -14.30574 -31.952759 -31.952759z" fill-rule="nonzero"></path><path stroke="#000000" stroke-width="8.0" stroke-linejoin="round" stroke-linecap="butt" d="m234.93439 130.4567l0 0c0 -17.647026 14.305725 -31.952759 31.952759 -31.952759l0 0c8.474396 0 16.601685 3.3664398 22.593994 9.358749c5.9923096 5.992302 9.358765 14.119606 9.358765 22.59401l0 0c0 17.647018 -14.305756 31.952759 -31.952759 31.952759l0 0c-17.647034 0 -31.952759 -14.30574 -31.952759 -31.952759z" fill-rule="nonzero"></path><path fill="#000000" fill-opacity="0.0" d="m185.06824 72.0105l0 -66.23622" fill-rule="nonzero"></path><path stroke="#000000" stroke-width="3.0" stroke-linejoin="round" stroke-linecap="butt" d="m185.06824 72.0105l0 -66.23622" fill-rule="nonzero"></path><path fill="#000000" fill-opacity="0.0" d="m210.00525 65.77428l0 -22.582676" fill-rule="nonzero"></path><path stroke="#000000" stroke-width="3.0" stroke-linejoin="round" stroke-linecap="butt" d="m210.00525 65.77428l0 -22.582676" fill-rule="nonzero"></path><path fill="#ffffff" d="m36.285954 373.60104l0 0c0 -107.5607 87.19519 -194.7559 194.7559 -194.7559l0 0c51.65248 0 101.18941 20.518875 137.71321 57.042694c36.523834 36.52382 57.042694 86.060745 57.042694 137.71321l0 0c0 107.56073 -87.19519 194.75589 -194.7559 194.75589l0 0c-107.560715 0 -194.7559 -87.19516 -194.7559 -194.75589z" fill-rule="nonzero"></path><path stroke="#000000" stroke-width="8.0" stroke-linejoin="round" stroke-linecap="butt" d="m36.285954 373.60104l0 0c0 -107.5607 87.19519 -194.7559 194.7559 -194.7559l0 0c51.65248 0 101.18941 20.518875 137.71321 57.042694c36.523834 36.52382 57.042694 86.060745 57.042694 137.71321l0 0c0 107.56073 -87.19519 194.75589 -194.7559 194.75589l0 0c-107.560715 0 -194.7559 -87.19516 -194.7559 -194.75589z" fill-rule="nonzero"></path><path fill="#000000" fill-opacity="0.0" d="m43.074802 322.18372l374.80316 0l0 316.56696l-374.80316 0z" fill-rule="nonzero"></path><path fill="#000000" d="m131.44336 380.85873l19.515625 -2.640625l4.15625 0l0 10.5625l-23.671875 0l0 -7.921875zm67.833694 27.4375q-8.640625 0 -17.28125 -0.625l-0.40625 -7.84375l5.84375 -1.609375l0 -30.46875q0 -2.078125 -0.328125 -2.765625q-0.3125 -0.6875 -1.671875 -1.234375l-4.15625 -2.328125l0.484375 -6.640625q12.953125 -1.671875 22.234375 -1.671875q11.359375 0 16.640625 3.359375q5.28125 3.359375 5.28125 10.640625q0 3.59375 -1.125 6.359375q-1.109375 2.75 -3.4375 5.0q8.0 3.59375 8.0 11.671875q0 7.203125 -4.0 11.609375q-4.0 4.390625 -11.765625 5.75q-2.875 0.796875 -14.3125 0.796875zm11.765625 -32.390625q0.796875 -2.078125 0.796875 -6.96875q0 -3.359375 -1.5625 -4.953125q-1.5625 -1.59375 -4.765625 -1.765625q-2.078125 0 -4.15625 0.171875l0 13.359375q1.359375 -0.078125 3.515625 -0.078125q3.28125 0 6.171875 0.234375zm-3.359375 22.484375q4.546875 0 6.46875 -0.8125q0.796875 -3.1875 0.796875 -5.671875q0 -4.0 -2.078125 -5.671875q-2.078125 -1.6875 -7.03125 -1.6875q-1.046875 0 -2.640625 0.15625l-1.84375 0.078125l0 13.046875q2.796875 0.5625 6.328125 0.5625zm43.4337 9.90625q-8.640625 0 -17.28125 -0.625l-0.40625 -7.84375l5.84375 -1.609375l0 -30.46875q0 -2.078125 -0.328125 -2.765625q-0.3125 -0.6875 -1.671875 -1.234375l-4.15625 -2.328125l0.484375 -6.640625q12.953125 -1.671875 22.234375 -1.671875q11.359375 0 16.640625 3.359375q5.28125 3.359375 5.28125 10.640625q0 3.59375 -1.125 6.359375q-1.109375 2.75 -3.4375 5.0q8.0 3.59375 8.0 11.671875q0 7.203125 -4.0 11.609375q-4.0 4.390625 -11.765625 5.75q-2.875 0.796875 -14.3125 0.796875zm11.765625 -32.390625q0.796875 -2.078125 0.796875 -6.96875q0 -3.359375 -1.5625 -4.953125q-1.5625 -1.59375 -4.765625 -1.765625q-2.078125 0 -4.15625 0.171875l0 13.359375q1.359375 -0.078125 3.515625 -0.078125q3.28125 0 6.171875 0.234375zm-3.359375 22.484375q4.546875 0 6.46875 -0.8125q0.796875 -3.1875 0.796875 -5.671875q0 -4.0 -2.078125 -5.671875q-2.078125 -1.6875 -7.03125 -1.6875q-1.046875 0 -2.640625 0.15625l-1.84375 0.078125l0 13.046875q2.796875 0.5625 6.328125 0.5625zm46.319916 -17.53125l19.515625 -2.640625l4.15625 0l0 10.5625l-23.671875 0l0 -7.921875z" fill-rule="nonzero"></path><path fill="#000000" d="m156.08147 505.03058q-11.765625 0 -17.25 -6.203125q-5.46875 -6.203125 -5.46875 -19.484375l0 -15.765625q0 -2.078125 -0.28125 -2.75q-0.28125 -0.6875 -1.5625 -1.25l-2.5625 -1.515625l0.234375 -8.0l24.96875 0l0.390625 7.921875l-6.640625 1.84375l0 16.390625q0 8.328125 2.40625 13.125q2.40625 4.796875 8.234375 4.796875q1.921875 0 3.71875 -0.546875q1.8125 -0.5625 3.09375 -1.53125q0.796875 -1.84375 1.109375 -4.921875q0.328125 -3.078125 0.328125 -8.28125l0 -15.28125q0 -2.078125 -0.328125 -2.75q-0.3125 -0.6875 -1.671875 -1.25l-3.921875 -2.234375l0.390625 -7.28125l23.765625 0l0.40625 8.640625l-4.171875 1.125l0 18.078125q0 12.875 -6.59375 20.0q-6.59375 7.125 -18.59375 7.125zm47.521194 -35.125l1.359375 20.953125q0.078125 1.84375 0.390625 2.40625q0.328125 0.5625 1.4375 1.203125l4.171875 2.796875l-0.328125 6.71875l-20.796875 0l-0.40625 -8.71875l4.328125 -1.046875l0.3125 -31.515625q0 -1.515625 -0.234375 -2.078125q-0.234375 -0.5625 -1.125 -1.28125l-2.953125 -2.234375l0.5625 -7.046875l16.5625 0l24.15625 30.96875l-1.125 -17.84375q-0.078125 -1.921875 -0.40625 -2.484375q-0.3125 -0.5625 -1.4375 -1.203125l-4.15625 -2.71875l0.234375 -6.71875l20.640625 0l0.328125 8.15625l-4.078125 1.765625l-0.328125 43.28125l-9.203125 3.03125l-27.90625 -36.390625zm45.9962 25.921875l5.84375 -1.609375l0 -30.640625q0 -2.078125 -0.328125 -2.75q-0.3125 -0.6875 -1.671875 -1.25l-4.171875 -2.390625l0.40625 -7.125l25.67189 0l0.328125 8.15625l-5.765625 1.609375l0 31.203125q0 1.90625 0.28125 2.46875q0.28125 0.5625 1.484375 1.125l4.078125 2.484375l-0.234375 6.875l-25.531265 0l-0.390625 -8.15625zm42.24312 0.3125l6.953125 -1.921875l0 -34.640625l-6.71875 0.5625l-5.921875 7.125l-5.84375 -0.484375q0 -6.640625 0.640625 -16.71875l50.078094 0q0.640625 10.078125 0.640625 16.71875l-5.75 0.484375l-6.0 -7.125l-6.5625 -0.5625l0 31.453125q0 1.90625 0.234375 2.46875q0.25 0.5625 1.359375 1.125l4.96875 2.953125l-0.328125 6.40625l-27.359344 0l-0.390625 -7.84375z" fill-rule="nonzero"></path></g></svg>

