<?xml version="1.0" standalone="yes"?>

<svg version="1.1" viewBox="0.0 0.0 462.51443569553805 583.1102362204724" fill="none" stroke="none" stroke-linecap="square" stroke-miterlimit="10" xmlns="http://www.w3.org/2000/svg" xmlns:xlink="http://www.w3.org/1999/xlink"><clipPath id="p.0"><path d="m0 0l462.51443 0l0 583.1102l-462.51443 0l0 -583.1102z" clip-rule="nonzero"></path></clipPath><g clip-path="url(#p.0)"><path fill="#000000" fill-opacity="0.0" d="m0 0l462.51443 0l0 583.1102l-462.51443 0z" fill-rule="nonzero"></path><path fill="#ffffff" d="m115.54068 177.74016l0 0c0 -63.908478 51.80806 -115.71654 115.71654 -115.71654l0 0c30.689926 0 60.12288 12.191528 81.82396 33.892593c21.70105 21.701057 33.89258 51.134003 33.89258 81.823944l0 0c0 63.908478 -51.808044 115.71654 -115.71654 115.71654l0 0c-63.908478 0 -115.71654 -51.80806 -115.71654 -115.71654z" fill-rule="nonzero"></path><path stroke="#000000" stroke-width="8.0" stroke-linejoin="round" stroke-linecap="butt" d="m115.54068 177.74016l0 0c0 -63.908478 51.80806 -115.71654 115.71654 -115.71654l0 0c30.689926 0 60.12288 12.191528 81.82396 33.892593c21.70105 21.701057 33.89258 51.134003 33.89258 81.823944l0 0c0 63.908478 -51.808044 115.71654 -115.71654 115.71654l0 0c-63.908478 0 -115.71654 -51.80806 -115.71654 -115.71654z" fill-rule="nonzero"></path><path fill="#ffffff" d="m234.93439 130.4567l0 0c0 -17.647026 14.305725 -31.952759 31.952759 -31.952759l0 0c8.474396 0 16.601685 3.3664398 22.593994 9.358749c5.9923096 5.992302 9.358765 14.119606 9.358765 22.59401l0 0c0 17.647018 -14.305756 31.952759 -31.952759 31.952759l0 0c-17.647034 0 -31.952759 -14.30574 -31.952759 -31.952759z" fill-rule="nonzero"></path><path stroke="#000000" stroke-width="8.0" stroke-linejoin="round" stroke-linecap="butt" d="m234.93439 130.4567l0 0c0 -17.647026 14.305725 -31.952759 31.952759 -31.952759l0 0c8.474396 0 16.601685 3.3664398 22.593994 9.358749c5.9923096 5.992302 9.358765 14.119606 9.358765 22.59401l0 0c0 17.647018 -14.305756 31.952759 -31.952759 31.952759l0 0c-17.647034 0 -31.952759 -14.30574 -31.952759 -31.952759z" fill-rule="nonzero"></path><path fill="#000000" fill-opacity="0.0" d="m185.06824 72.0105l0 -66.23622" fill-rule="nonzero"></path><path stroke="#000000" stroke-width="3.0" stroke-linejoin="round" stroke-linecap="butt" d="m185.06824 72.0105l0 -66.23622" fill-rule="nonzero"></path><path fill="#000000" fill-opacity="0.0" d="m210.00525 65.77428l0 -22.582676" fill-rule="nonzero"></path><path stroke="#000000" stroke-width="3.0" stroke-linejoin="round" stroke-linecap="butt" d="m210.00525 65.77428l0 -22.582676" fill-rule="nonzero"></path><path fill="#ffffff" d="m36.285954 373.60104l0 0c0 -107.5607 87.19519 -194.7559 194.7559 -194.7559l0 0c51.65248 0 101.18941 20.518875 137.71321 57.042694c36.523834 36.52382 57.042694 86.060745 57.042694 137.71321l0 0c0 107.56073 -87.19519 194.75589 -194.7559 194.75589l0 0c-107.560715 0 -194.7559 -87.19516 -194.7559 -194.75589z" fill-rule="nonzero"></path><path stroke="#000000" stroke-width="8.0" stroke-linejoin="round" stroke-linecap="butt" d="m36.285954 373.60104l0 0c0 -107.5607 87.19519 -194.7559 194.7559 -194.7559l0 0c51.65248 0 101.18941 20.518875 137.71321 57.042694c36.523834 36.52382 57.042694 86.060745 57.042694 137.71321l0 0c0 107.56073 -87.19519 194.75589 -194.7559 194.75589l0 0c-107.560715 0 -194.7559 -87.19516 -194.7559 -194.75589z" fill-rule="nonzero"></path><path fill="#000000" fill-opacity="0.0" d="m43.074802 322.18372l374.80316 0l0 316.56696l-374.80316 0z" fill-rule="nonzero"></path><path fill="#000000" d="m96.64826 383.56186l0 -4.796875l30.390625 0l0 4.796875l-30.390625 0zm129.10938 9.609375q0 3.125 -0.828125 5.4375q-0.8125 2.296875 -2.28125 3.96875q-1.46875 1.65625 -3.515625 2.6875q-2.046875 1.03125 -4.515625 1.640625q-2.453125 0.609375 -5.265625 0.84375q-2.8125 0.234375 -5.828125 0.234375l-30.96875 0l0 -53.671875l30.265625 0q2.3125 0 4.609375 0.203125q2.3125 0.1875 4.4375 0.71875q2.125 0.515625 3.9375 1.453125q1.828125 0.9375 3.171875 2.46875q1.34375 1.515625 2.109375 3.671875q0.765625 2.140625 0.765625 5.078125q0 2.609375 -0.65625 4.53125q-0.640625 1.90625 -1.953125 3.28125q-1.296875 1.359375 -3.328125 2.25q-2.03125 0.875 -4.765625 1.375q3.90625 0.28125 6.671875 1.34375q2.78125 1.046875 4.53125 2.8125q1.765625 1.75 2.578125 4.1875q0.828125 2.4375 0.828125 5.484375zm-8.484375 -25.1875q0 -1.140625 -0.15625 -2.265625q-0.15625 -1.140625 -0.703125 -2.171875q-0.546875 -1.03125 -1.578125 -1.921875q-1.03125 -0.90625 -2.828125 -1.546875q-1.796875 -0.65625 -4.4375 -1.015625q-2.640625 -0.375 -6.34375 -0.375l-23.796875 0l0 18.75l23.796875 0q5.265625 0 8.421875 -0.765625q3.171875 -0.765625 4.875 -2.046875q1.703125 -1.296875 2.21875 -3.015625q0.53125 -1.71875 0.53125 -3.625zm3.359375 25.109375q0 -3.046875 -1.0625 -5.1875q-1.046875 -2.15625 -3.234375 -3.515625q-2.1875 -1.375 -5.625 -2.015625q-3.4375 -0.640625 -8.15625 -0.640625l-25.125 0l0 21.828125l25.78125 0q4.890625 0 8.21875 -0.5625q3.34375 -0.5625 5.390625 -1.828125q2.0625 -1.28125 2.9375 -3.265625q0.875 -2.0 0.875 -4.8125zm72.078125 0.078125q0 3.125 -0.828125 5.4375q-0.8125 2.296875 -2.28125 3.96875q-1.46875 1.65625 -3.515625 2.6875q-2.046875 1.03125 -4.515625 1.640625q-2.453125 0.609375 -5.265625 0.84375q-2.8125 0.234375 -5.828125 0.234375l-30.96875 0l0 -53.671875l30.265625 0q2.3125 0 4.609375 0.203125q2.3125 0.1875 4.4375 0.71875q2.125 0.515625 3.9375 1.453125q1.828125 0.9375 3.171875 2.46875q1.34375 1.515625 2.109375 3.671875q0.765625 2.140625 0.765625 5.078125q0 2.609375 -0.65625 4.53125q-0.640625 1.90625 -1.953125 3.28125q-1.296875 1.359375 -3.328125 2.25q-2.03125 0.875 -4.765625 1.375q3.90625 0.28125 6.671875 1.34375q2.78125 1.046875 4.53125 2.8125q1.765625 1.75 2.578125 4.1875q0.828125 2.4375 0.828125 5.484375zm-8.484375 -25.1875q0 -1.140625 -0.15625 -2.265625q-0.15625 -1.140625 -0.703125 -2.171875q-0.546875 -1.03125 -1.578125 -1.921875q-1.03125 -0.90625 -2.828125 -1.546875q-1.796875 -0.65625 -4.4375 -1.015625q-2.640625 -0.375 -6.34375 -0.375l-23.796875 0l0 18.75l23.796875 0q5.265625 0 8.421875 -0.765625q3.171875 -0.765625 4.875 -2.046875q1.703125 -1.296875 2.21875 -3.015625q0.53125 -1.71875 0.53125 -3.625zm3.359375 25.109375q0 -3.046875 -1.0625 -5.1875q-1.046875 -2.15625 -3.234375 -3.515625q-2.1875 -1.375 -5.625 -2.015625q-3.4375 -0.640625 -8.15625 -0.640625l-25.125 0l0 21.828125l25.78125 0q4.890625 0 8.21875 -0.5625q3.34375 -0.5625 5.390625 -1.828125q2.0625 -1.28125 2.9375 -3.265625q0.875 -2.0 0.875 -4.8125zm46.328125 -9.53125l0 -4.796875l30.390625 0l0 4.796875l-30.390625 0z" fill-rule="nonzero"></path><path fill="#000000" d="m180.28107 487.1087q0 4.015625 -1.703125 7.328125q-1.6875 3.296875 -5.078125 5.65625q-3.375 2.359375 -8.453125 3.65625q-5.078125 1.296875 -11.828125 1.296875q-6.765625 0 -11.84375 -1.296875q-5.078125 -1.296875 -8.484375 -3.65625q-3.390625 -2.359375 -5.0937424 -5.65625q-1.6875 -3.3125 -1.6875 -7.328125l0 -36.796875l4.8749924 0l0 37.1875q0 2.6875 1.421875 5.09375q1.4375 2.40625 4.25 4.203125q2.8125 1.796875 6.953125 2.859375q4.140625 1.046875 9.609375 1.046875q5.421875 0 9.5625 -1.046875q4.140625 -1.0625 6.953125 -2.859375q2.8125 -1.796875 4.234375 -4.203125q1.4375 -2.40625 1.4375 -5.09375l0 -37.1875l4.875 0l0 36.796875l0 0zm69.10156 16.875l-46.640625 -47.265625l0 47.265625l-4.875 0l0 -53.671875l5.390625 0l46.640625 47.421875l0 -47.421875l4.796875 0l0 53.671875l-5.3125 0zm23.367188 0l0 -53.671875l4.875 0l0 53.671875l-4.875 0zm44.71875 -49.21875l0 49.21875l-4.84375 0l0 -49.21875l-24.40625 0l0 -4.453125l53.671875 0l0 4.453125l-24.421875 0z" fill-rule="nonzero"></path></g></svg>

