<?xml version="1.0" standalone="yes"?>

<svg version="1.1" viewBox="0.0 0.0 460.9527559055118 633.1312335958005" fill="none" stroke="none" stroke-linecap="square" stroke-miterlimit="10" xmlns="http://www.w3.org/2000/svg" xmlns:xlink="http://www.w3.org/1999/xlink"><clipPath id="p.0"><path d="m0 0l460.95276 0l0 633.1312l-460.95276 0l0 -633.1312z" clip-rule="nonzero"></path></clipPath><g clip-path="url(#p.0)"><path fill="#000000" fill-opacity="0.0" d="m0 0l460.95276 0l0 633.1312l-460.95276 0z" fill-rule="nonzero"></path><path fill="#000000" fill-opacity="0.0" d="m21.041994 410.5748l0 0c0 -115.9798 94.0202 -210.0 210.0 -210.0l0 0c55.695465 0 109.1098 22.124939 148.49243 61.50757c39.38263 39.38266 61.50757 92.79697 61.50757 148.49243l0 0c0 115.97983 -94.0202 210.00003 -210.0 210.00003l0 0c-115.9798 0 -210.0 -94.0202 -210.0 -210.00003z" fill-rule="nonzero"></path><path stroke="#000000" stroke-width="8.0" stroke-linejoin="round" stroke-linecap="butt" d="m21.041994 410.5748l0 0c0 -115.9798 94.0202 -210.0 210.0 -210.0l0 0c55.695465 0 109.1098 22.124939 148.49243 61.50757c39.38263 39.38266 61.50757 92.79697 61.50757 148.49243l0 0c0 115.97983 -94.0202 210.00003 -210.0 210.00003l0 0c-115.9798 0 -210.0 -94.0202 -210.0 -210.00003z" fill-rule="nonzero"></path><path fill="#000000" fill-opacity="0.0" d="m115.32546 178.3727l0 0c0 -63.90847 51.808052 -115.71653 115.71653 -115.71653l0 0c30.689941 0 60.122894 12.191528 81.823944 33.892593c21.70108 21.701057 33.89261 51.13401 33.89261 81.82394l0 0c0 63.908478 -51.808075 115.71654 -115.71655 115.71654l0 0c-63.908478 0 -115.71653 -51.80806 -115.71653 -115.71654z" fill-rule="nonzero"></path><path stroke="#000000" stroke-width="8.0" stroke-linejoin="round" stroke-linecap="butt" d="m115.32546 178.3727l0 0c0 -63.90847 51.808052 -115.71653 115.71653 -115.71653l0 0c30.689941 0 60.122894 12.191528 81.823944 33.892593c21.70108 21.701057 33.89261 51.13401 33.89261 81.82394l0 0c0 63.908478 -51.808075 115.71654 -115.71655 115.71654l0 0c-63.908478 0 -115.71653 -51.80806 -115.71653 -115.71654z" fill-rule="nonzero"></path><path fill="#000000" fill-opacity="0.0" d="m234.93439 130.4567l0 0c0 -17.647026 14.305725 -31.952759 31.952759 -31.952759l0 0c8.474396 0 16.601685 3.3664398 22.593994 9.358749c5.9923096 5.992302 9.358765 14.119606 9.358765 22.59401l0 0c0 17.647018 -14.305756 31.952759 -31.952759 31.952759l0 0c-17.647034 0 -31.952759 -14.30574 -31.952759 -31.952759z" fill-rule="nonzero"></path><path stroke="#000000" stroke-width="8.0" stroke-linejoin="round" stroke-linecap="butt" d="m234.93439 130.4567l0 0c0 -17.647026 14.305725 -31.952759 31.952759 -31.952759l0 0c8.474396 0 16.601685 3.3664398 22.593994 9.358749c5.9923096 5.992302 9.358765 14.119606 9.358765 22.59401l0 0c0 17.647018 -14.305756 31.952759 -31.952759 31.952759l0 0c-17.647034 0 -31.952759 -14.30574 -31.952759 -31.952759z" fill-rule="nonzero"></path><path fill="#000000" fill-opacity="0.0" d="m185.06824 72.0105l0 -66.23622" fill-rule="nonzero"></path><path stroke="#000000" stroke-width="3.0" stroke-linejoin="round" stroke-linecap="butt" d="m185.06824 72.0105l0 -66.23622" fill-rule="nonzero"></path><path fill="#000000" fill-opacity="0.0" d="m210.00525 65.77428l0 -22.582676" fill-rule="nonzero"></path><path stroke="#000000" stroke-width="3.0" stroke-linejoin="round" stroke-linecap="butt" d="m210.00525 65.77428l0 -22.582676" fill-rule="nonzero"></path><path fill="#000000" fill-opacity="0.0" d="m71.68767 326.81366l318.70868 0l0 241.54327l-318.70868 0z" fill-rule="nonzero"></path><path fill="#000000" d="m106.54199 398.67676l0 -5.765625l36.46875 0l0 5.765625l-36.46875 0zm118.828125 11.53125q0 3.75 -0.984375 6.515625q-0.984375 2.765625 -2.75 4.765625q-1.75 1.984375 -4.21875 3.234375q-2.453125 1.234375 -5.40625 1.96875q-2.953125 0.71875 -6.328125 1.0q-3.375 0.28125 -6.984375 0.28125l-37.171875 0l0 -64.40625l36.328125 0q2.765625 0 5.53125 0.234375q2.765625 0.234375 5.3125 0.875q2.5625 0.625 4.734375 1.75q2.1875 1.125 3.796875 2.953125q1.625 1.828125 2.53125 4.40625q0.921875 2.578125 0.921875 6.09375q0 3.140625 -0.78125 5.4375q-0.765625 2.296875 -2.34375 3.9375q-1.5625 1.640625 -4.0 2.703125q-2.4375 1.046875 -5.71875 1.65625q4.6875 0.328125 8.015625 1.59375q3.328125 1.265625 5.4375 3.375q2.109375 2.109375 3.09375 5.046875q0.984375 2.921875 0.984375 6.578125zm-10.171875 -30.234375q0 -1.359375 -0.1875 -2.71875q-0.1875 -1.359375 -0.84375 -2.59375q-0.65625 -1.25 -1.90625 -2.328125q-1.234375 -1.078125 -3.390625 -1.84375q-2.15625 -0.78125 -5.328125 -1.21875q-3.15625 -0.453125 -7.609375 -0.453125l-28.546875 0l0 22.5l28.546875 0q6.328125 0 10.125 -0.90625q3.796875 -0.921875 5.828125 -2.46875q2.046875 -1.546875 2.671875 -3.609375q0.640625 -2.0625 0.640625 -4.359375zm4.03125 30.140625q0 -3.65625 -1.265625 -6.234375q-1.265625 -2.578125 -3.890625 -4.21875q-2.625 -1.640625 -6.75 -2.40625q-4.125 -0.78125 -9.796875 -0.78125l-30.140625 0l0 26.203125l30.9375 0q5.859375 0 9.859375 -0.671875q4.015625 -0.6875 6.46875 -2.203125q2.46875 -1.53125 3.515625 -3.921875q1.0625 -2.390625 1.0625 -5.765625zm86.484375 0.09375q0 3.75 -0.984375 6.515625q-0.984375 2.765625 -2.75 4.765625q-1.75 1.984375 -4.21875 3.234375q-2.453125 1.234375 -5.40625 1.96875q-2.953125 0.71875 -6.328125 1.0q-3.375 0.28125 -6.984375 0.28125l-37.171875 0l0 -64.40625l36.328125 0q2.765625 0 5.53125 0.234375q2.765625 0.234375 5.3125 0.875q2.5625 0.625 4.734375 1.75q2.1875 1.125 3.796875 2.953125q1.625 1.828125 2.53125 4.40625q0.921875 2.578125 0.921875 6.09375q0 3.140625 -0.78125 5.4375q-0.765625 2.296875 -2.34375 3.9375q-1.5625 1.640625 -4.0 2.703125q-2.4375 1.046875 -5.71875 1.65625q4.6875 0.328125 8.015625 1.59375q3.328125 1.265625 5.4375 3.375q2.109375 2.109375 3.09375 5.046875q0.984375 2.921875 0.984375 6.578125zm-10.171875 -30.234375q0 -1.359375 -0.1875 -2.71875q-0.1875 -1.359375 -0.84375 -2.59375q-0.65625 -1.25 -1.90625 -2.328125q-1.234375 -1.078125 -3.390625 -1.84375q-2.15625 -0.78125 -5.328125 -1.21875q-3.15625 -0.453125 -7.609375 -0.453125l-28.546875 0l0 22.5l28.546875 0q6.328125 0 10.125 -0.90625q3.796875 -0.921875 5.828125 -2.46875q2.046875 -1.546875 2.671875 -3.609375q0.640625 -2.0625 0.640625 -4.359375zm4.03125 30.140625q0 -3.65625 -1.265625 -6.234375q-1.265625 -2.578125 -3.890625 -4.21875q-2.625 -1.640625 -6.75 -2.40625q-4.125 -0.78125 -9.796875 -0.78125l-30.140625 0l0 26.203125l30.9375 0q5.859375 0 9.859375 -0.671875q4.015625 -0.6875 6.46875 -2.203125q2.46875 -1.53125 3.515625 -3.921875q1.0625 -2.390625 1.0625 -5.765625zm19.5 -11.4375l0 -5.765625l36.46872 0l0 5.765625l-36.46872 0z" fill-rule="nonzero"></path><path fill="#000000" d="m170.80762 522.72363q0 4.828125 -2.046875 8.796875q-2.03125 3.953125 -6.09375 6.796875q-4.046875 2.828125 -10.140625 4.375q-6.09375 1.546875 -14.203125 1.546875q-8.109375 0 -14.203125 -1.546875q-6.09375 -1.546875 -10.171875 -4.375q-4.078125 -2.84375 -6.125 -6.796875q-2.03125 -3.96875 -2.03125 -8.796875l0 -44.15622l5.859375 0l0 44.62497q0 3.234375 1.703125 6.125q1.71875 2.875 5.09375 5.03125q3.375 2.15625 8.34375 3.421875q4.96875 1.265625 11.53125 1.265625q6.515625 0 11.484375 -1.265625q4.96875 -1.265625 8.34375 -3.421875q3.375 -2.15625 5.078125 -5.03125q1.71875 -2.890625 1.71875 -6.125l0 -44.62497l5.859375 0l0 44.15622l0 0zm82.921875 20.25l-55.96875 -56.71872l0 56.71872l-5.859375 0l0 -64.40622l6.46875 0l55.96875 56.90622l0 -56.90622l5.765625 0l0 64.40622l-6.375 0zm28.03125 0l0 -64.40622l5.859375 0l0 64.40622l-5.859375 0zm53.671844 -59.06247l0 59.06247l-5.8125 0l0 -59.06247l-29.296844 0l0 -5.34375l64.40622 0l0 5.34375l-29.296875 0z" fill-rule="nonzero"></path></g></svg>

