G04 MADE WITH FRITZING*
G04 WWW.FRITZING.ORG*
G04 DOUBLE SIDED*
G04 HOLES PLATED*
G04 CONTOUR ON CENTER OF CONTOUR VECTOR*
%ASAXBY*%
%FSLAX23Y23*%
%MOIN*%
%OFA0B0*%
%SFA1.0B1.0*%
%ADD10C,0.078000*%
%ADD11C,0.075000*%
%ADD12C,0.062992*%
%ADD13C,0.080000*%
%ADD14C,0.072917*%
%ADD15C,0.070000*%
%ADD16C,0.196851*%
%ADD17R,0.062992X0.062992*%
%ADD18R,0.080000X0.080000*%
%ADD19R,0.070000X0.070000*%
%ADD20R,0.075000X0.075000*%
%LNCOPPER1*%
G90*
G70*
G54D10*
X204Y2295D03*
X204Y2195D03*
X204Y2095D03*
X204Y1995D03*
G54D11*
X304Y1895D03*
X304Y1595D03*
X2204Y895D03*
X2404Y895D03*
G54D10*
X1804Y2395D03*
X1704Y2395D03*
X1604Y2395D03*
X1504Y2395D03*
X804Y95D03*
X704Y95D03*
X604Y95D03*
X504Y95D03*
X804Y195D03*
X704Y195D03*
X604Y195D03*
X504Y195D03*
X804Y295D03*
X704Y295D03*
X604Y295D03*
X504Y295D03*
X804Y395D03*
X704Y395D03*
X604Y395D03*
X504Y395D03*
G54D11*
X704Y2195D03*
X1104Y2195D03*
G54D12*
X1205Y2295D03*
X1304Y2295D03*
X1405Y2195D03*
X1504Y2195D03*
G54D11*
X704Y2295D03*
X1104Y2295D03*
G54D10*
X904Y2395D03*
X804Y2395D03*
X704Y2395D03*
X604Y2395D03*
G54D11*
X3704Y1795D03*
X3304Y1795D03*
G54D10*
X104Y1795D03*
X104Y1695D03*
X104Y1795D03*
X104Y1695D03*
X204Y1695D03*
X204Y1795D03*
G54D11*
X304Y1395D03*
X304Y595D03*
G54D12*
X3804Y1894D03*
X3804Y1795D03*
G54D11*
X3804Y1695D03*
X4004Y1695D03*
G54D13*
X4104Y1994D03*
X4104Y1856D03*
G54D14*
X1204Y2495D03*
X2804Y2495D03*
X1104Y2495D03*
X1004Y2495D03*
X904Y2495D03*
X804Y2495D03*
X504Y1095D03*
X704Y2495D03*
X604Y2495D03*
X2764Y595D03*
X2204Y2495D03*
X2104Y2495D03*
X2004Y2495D03*
X1904Y2495D03*
X504Y1895D03*
X1804Y2495D03*
X1704Y2495D03*
X1604Y2495D03*
X1504Y2495D03*
X2004Y595D03*
X504Y695D03*
X504Y1495D03*
X504Y2295D03*
X3164Y595D03*
X2404Y2495D03*
X2404Y595D03*
X504Y895D03*
X504Y1295D03*
X504Y1695D03*
X804Y595D03*
X504Y2095D03*
X904Y595D03*
X1004Y595D03*
X1104Y595D03*
X1204Y595D03*
X1304Y595D03*
X1404Y595D03*
X1504Y595D03*
X3364Y595D03*
X2964Y595D03*
X2564Y595D03*
X3004Y2495D03*
X2604Y2495D03*
X1804Y595D03*
X2204Y595D03*
X504Y595D03*
X504Y795D03*
X504Y995D03*
X504Y1195D03*
X504Y1395D03*
X504Y1595D03*
X504Y1795D03*
X504Y1995D03*
X504Y2195D03*
X3464Y595D03*
X3264Y595D03*
X3064Y595D03*
X2864Y595D03*
X2664Y595D03*
X3104Y2495D03*
X2904Y2495D03*
X2704Y2495D03*
X2504Y2495D03*
X1704Y595D03*
X1904Y595D03*
X2104Y595D03*
X2304Y595D03*
X404Y595D03*
X404Y695D03*
X404Y795D03*
X404Y895D03*
X404Y995D03*
X404Y1095D03*
X404Y1195D03*
X404Y1295D03*
X404Y1395D03*
X404Y1495D03*
X404Y1595D03*
X404Y1695D03*
X404Y1795D03*
X404Y1895D03*
X404Y1995D03*
X404Y2095D03*
X404Y2195D03*
X404Y2295D03*
X1304Y2495D03*
G54D15*
X2904Y1495D03*
X3404Y1495D03*
X2904Y1395D03*
X3404Y1395D03*
X2904Y1295D03*
X3404Y1295D03*
X2904Y1195D03*
X3404Y1195D03*
X2904Y1095D03*
X3404Y1095D03*
X2904Y995D03*
X3404Y995D03*
X2904Y895D03*
X3404Y895D03*
X2904Y795D03*
X3404Y795D03*
X2004Y1495D03*
X2504Y1495D03*
X2004Y1395D03*
X2504Y1395D03*
X2004Y1295D03*
X2504Y1295D03*
X2004Y1195D03*
X2504Y1195D03*
X2004Y1095D03*
X2504Y1095D03*
X2004Y995D03*
X2504Y995D03*
X2004Y895D03*
X2504Y895D03*
X2004Y795D03*
X2504Y795D03*
X1104Y1495D03*
X1604Y1495D03*
X1104Y1395D03*
X1604Y1395D03*
X1104Y1295D03*
X1604Y1295D03*
X1104Y1195D03*
X1604Y1195D03*
X1104Y1095D03*
X1604Y1095D03*
X1104Y995D03*
X1604Y995D03*
X1104Y895D03*
X1604Y895D03*
X1104Y795D03*
X1604Y795D03*
G54D10*
X3604Y1295D03*
X3604Y1195D03*
X3604Y1095D03*
X3604Y995D03*
X1804Y1295D03*
X1804Y1195D03*
X1804Y1095D03*
X1804Y995D03*
X2704Y1295D03*
X2704Y1195D03*
X2704Y1095D03*
X2704Y995D03*
G54D11*
X3804Y1395D03*
X3804Y1495D03*
X2804Y1595D03*
X2804Y1695D03*
X1904Y1595D03*
X1904Y1695D03*
X2404Y1595D03*
X2404Y1295D03*
X1504Y1495D03*
X1504Y1295D03*
X3304Y1595D03*
X3304Y1295D03*
G54D13*
X104Y895D03*
X104Y758D03*
X104Y620D03*
X104Y1395D03*
X104Y1258D03*
X104Y1120D03*
X1704Y295D03*
X1566Y295D03*
X1428Y295D03*
X1290Y295D03*
X1152Y295D03*
X1015Y295D03*
G54D10*
X3304Y395D03*
X3204Y395D03*
X3104Y395D03*
X3004Y395D03*
G54D11*
X2704Y1795D03*
X2704Y2395D03*
G54D10*
X3804Y1195D03*
X3804Y1095D03*
X3804Y995D03*
X3804Y895D03*
X3804Y795D03*
X3804Y695D03*
X3804Y1195D03*
X3804Y1095D03*
X3804Y995D03*
X3804Y895D03*
X3804Y795D03*
X3804Y695D03*
X3904Y695D03*
X3904Y795D03*
X3904Y895D03*
X3904Y995D03*
X3904Y1095D03*
X3904Y1195D03*
X1204Y1295D03*
X1204Y1195D03*
X1204Y1095D03*
X1204Y1295D03*
X1204Y1195D03*
X1204Y1095D03*
X1304Y1095D03*
X1304Y1195D03*
X1304Y1295D03*
X2104Y1295D03*
X2104Y1195D03*
X2104Y1095D03*
X2104Y1295D03*
X2104Y1195D03*
X2104Y1095D03*
X2204Y1095D03*
X2204Y1195D03*
X2204Y1295D03*
X3004Y1295D03*
X3004Y1195D03*
X3004Y1095D03*
X3004Y1295D03*
X3004Y1195D03*
X3004Y1095D03*
X3104Y1095D03*
X3104Y1195D03*
X3104Y1295D03*
G54D11*
X904Y1095D03*
X648Y1095D03*
X904Y1273D03*
X648Y1273D03*
X704Y995D03*
X704Y595D03*
X604Y995D03*
X604Y695D03*
X3104Y2195D03*
X2848Y2195D03*
X3104Y2373D03*
X2848Y2373D03*
G54D10*
X3304Y195D03*
X3204Y195D03*
X3104Y195D03*
X3004Y195D03*
G54D16*
X4204Y2595D03*
X204Y2595D03*
X204Y195D03*
X4204Y195D03*
G54D13*
X4104Y1495D03*
X4104Y1358D03*
G54D11*
X3004Y1895D03*
X3004Y1695D03*
X904Y1395D03*
X648Y1395D03*
X904Y1573D03*
X648Y1573D03*
X1004Y1095D03*
X1004Y695D03*
X704Y1695D03*
X1104Y1695D03*
X704Y1795D03*
X1104Y1795D03*
X704Y1895D03*
X1104Y1895D03*
X704Y1995D03*
X1104Y1995D03*
X704Y2095D03*
X1104Y2095D03*
G54D12*
X1205Y1695D03*
X1304Y1695D03*
X1405Y1795D03*
X1504Y1795D03*
X1205Y1895D03*
X1304Y1895D03*
X1405Y1995D03*
X1504Y1995D03*
X1205Y2095D03*
X1304Y2095D03*
G54D11*
X1704Y1895D03*
X1704Y1395D03*
G54D10*
X2404Y295D03*
X2304Y295D03*
X2204Y295D03*
X2104Y295D03*
X2004Y295D03*
X1904Y295D03*
X3604Y395D03*
X3504Y395D03*
G54D17*
X1205Y2295D03*
X1405Y2195D03*
X3804Y1894D03*
G54D18*
X4104Y1994D03*
G54D19*
X3404Y795D03*
X3404Y1395D03*
X2504Y795D03*
X2504Y1395D03*
X1604Y795D03*
X1604Y1395D03*
G54D20*
X3804Y1395D03*
X2804Y1595D03*
X1904Y1595D03*
G54D18*
X104Y895D03*
X104Y1395D03*
X1704Y295D03*
X4104Y1495D03*
G54D17*
X1205Y1695D03*
X1405Y1795D03*
X1205Y1895D03*
X1405Y1995D03*
X1205Y2095D03*
G04 End of Copper1*
M02*