; NON-PLATED HOLES START AT T1
; THROUGH (PLATED) HOLES START AT T100
M48
INCH
T100C0.038000
T101C0.038007
T102C0.040000
T103C0.038035
T104C0.035000
T105C0.030000
T106C0.031497
T107C0.037396
T108C0.033944
%
T100
X036079Y013696
X032079Y013696
X007079Y010696
X009079Y010696
X037079Y013696
X018079Y012696
X016079Y025696
X018079Y025696
X008079Y007696
X007079Y015696
X019079Y012696
X017079Y025696
X019079Y025696
X007079Y007696
X009079Y007696
X001079Y013696
X028079Y014696
X032079Y011696
X027079Y014696
X001079Y018696
X041079Y013696
X007079Y013696
X023079Y012696
X021079Y025696
X028079Y012696
X020079Y025696
X022079Y025696
X027079Y012696
X008079Y011696
X001079Y016696
X041079Y011696
X036079Y014696
X007079Y011696
X009079Y011696
X023079Y010696
X037079Y014696
X018079Y013696
X016079Y026696
X018079Y026696
X008079Y008696
X019079Y013696
X017079Y026696
X019079Y026696
X007079Y008696
X009079Y008696
X001079Y014696
X036079Y012696
X032079Y012696
X037079Y012696
X016079Y024696
X018079Y024696
X008079Y006696
X007079Y014696
X023079Y013696
X021079Y026696
X017079Y024696
X019079Y024696
X007079Y006696
X009079Y006696
X028079Y013696
X020079Y026696
X022079Y026696
X032079Y010696
X027079Y013696
X001079Y017696
X041079Y012696
X007079Y012696
X023079Y011696
X021079Y024696
X018079Y014696
X008079Y009696
X020079Y024696
X022079Y024696
X019079Y014696
X007079Y009696
X009079Y009696
X008079Y010696
X001079Y015696
X041079Y010696
T101
X022079Y023696
X031079Y023696
X013079Y023696
X024079Y023696
X006079Y023696
X007079Y023696
X015079Y023696
X016079Y023696
X017079Y023696
X025079Y023696
X010079Y023696
X026079Y023696
X008079Y023696
X027079Y023696
X009079Y023696
X020079Y023696
X018079Y023696
X019079Y023696
X011079Y023696
X030079Y023696
X012079Y023696
X028079Y023696
X029079Y023696
X021079Y023696
T102
X007457Y001696
X010079Y001696
X001079Y004562
X015591Y001696
X011457Y001696
X016969Y001696
X001079Y008696
X001079Y005940
X018347Y001696
X012835Y001696
X004457Y001696
X003079Y001696
X001079Y010074
X042079Y025696
X001079Y007318
X019724Y001696
X014213Y001696
X001079Y011452
X006079Y001696
X040701Y025696
T103
X012079Y004696
X021079Y004696
X027679Y004696
X022079Y004696
X028679Y004696
X029679Y004696
X013079Y004696
X030679Y004696
X014079Y004696
X031679Y004696
X023079Y004696
X024079Y004696
X015079Y004696
X032679Y004696
X017079Y004696
X010079Y004696
X008079Y004696
X009079Y004696
X025679Y004696
X020079Y004696
X026679Y004696
X018079Y004696
X019079Y004696
X011079Y004696
T104
X036079Y022924
X006079Y022696
X030079Y015696
X024079Y018696
X011079Y019696
X014079Y020696
X040079Y017696
X025079Y015696
X029079Y009696
X024079Y015696
X039079Y022696
X033520Y022924
X029079Y013696
X042079Y022696
X013079Y017696
X007079Y020696
X042079Y015696
X030079Y002696
X029079Y003696
X027079Y024696
X031079Y017696
X014079Y022696
X021079Y005696
X030079Y021696
X025079Y017696
X038079Y009696
X033079Y015696
X038079Y013696
X032079Y015696
X008079Y015696
X011079Y022696
X026079Y018696
X042079Y017696
X003079Y021696
X021079Y017696
X028079Y019696
X031079Y001696
X036079Y024696
X027079Y026696
X027079Y001696
X020907Y008868
X034079Y020696
X018079Y011696
X033520Y024696
X023079Y015696
X021079Y020255
X019307Y017696
X006079Y016696
X024079Y019696
X033079Y017696
X030079Y020696
X026079Y002696
X039079Y019696
X041079Y015696
X003079Y023696
X007079Y017696
X039079Y016696
X019307Y020255
X026079Y021696
X013079Y022696
X025079Y003696
X016079Y005696
X012079Y015696
X030079Y018696
T105
X031079Y008696
X017079Y010696
X035094Y015712
X031079Y012696
X022079Y014696
X035094Y008712
X035094Y012712
X022079Y011696
X040094Y009712
X026079Y009696
X040094Y013712
X026079Y013696
X017079Y015696
X017079Y008696
X040094Y010712
X026079Y010696
X017079Y012696
X031079Y014696
X022079Y009696
X035094Y014712
X031079Y011696
X022079Y013696
X035094Y011712
X022079Y010696
X040094Y015712
X040094Y008712
X026079Y015696
X026079Y008696
X040094Y012712
X026079Y012696
X017079Y014696
X031079Y009696
X017079Y011696
X031079Y013696
X022079Y015696
X035094Y009712
X022079Y008696
X035094Y013712
X031079Y010696
X022079Y012696
X035094Y010712
X040094Y014712
X026079Y014696
X017079Y009696
X040094Y011712
X026079Y011696
X017079Y013696
X031079Y015696
T106
X022079Y001696
X024079Y000712
X022079Y000712
X026079Y001696
X024079Y001696
X026079Y000712
T107
X004079Y019696
X004079Y013696
X005079Y008696
X005079Y018696
X005079Y012696
X004079Y004696
X004079Y014696
X005079Y009696
X005079Y019696
X005079Y013696
X004079Y005696
X004079Y015696
X005079Y004696
X005079Y014696
X004079Y006696
X004079Y016696
X004079Y010696
X005079Y005696
X004079Y020696
X005079Y015696
X004079Y007696
X004079Y017696
X004079Y011696
X005079Y006696
X004079Y021696
X005079Y016696
X005079Y010696
X005079Y020696
X004079Y008696
X004079Y018696
X004079Y012696
X005079Y007696
X005079Y017696
X005079Y011696
X005079Y021696
X004079Y009696
T108
X009079Y019696
X009079Y020696
X008079Y019696
X008079Y020696
X009079Y021696
X008079Y021696
X009079Y018696
X008079Y018696
T00
M30
