; NON-PLATED HOLES START AT T1
; THROUGH (PLATED) HOLES START AT T100
M48
INCH
T100C0.040000
T101C0.031497
T102C0.118110
T103C0.030000
T104C0.038000
T105C0.038194
T106C0.035000
%
T100
X001035Y006197
X041035Y013575
X014279Y002953
X041044Y019937
X001035Y011197
X010145Y002953
X011523Y002953
X001035Y007575
X015657Y002953
X041035Y014953
X012901Y002953
X017035Y002953
X001035Y012575
X001035Y008953
X041044Y018559
X001035Y013953
T101
X013035Y022953
X012050Y018953
X015035Y017953
X015035Y021953
X012050Y022953
X014050Y017953
X014050Y021953
X038035Y018937
X015035Y019953
X014050Y019953
X013035Y016953
X013035Y020953
X038035Y017953
X012050Y016953
X012050Y020953
X013035Y018953
T102
X002035Y001953
X002035Y025953
X042035Y001953
X042035Y025953
T103
X025035Y007953
X029035Y007953
X011035Y008953
X034035Y009953
X020035Y013953
X016035Y008953
X034035Y010953
X025035Y013953
X029035Y013953
X011035Y014953
X034035Y007953
X016035Y014953
X020035Y011953
X025035Y011953
X029035Y011953
X011035Y012953
X034035Y013953
X020035Y008953
X016035Y012953
X025035Y008953
X029035Y008953
X011035Y009953
X020035Y014953
X016035Y009953
X011035Y010953
X034035Y011953
X025035Y014953
X029035Y014953
X016035Y010953
X011035Y007953
X034035Y008953
X020035Y012953
X016035Y007953
X025035Y012953
X029035Y012953
X011035Y013953
X034035Y014953
X020035Y009953
X016035Y013953
X025035Y009953
X029035Y009953
X020035Y010953
X025035Y010953
X029035Y010953
X011035Y011953
X034035Y012953
X020035Y007953
X016035Y011953
T104
X007035Y023953
X001035Y017953
X016035Y023953
X031035Y003953
X007035Y003953
X001035Y016953
X022035Y002953
X038035Y009953
X007035Y002953
X012035Y012953
X031035Y001953
X021035Y012953
X038035Y008953
X002035Y019953
X030035Y012953
X038035Y011953
X007035Y001953
X002035Y022953
X012035Y011953
X019035Y002953
X021035Y011953
X038035Y007953
X030035Y011953
X038035Y010953
X007035Y000953
X002035Y021953
X012035Y010953
X018035Y009953
X005035Y003953
X020035Y002953
X021035Y010953
X038035Y006953
X027035Y009953
X018035Y012953
X002035Y017953
X008035Y023953
X030035Y010953
X036035Y009953
X017035Y023953
X027035Y012953
X032035Y003953
X002035Y020953
X005035Y002953
X036035Y012953
X008035Y003953
X018035Y011953
X002035Y016953
X023035Y002953
X027035Y011953
X039035Y009953
X005035Y001953
X035035Y003953
X036035Y011953
X008035Y002953
X013035Y012953
X018035Y010953
X022035Y012953
X027035Y010953
X032035Y001953
X039035Y008953
X031035Y012953
X005035Y000953
X036035Y010953
X039035Y011953
X008035Y001953
X013035Y011953
X006035Y023953
X022035Y011953
X039035Y007953
X015035Y023953
X031035Y011953
X030035Y003953
X039035Y010953
X008035Y000953
X013035Y010953
X006035Y003953
X022035Y010953
X021035Y002953
X039035Y006953
X009035Y023953
X031035Y010953
X018035Y023953
X033035Y003953
X006035Y002953
X024035Y002953
X030035Y001953
X006035Y001953
X036035Y003953
X033035Y001953
X006035Y000953
T105
X025035Y024953
X005035Y011953
X004035Y022953
X005035Y007953
X025635Y005953
X004035Y018953
X019035Y005953
X034635Y005953
X019035Y024953
X005035Y010953
X004035Y021953
X028035Y024953
X005035Y006953
X011035Y005953
X004035Y017953
X011035Y024953
X020035Y005953
X028635Y005953
X020035Y024953
X004035Y020953
X005035Y005953
X004035Y016953
X014035Y005953
X023035Y005953
X004035Y015953
X008035Y005953
X008035Y024953
X017035Y005953
X032635Y005953
X005035Y019953
X017035Y024953
X026035Y024953
X005035Y022953
X004035Y014953
X026635Y005953
X005035Y018953
X005035Y021953
X004035Y013953
X029035Y024953
X012035Y005953
X005035Y017953
X012035Y024953
X004035Y009953
X021035Y005953
X029635Y005953
X021035Y024953
X005035Y020953
X004035Y012953
X030035Y024953
X005035Y016953
X006035Y024953
X004035Y008953
X015035Y005953
X030635Y005953
X015035Y024953
X024035Y005953
X004035Y011953
X024035Y024953
X005035Y015953
X004035Y007953
X009035Y005953
X009035Y024953
X018035Y005953
X033635Y005953
X018035Y024953
X004035Y010953
X027035Y024953
X005035Y014953
X004035Y006953
X010035Y005953
X010035Y024953
X027635Y005953
X005035Y013953
X004035Y005953
X013035Y005953
X013035Y024953
X005035Y009953
X022035Y005953
X022035Y024953
X031035Y024953
X005035Y012953
X007035Y024953
X005035Y008953
X031635Y005953
X004035Y019953
X016035Y024953
T106
X006035Y006953
X028035Y015953
X033035Y017953
X037035Y017953
X009035Y015725
X007035Y019953
X019035Y016953
X011035Y022953
X007035Y020953
X033035Y015953
X011035Y019953
X006035Y009953
X007035Y017953
X010035Y006953
X006476Y010953
X015035Y014953
X007035Y009953
X011035Y020953
X031035Y021953
X009035Y010953
X024035Y008953
X022035Y008953
X011035Y017953
X030035Y018953
X028035Y016953
X003035Y015953
X028476Y023725
X015035Y012953
X038035Y013953
X006476Y013953
X007035Y021953
X010035Y010953
X030035Y016953
X009035Y013953
X003035Y013953
X007035Y005953
X003035Y005953
X007035Y018953
X003035Y018953
X024035Y012953
X019035Y015953
X038035Y016953
X011035Y021953
X006476Y012725
X027035Y017953
X031035Y023725
X011035Y018953
X009035Y012725
X007035Y016953
X040035Y016953
X017035Y013953
X038035Y014953
X024035Y015953
X027035Y023953
X017035Y018953
X006476Y015725
X007035Y022953
X033035Y012953
X011035Y016953
X028476Y021953
T00
M30
